<svg width="608" height="18" viewBox="0 0 608 18" fill="none" xmlns="http://www.w3.org/2000/svg">
<path d="M546.826 14V3.09091H551.375C552.191 3.09091 552.875 3.20632 553.425 3.43714C553.979 3.66797 554.395 3.99112 554.672 4.4066C554.952 4.82209 555.093 5.30327 555.093 5.85014C555.093 6.26562 555.006 6.63672 554.832 6.96342C554.658 7.28658 554.418 7.55469 554.113 7.76776C553.807 7.98082 553.454 8.12997 553.053 8.2152V8.32173C553.493 8.34304 553.9 8.462 554.272 8.67862C554.649 8.89524 554.951 9.19709 555.178 9.58416C555.405 9.96768 555.519 10.4222 555.519 10.9478C555.519 11.5337 555.37 12.0575 555.071 12.5192C554.773 12.9773 554.342 13.3395 553.777 13.6058C553.212 13.8686 552.527 14 551.721 14H546.826ZM549.462 11.8746H551.092C551.664 11.8746 552.085 11.7663 552.355 11.5497C552.628 11.3331 552.765 11.0312 552.765 10.6442C552.765 10.3636 552.699 10.1222 552.568 9.91974C552.436 9.71378 552.25 9.55575 552.009 9.44567C551.767 9.33203 551.478 9.27521 551.14 9.27521H549.462V11.8746ZM549.462 7.57599H550.922C551.21 7.57599 551.465 7.52805 551.689 7.43217C551.913 7.33629 552.087 7.1978 552.211 7.01669C552.339 6.83558 552.403 6.61719 552.403 6.36151C552.403 5.99574 552.273 5.7081 552.014 5.49858C551.755 5.28906 551.405 5.1843 550.964 5.1843H549.462V7.57599ZM560.611 14.1545C559.755 14.1545 559.017 13.9858 558.395 13.6484C557.777 13.3075 557.301 12.8228 556.968 12.1942C556.637 11.5621 556.472 10.8111 556.472 9.94105C556.472 9.09588 556.639 8.35724 556.973 7.72514C557.307 7.08949 557.777 6.59588 558.385 6.24432C558.992 5.8892 559.707 5.71165 560.531 5.71165C561.114 5.71165 561.646 5.8022 562.129 5.98331C562.612 6.16442 563.029 6.43253 563.381 6.78764C563.733 7.14276 564.006 7.58132 564.201 8.10334C564.397 8.6218 564.494 9.21662 564.494 9.88778V10.5376H557.383V9.02486H562.071C562.067 8.74787 562.001 8.50107 561.874 8.28445C561.746 8.06783 561.57 7.89915 561.346 7.77841C561.126 7.65412 560.872 7.59197 560.585 7.59197C560.293 7.59197 560.032 7.65767 559.801 7.78906C559.571 7.9169 559.388 8.09268 559.253 8.31641C559.118 8.53658 559.047 8.78693 559.04 9.06747V10.6069C559.04 10.9407 559.105 11.2337 559.237 11.4858C559.368 11.7344 559.555 11.9279 559.796 12.0664C560.038 12.2049 560.325 12.2741 560.659 12.2741C560.89 12.2741 561.099 12.2422 561.288 12.1783C561.476 12.1143 561.637 12.0202 561.772 11.896C561.907 11.7717 562.009 11.619 562.076 11.4379L564.468 11.5071C564.368 12.0433 564.15 12.5103 563.812 12.908C563.479 13.3022 563.04 13.6094 562.497 13.8295C561.953 14.0462 561.325 14.1545 560.611 14.1545ZM570.443 5.81818V7.7358H565.281V5.81818H570.443ZM566.363 3.85795H568.967V11.4272C568.967 11.587 568.992 11.7166 569.042 11.8161C569.095 11.9119 569.172 11.9812 569.271 12.0238C569.37 12.0629 569.489 12.0824 569.628 12.0824C569.727 12.0824 569.832 12.0735 569.942 12.0558C570.056 12.0344 570.141 12.0167 570.198 12.0025L570.592 13.8828C570.468 13.9183 570.292 13.9627 570.065 14.016C569.841 14.0692 569.573 14.103 569.26 14.1172C568.65 14.1456 568.126 14.0746 567.689 13.9041C567.256 13.7301 566.924 13.4602 566.693 13.0945C566.466 12.7287 566.356 12.2688 566.363 11.7148V3.85795ZM574.078 14.1385C573.556 14.1385 573.093 14.0515 572.688 13.8775C572.287 13.6999 571.969 13.4336 571.735 13.0785C571.504 12.7198 571.388 12.2706 571.388 11.7308C571.388 11.2763 571.468 10.8928 571.628 10.5803C571.788 10.2678 572.008 10.0138 572.289 9.81854C572.569 9.62322 572.892 9.47585 573.258 9.37642C573.624 9.27344 574.014 9.20419 574.43 9.16868C574.895 9.12607 575.27 9.08168 575.554 9.03551C575.838 8.9858 576.044 8.91655 576.172 8.82777C576.303 8.73544 576.369 8.60582 576.369 8.43892V8.41229C576.369 8.13885 576.275 7.92756 576.087 7.77841C575.898 7.62926 575.644 7.55469 575.325 7.55469C574.98 7.55469 574.703 7.62926 574.494 7.77841C574.284 7.92756 574.151 8.13352 574.094 8.39631L571.692 8.31108C571.763 7.81392 571.946 7.37003 572.241 6.9794C572.539 6.58523 572.947 6.27628 573.466 6.05256C573.988 5.82528 574.615 5.71165 575.346 5.71165C575.868 5.71165 576.349 5.77379 576.79 5.89808C577.23 6.01882 577.614 6.19638 577.94 6.43075C578.267 6.66158 578.519 6.94567 578.697 7.28303C578.878 7.62038 578.968 8.00568 578.968 8.43892V14H576.518V12.8601H576.454C576.309 13.1371 576.122 13.3714 575.895 13.5632C575.671 13.755 575.407 13.8988 575.101 13.9947C574.799 14.0906 574.458 14.1385 574.078 14.1385ZM574.883 12.4339C575.163 12.4339 575.415 12.3771 575.639 12.2635C575.866 12.1499 576.047 11.9936 576.182 11.7947C576.317 11.5923 576.385 11.358 576.385 11.0916V10.3139C576.31 10.353 576.22 10.3885 576.113 10.4205C576.01 10.4524 575.897 10.4826 575.772 10.511C575.648 10.5394 575.52 10.5643 575.389 10.5856C575.257 10.6069 575.131 10.6264 575.011 10.6442C574.766 10.6832 574.556 10.7436 574.382 10.8253C574.212 10.907 574.08 11.0135 573.988 11.1449C573.899 11.2727 573.855 11.4254 573.855 11.603C573.855 11.8729 573.951 12.0788 574.142 12.2209C574.338 12.3629 574.584 12.4339 574.883 12.4339ZM583.166 3.09091V14H580.561V3.09091H583.166ZM584.824 14V5.81818H587.428V14H584.824ZM586.129 4.8647C585.763 4.8647 585.449 4.74396 585.186 4.50249C584.923 4.25746 584.792 3.96271 584.792 3.61825C584.792 3.27734 584.923 2.98615 585.186 2.74467C585.449 2.49964 585.763 2.37713 586.129 2.37713C586.498 2.37713 586.812 2.49964 587.072 2.74467C587.334 2.98615 587.466 3.27734 587.466 3.61825C587.466 3.96271 587.334 4.25746 587.072 4.50249C586.812 4.74396 586.498 4.8647 586.129 4.8647ZM591.691 9.33381V14H589.086V5.81818H591.563V7.32031H591.654C591.835 6.8196 592.144 6.4272 592.581 6.14311C593.017 5.85547 593.538 5.71165 594.141 5.71165C594.717 5.71165 595.216 5.84126 595.638 6.1005C596.064 6.35618 596.395 6.71484 596.629 7.17649C596.867 7.63459 596.984 8.17081 596.981 8.78516V14H594.376V9.29652C594.379 8.84197 594.264 8.48686 594.03 8.23118C593.799 7.9755 593.477 7.84766 593.065 7.84766C592.792 7.84766 592.551 7.90803 592.341 8.02876C592.135 8.14595 591.975 8.31463 591.862 8.5348C591.752 8.75497 591.695 9.02131 591.691 9.33381ZM602.407 17.2386C601.629 17.2386 600.964 17.1303 600.41 16.9137C599.856 16.6971 599.421 16.4006 599.105 16.0241C598.789 15.6477 598.599 15.2216 598.535 14.7457L601.001 14.6072C601.047 14.7741 601.132 14.9197 601.257 15.044C601.384 15.1683 601.55 15.2642 601.752 15.3317C601.958 15.3991 602.199 15.4329 602.476 15.4329C602.913 15.4329 603.274 15.3263 603.558 15.1133C603.845 14.9038 603.989 14.5362 603.989 14.0107V12.5724H603.899C603.796 12.8246 603.639 13.0501 603.43 13.2489C603.22 13.4478 602.959 13.604 602.647 13.7177C602.338 13.8313 601.983 13.8881 601.581 13.8881C600.985 13.8881 600.438 13.7496 599.941 13.4727C599.447 13.1921 599.051 12.7589 598.753 12.1729C598.458 11.5835 598.311 10.8253 598.311 9.89844C598.311 8.94318 598.464 8.1566 598.769 7.53871C599.074 6.91726 599.474 6.45739 599.968 6.15909C600.465 5.8608 600.999 5.71165 601.571 5.71165C602.001 5.71165 602.368 5.78622 602.673 5.93537C602.982 6.08097 603.236 6.26918 603.435 6.5C603.634 6.73082 603.785 6.97053 603.888 7.2191H603.963V5.81818H606.557V14.032C606.557 14.7244 606.383 15.3086 606.035 15.7844C605.687 16.2603 605.2 16.6207 604.575 16.8658C603.95 17.1143 603.227 17.2386 602.407 17.2386ZM602.487 11.9918C602.803 11.9918 603.073 11.9084 603.297 11.7415C603.52 11.5746 603.693 11.3349 603.813 11.0224C603.934 10.7099 603.994 10.3352 603.994 9.89844C603.994 9.45455 603.934 9.0728 603.813 8.7532C603.696 8.43004 603.524 8.18146 603.297 8.00746C603.073 7.83345 602.803 7.74645 602.487 7.74645C602.164 7.74645 601.89 7.83523 601.667 8.01278C601.443 8.19034 601.273 8.4407 601.155 8.76385C601.042 9.08345 600.985 9.46165 600.985 9.89844C600.985 10.3352 601.044 10.7099 601.161 11.0224C601.278 11.3349 601.447 11.5746 601.667 11.7415C601.89 11.9084 602.164 11.9918 602.487 11.9918Z" fill="#4E4F3D"/>
<path d="M218.321 14V3.09091H222.007C222.859 3.09091 223.559 3.23651 224.106 3.5277C224.653 3.81534 225.058 4.21129 225.32 4.71555C225.583 5.21982 225.714 5.79332 225.714 6.43608C225.714 7.07884 225.583 7.64879 225.32 8.14595C225.058 8.64311 224.654 9.03374 224.111 9.31783C223.568 9.59837 222.874 9.73864 222.028 9.73864H219.045V8.54545H221.986C222.568 8.54545 223.037 8.46023 223.392 8.28977C223.751 8.11932 224.01 7.87784 224.17 7.56534C224.333 7.24929 224.415 6.87287 224.415 6.43608C224.415 5.99929 224.333 5.61754 224.17 5.29084C224.006 4.96413 223.745 4.712 223.387 4.53445C223.028 4.35334 222.554 4.26278 221.964 4.26278H219.642V14H218.321ZM223.456 9.09943L226.141 14H224.607L221.964 9.09943H223.456ZM231.088 14.1705C230.299 14.1705 229.619 13.9964 229.048 13.6484C228.479 13.2969 228.041 12.8068 227.732 12.1783C227.427 11.5462 227.274 10.8111 227.274 9.97301C227.274 9.13494 227.427 8.39631 227.732 7.7571C228.041 7.11435 228.471 6.61364 229.021 6.25497C229.575 5.89276 230.221 5.71165 230.96 5.71165C231.386 5.71165 231.807 5.78267 232.222 5.92472C232.638 6.06676 233.016 6.29759 233.357 6.61719C233.698 6.93324 233.97 7.35227 234.172 7.87429C234.374 8.39631 234.476 9.03906 234.476 9.80256V10.3352H228.169V9.24858H233.197C233.197 8.78693 233.105 8.375 232.92 8.01278C232.739 7.65057 232.48 7.3647 232.142 7.15518C231.809 6.94567 231.415 6.84091 230.96 6.84091C230.459 6.84091 230.026 6.9652 229.66 7.21378C229.298 7.45881 229.019 7.77841 228.824 8.17258C228.629 8.56676 228.531 8.98935 228.531 9.44034V10.1648C228.531 10.7827 228.638 11.3065 228.851 11.7362C229.067 12.1623 229.367 12.4872 229.751 12.7109C230.134 12.9311 230.58 13.0412 231.088 13.0412C231.418 13.0412 231.716 12.995 231.983 12.9027C232.253 12.8068 232.485 12.6648 232.68 12.4766C232.876 12.2848 233.027 12.0469 233.133 11.7628L234.348 12.1037C234.22 12.5156 234.005 12.8778 233.703 13.1903C233.401 13.4993 233.028 13.7408 232.585 13.9148C232.141 14.0852 231.642 14.1705 231.088 14.1705ZM239.69 17.2386C239.083 17.2386 238.561 17.1605 238.124 17.0043C237.688 16.8516 237.324 16.6491 237.032 16.397C236.745 16.1484 236.516 15.8821 236.345 15.598L237.347 14.8949C237.46 15.044 237.604 15.2145 237.778 15.4062C237.952 15.6016 238.19 15.7702 238.492 15.9123C238.797 16.0579 239.197 16.1307 239.69 16.1307C240.351 16.1307 240.896 15.9709 241.326 15.6513C241.755 15.3317 241.97 14.831 241.97 14.1491V12.4872H241.864C241.771 12.6364 241.64 12.821 241.47 13.0412C241.303 13.2578 241.061 13.4513 240.745 13.6218C240.433 13.7887 240.01 13.8722 239.477 13.8722C238.817 13.8722 238.224 13.7159 237.698 13.4034C237.176 13.0909 236.763 12.6364 236.457 12.0398C236.155 11.4432 236.004 10.7187 236.004 9.86648C236.004 9.02841 236.152 8.29865 236.446 7.6772C236.741 7.0522 237.151 6.56925 237.677 6.22834C238.203 5.88388 238.81 5.71165 239.499 5.71165C240.031 5.71165 240.454 5.80043 240.766 5.97798C241.082 6.15199 241.324 6.35085 241.491 6.57457C241.661 6.79474 241.793 6.97585 241.885 7.1179H242.013V5.81818H243.227V14.2344C243.227 14.9375 243.068 15.5092 242.748 15.9496C242.432 16.3935 242.006 16.7184 241.47 16.9244C240.937 17.1339 240.344 17.2386 239.69 17.2386ZM239.648 12.7429C240.152 12.7429 240.578 12.6275 240.926 12.3967C241.274 12.1658 241.539 11.8338 241.72 11.4006C241.901 10.9673 241.992 10.4489 241.992 9.84517C241.992 9.25568 241.903 8.73544 241.725 8.28445C241.548 7.83345 241.285 7.48011 240.937 7.22443C240.589 6.96875 240.159 6.84091 239.648 6.84091C239.115 6.84091 238.671 6.97585 238.316 7.24574C237.965 7.51562 237.7 7.87784 237.522 8.33239C237.348 8.78693 237.261 9.29119 237.261 9.84517C237.261 10.4134 237.35 10.9158 237.528 11.3526C237.709 11.7859 237.975 12.1268 238.327 12.3754C238.682 12.6204 239.122 12.7429 239.648 12.7429ZM245.528 14V5.81818H246.786V14H245.528ZM246.168 4.45455C245.923 4.45455 245.711 4.37109 245.534 4.20419C245.36 4.03729 245.273 3.83665 245.273 3.60227C245.273 3.3679 245.36 3.16726 245.534 3.00035C245.711 2.83345 245.923 2.75 246.168 2.75C246.413 2.75 246.622 2.83345 246.796 3.00035C246.974 3.16726 247.063 3.3679 247.063 3.60227C247.063 3.83665 246.974 4.03729 246.796 4.20419C246.622 4.37109 246.413 4.45455 246.168 4.45455ZM254.884 7.65057L253.754 7.97017C253.683 7.78196 253.578 7.59908 253.44 7.42152C253.305 7.24041 253.12 7.09126 252.886 6.97408C252.652 6.85689 252.352 6.7983 251.986 6.7983C251.485 6.7983 251.068 6.91371 250.734 7.14453C250.404 7.3718 250.239 7.66122 250.239 8.01278C250.239 8.32528 250.352 8.57209 250.58 8.7532C250.807 8.9343 251.162 9.08523 251.645 9.20597L252.859 9.50426C253.591 9.68182 254.136 9.95348 254.495 10.3192C254.853 10.6815 255.033 11.1484 255.033 11.7202C255.033 12.1889 254.898 12.608 254.628 12.9773C254.362 13.3466 253.989 13.6378 253.509 13.8509C253.03 14.0639 252.472 14.1705 251.837 14.1705C251.002 14.1705 250.311 13.9893 249.765 13.6271C249.218 13.2649 248.871 12.7358 248.726 12.0398L249.919 11.7415C250.033 12.1818 250.248 12.5121 250.564 12.7322C250.883 12.9524 251.3 13.0625 251.815 13.0625C252.401 13.0625 252.866 12.9382 253.211 12.6896C253.559 12.4375 253.733 12.1357 253.733 11.7841C253.733 11.5 253.634 11.2621 253.435 11.0703C253.236 10.875 252.93 10.7294 252.518 10.6335L251.155 10.3139C250.406 10.1364 249.855 9.86115 249.504 9.48828C249.156 9.11186 248.982 8.64134 248.982 8.0767C248.982 7.61506 249.111 7.20668 249.37 6.85156C249.633 6.49645 249.99 6.21768 250.441 6.01527C250.896 5.81286 251.411 5.71165 251.986 5.71165C252.795 5.71165 253.431 5.8892 253.893 6.24432C254.358 6.59943 254.688 7.06818 254.884 7.65057ZM260.483 5.81818V6.88352H256.243V5.81818H260.483ZM257.479 3.85795H258.736V11.6562C258.736 12.0114 258.788 12.2777 258.891 12.4553C258.997 12.6293 259.132 12.7464 259.295 12.8068C259.462 12.8636 259.638 12.892 259.823 12.892C259.961 12.892 260.075 12.8849 260.164 12.8707C260.252 12.853 260.323 12.8388 260.377 12.8281L260.632 13.9574C260.547 13.9893 260.428 14.0213 260.275 14.0533C260.123 14.0888 259.929 14.1065 259.695 14.1065C259.34 14.1065 258.992 14.0302 258.651 13.8775C258.313 13.7248 258.033 13.4922 257.809 13.1797C257.589 12.8672 257.479 12.473 257.479 11.9972V3.85795ZM262.374 14V5.81818H263.589V7.05398H263.674C263.823 6.64915 264.093 6.32067 264.484 6.06854C264.874 5.81641 265.315 5.69034 265.805 5.69034C265.897 5.69034 266.012 5.69212 266.151 5.69567C266.289 5.69922 266.394 5.70455 266.465 5.71165V6.99006C266.422 6.9794 266.325 6.96342 266.172 6.94212C266.023 6.91726 265.865 6.90483 265.698 6.90483C265.3 6.90483 264.945 6.98828 264.633 7.15518C264.324 7.31854 264.079 7.54581 263.898 7.837C263.72 8.12464 263.631 8.45312 263.631 8.82244V14H262.374ZM271.137 14.1705C270.348 14.1705 269.668 13.9964 269.097 13.6484C268.528 13.2969 268.09 12.8068 267.781 12.1783C267.475 11.5462 267.323 10.8111 267.323 9.97301C267.323 9.13494 267.475 8.39631 267.781 7.7571C268.09 7.11435 268.519 6.61364 269.07 6.25497C269.624 5.89276 270.27 5.71165 271.009 5.71165C271.435 5.71165 271.856 5.78267 272.271 5.92472C272.687 6.06676 273.065 6.29759 273.406 6.61719C273.747 6.93324 274.018 7.35227 274.221 7.87429C274.423 8.39631 274.524 9.03906 274.524 9.80256V10.3352H268.218V9.24858H273.246C273.246 8.78693 273.154 8.375 272.969 8.01278C272.788 7.65057 272.529 7.3647 272.191 7.15518C271.858 6.94567 271.463 6.84091 271.009 6.84091C270.508 6.84091 270.075 6.9652 269.709 7.21378C269.347 7.45881 269.068 7.77841 268.873 8.17258C268.677 8.56676 268.58 8.98935 268.58 9.44034V10.1648C268.58 10.7827 268.686 11.3065 268.899 11.7362C269.116 12.1623 269.416 12.4872 269.8 12.7109C270.183 12.9311 270.629 13.0412 271.137 13.0412C271.467 13.0412 271.765 12.995 272.032 12.9027C272.301 12.8068 272.534 12.6648 272.729 12.4766C272.925 12.2848 273.076 12.0469 273.182 11.7628L274.397 12.1037C274.269 12.5156 274.054 12.8778 273.752 13.1903C273.45 13.4993 273.077 13.7408 272.633 13.9148C272.19 14.0852 271.691 14.1705 271.137 14.1705ZM276.437 14V5.81818H277.651V7.05398H277.736C277.886 6.64915 278.155 6.32067 278.546 6.06854C278.937 5.81641 279.377 5.69034 279.867 5.69034C279.959 5.69034 280.075 5.69212 280.213 5.69567C280.352 5.69922 280.457 5.70455 280.528 5.71165V6.99006C280.485 6.9794 280.387 6.96342 280.235 6.94212C280.085 6.91726 279.927 6.90483 279.761 6.90483C279.363 6.90483 279.008 6.98828 278.695 7.15518C278.386 7.31854 278.141 7.54581 277.96 7.837C277.783 8.12464 277.694 8.45312 277.694 8.82244V14H276.437ZM282.018 14V5.81818H283.275V14H282.018ZM282.657 4.45455C282.412 4.45455 282.201 4.37109 282.023 4.20419C281.849 4.03729 281.762 3.83665 281.762 3.60227C281.762 3.3679 281.849 3.16726 282.023 3.00035C282.201 2.83345 282.412 2.75 282.657 2.75C282.902 2.75 283.112 2.83345 283.286 3.00035C283.463 3.16726 283.552 3.3679 283.552 3.60227C283.552 3.83665 283.463 4.03729 283.286 4.20419C283.112 4.37109 282.902 4.45455 282.657 4.45455ZM286.834 9.07812V14H285.577V5.81818H286.792V7.09659H286.898C287.09 6.68111 287.381 6.3473 287.772 6.09517C288.163 5.83949 288.667 5.71165 289.285 5.71165C289.839 5.71165 290.323 5.82528 290.739 6.05256C291.154 6.27628 291.478 6.61719 291.708 7.07528C291.939 7.52983 292.055 8.10511 292.055 8.80114V14H290.797V8.88636C290.797 8.24361 290.631 7.7429 290.297 7.38423C289.963 7.02202 289.505 6.84091 288.922 6.84091C288.521 6.84091 288.163 6.92791 287.847 7.10192C287.534 7.27592 287.287 7.52983 287.106 7.86364C286.925 8.19744 286.834 8.60227 286.834 9.07812ZM297.654 17.2386C297.047 17.2386 296.525 17.1605 296.088 17.0043C295.651 16.8516 295.287 16.6491 294.996 16.397C294.709 16.1484 294.48 15.8821 294.309 15.598L295.311 14.8949C295.424 15.044 295.568 15.2145 295.742 15.4062C295.916 15.6016 296.154 15.7702 296.456 15.9123C296.761 16.0579 297.161 16.1307 297.654 16.1307C298.315 16.1307 298.86 15.9709 299.29 15.6513C299.719 15.3317 299.934 14.831 299.934 14.1491V12.4872H299.828C299.735 12.6364 299.604 12.821 299.433 13.0412C299.267 13.2578 299.025 13.4513 298.709 13.6218C298.396 13.7887 297.974 13.8722 297.441 13.8722C296.781 13.8722 296.188 13.7159 295.662 13.4034C295.14 13.0909 294.726 12.6364 294.421 12.0398C294.119 11.4432 293.968 10.7187 293.968 9.86648C293.968 9.02841 294.116 8.29865 294.41 7.6772C294.705 7.0522 295.115 6.56925 295.641 6.22834C296.166 5.88388 296.774 5.71165 297.463 5.71165C297.995 5.71165 298.418 5.80043 298.73 5.97798C299.046 6.15199 299.288 6.35085 299.455 6.57457C299.625 6.79474 299.757 6.97585 299.849 7.1179H299.977V5.81818H301.191V14.2344C301.191 14.9375 301.031 15.5092 300.712 15.9496C300.396 16.3935 299.97 16.7184 299.433 16.9244C298.901 17.1339 298.308 17.2386 297.654 17.2386ZM297.612 12.7429C298.116 12.7429 298.542 12.6275 298.89 12.3967C299.238 12.1658 299.503 11.8338 299.684 11.4006C299.865 10.9673 299.955 10.4489 299.955 9.84517C299.955 9.25568 299.867 8.73544 299.689 8.28445C299.512 7.83345 299.249 7.48011 298.901 7.22443C298.553 6.96875 298.123 6.84091 297.612 6.84091C297.079 6.84091 296.635 6.97585 296.28 7.24574C295.928 7.51562 295.664 7.87784 295.486 8.33239C295.312 8.78693 295.225 9.29119 295.225 9.84517C295.225 10.4134 295.314 10.9158 295.492 11.3526C295.673 11.7859 295.939 12.1268 296.291 12.3754C296.646 12.6204 297.086 12.7429 297.612 12.7429Z" fill="#4E4F3D"/>
<line x1="310" y1="8.5" x2="382" y2="8.5" stroke="#4E4F3D"/>
<line x1="462" y1="8.5" x2="534" y2="8.5" stroke="#4E4F3D"/>
<line x1="147" y1="8.5" x2="209" y2="8.5" stroke="#4E4F3D"/>
<path d="M1.76847 3.09091L5.0071 12.2741H5.13494L8.37358 3.09091H9.75852L5.75284 14H4.3892L0.383523 3.09091H1.76847ZM19.0909 14.1705C18.1854 14.1705 17.4325 13.9485 16.8324 13.5046C16.2322 13.0572 15.8629 12.4766 15.7244 11.7628L15.9588 7.69318C16.2251 7.07528 16.6104 6.59055 17.1147 6.23899C17.6225 5.88743 18.2386 5.71165 18.9631 5.71165C19.3892 5.71165 19.81 5.78267 20.2255 5.92472C20.641 6.06676 21.0192 6.29759 21.3601 6.61719C21.701 6.93324 21.9727 7.35227 22.1751 7.87429C22.3775 8.39631 22.4787 9.03906 22.4787 9.80256V10.3352H16.1719V9.24858H21.2003C21.2003 8.78693 21.108 8.375 20.9233 8.01278C20.7422 7.65057 20.483 7.3647 20.1456 7.15518C19.8118 6.94567 19.4176 6.84091 18.9631 6.84091C18.4624 6.84091 18.0291 6.9652 17.6634 7.21378C17.3011 7.45881 17.0224 7.78018 16.8271 8.17791C16.6317 8.57209 16.5341 8.9929 16.5341 9.44034V10.1648C16.5341 10.7827 16.6424 11.3065 16.859 11.7362C17.0756 12.1623 17.3757 12.4872 17.7592 12.7109C18.1428 12.9311 18.5866 13.0412 19.0909 13.0412C19.4212 13.0412 19.7195 12.995 19.9858 12.9027C20.2557 12.8068 20.4883 12.6648 20.6836 12.4766C20.8789 12.2848 21.0298 12.0469 21.1364 11.7628L22.3509 12.1037C22.223 12.5156 22.0082 12.8778 21.7063 13.1903C21.4045 13.4993 21.0316 13.7408 20.5877 13.9148C20.1438 14.0852 19.6449 14.1705 19.0909 14.1705ZM13.125 13.0625C13.6222 13.0625 14.0412 12.9648 14.3821 12.7695C14.7266 12.5742 14.9858 12.3221 15.1598 12.0131C15.3374 11.7042 15.4261 11.3793 15.4261 11.0384V9.88778C15.3729 9.9517 15.2557 10.0103 15.0746 10.0636C14.897 10.1133 14.6911 10.1577 14.4567 10.1967C14.2259 10.2322 14.0004 10.2642 13.7802 10.2926C13.5636 10.3175 13.3878 10.3388 13.2528 10.3565C12.9261 10.3991 12.6207 10.4684 12.3366 10.5643C12.0561 10.6566 11.8288 10.7969 11.6548 10.9851C11.4844 11.1697 11.3991 11.4219 11.3991 11.7415C11.3991 12.1783 11.5607 12.5085 11.8839 12.7322C12.2106 12.9524 12.6243 13.0625 13.125 13.0625ZM12.9332 14.1918C12.4148 14.1918 11.9442 14.0941 11.5217 13.8988C11.0991 13.6999 10.7635 13.4141 10.5149 13.0412C10.2663 12.6648 10.142 12.2102 10.142 11.6776C10.142 11.2088 10.2344 10.8288 10.419 10.5376C10.6072 10.2429 10.854 10.0121 11.1594 9.84517C11.4684 9.67472 11.8111 9.54865 12.1875 9.46697C12.5639 9.38175 12.9403 9.31605 13.3168 9.26989C13.8139 9.20597 14.217 9.15625 14.5259 9.12074C14.8384 9.08523 15.0657 9.02663 15.2077 8.94496C15.3533 8.86328 15.4261 8.72301 15.4261 8.52415V8.48153C15.4261 7.95952 15.2823 7.55291 14.9947 7.26172C14.707 6.96697 14.2756 6.8196 13.7003 6.8196C13.1037 6.8196 12.6332 6.95099 12.2887 7.21378C11.9478 7.47656 11.7081 7.7571 11.5696 8.0554L10.3764 7.62926C10.5895 7.1321 10.8736 6.74503 11.2287 6.46804C11.5874 6.1875 11.978 5.99219 12.4006 5.8821C12.8267 5.76847 13.2457 5.71165 13.6577 5.71165C13.8778 5.71165 14.1264 5.73295 14.4034 5.77557C14.6804 5.81463 14.9592 5.89453 15.2397 6.01527C15.5202 6.13601 15.7759 6.31534 16.0067 6.55327C16.2376 6.79119 16.4134 7.10724 16.5341 7.50142L16.044 12.5085H15.9375C15.831 12.8139 15.6303 13.0945 15.3356 13.3501C15.0444 13.6058 14.6893 13.81 14.2702 13.9627C13.8548 14.1154 13.4091 14.1918 12.9332 14.1918ZM25.6547 3.09091V14H24.3976V3.09091H25.6547ZM31.2598 17.2386C30.6525 17.2386 30.1305 17.1605 29.6937 17.0043C29.2569 16.8516 28.8929 16.6491 28.6017 16.397C28.3141 16.1484 28.085 15.8821 27.9146 15.598L28.916 14.8949C29.0297 15.044 29.1735 15.2145 29.3475 15.4062C29.5215 15.6016 29.7594 15.7702 30.0613 15.9123C30.3667 16.0579 30.7662 16.1307 31.2598 16.1307C31.9203 16.1307 32.4654 15.9709 32.8951 15.6513C33.3248 15.3317 33.5396 14.831 33.5396 14.1491V12.4872H33.4331C33.3407 12.6364 33.2093 12.821 33.0389 13.0412C32.872 13.2578 32.6305 13.4513 32.3145 13.6218C32.002 13.7887 31.5794 13.8722 31.0467 13.8722C30.3862 13.8722 29.7931 13.7159 29.2676 13.4034C28.7456 13.0909 28.3319 12.6364 28.0265 12.0398C27.7246 11.4432 27.5737 10.7187 27.5737 9.86648C27.5737 9.02841 27.7211 8.29865 28.0158 7.6772C28.3105 7.0522 28.7207 6.56925 29.2463 6.22834C29.7718 5.88388 30.3791 5.71165 31.068 5.71165C31.6007 5.71165 32.0233 5.80043 32.3358 5.97798C32.6518 6.15199 32.8933 6.35085 33.0602 6.57457C33.2306 6.79474 33.362 6.97585 33.4544 7.1179H33.5822V5.81818H34.7967V14.2344C34.7967 14.9375 34.6369 15.5092 34.3173 15.9496C34.0012 16.3935 33.5751 16.7184 33.0389 16.9244C32.5062 17.1339 31.9132 17.2386 31.2598 17.2386ZM31.2172 12.7429C31.7214 12.7429 32.1475 12.6275 32.4956 12.3967C32.8436 12.1658 33.1081 11.8338 33.2892 11.4006C33.4703 10.9673 33.5609 10.4489 33.5609 9.84517C33.5609 9.25568 33.4721 8.73544 33.2946 8.28445C33.117 7.83345 32.8542 7.48011 32.5062 7.22443C32.1582 6.96875 31.7285 6.84091 31.2172 6.84091C30.6845 6.84091 30.2406 6.97585 29.8855 7.24574C29.5339 7.51562 29.2694 7.87784 29.0918 8.33239C28.9178 8.78693 28.8308 9.29119 28.8308 9.84517C28.8308 10.4134 28.9196 10.9158 29.0971 11.3526C29.2782 11.7859 29.5446 12.1268 29.8961 12.3754C30.2512 12.6204 30.6916 12.7429 31.2172 12.7429ZM41.3166 14V5.81818H42.5311V7.09659H42.6376C42.8081 6.6598 43.0833 6.32067 43.4632 6.07919C43.8432 5.83416 44.2995 5.71165 44.8322 5.71165C45.372 5.71165 45.8212 5.83416 46.1799 6.07919C46.5421 6.32067 46.8244 6.6598 47.0268 7.09659H47.112C47.3216 6.67401 47.6358 6.33842 48.0549 6.08984C48.4739 5.83771 48.9764 5.71165 49.5623 5.71165C50.2939 5.71165 50.8922 5.9407 51.3574 6.39879C51.8226 6.85334 52.0552 7.56179 52.0552 8.52415V14H50.7981V8.52415C50.7981 7.92045 50.633 7.48899 50.3027 7.22976C49.9725 6.97053 49.5836 6.84091 49.1362 6.84091C48.5609 6.84091 48.1152 7.01491 47.7992 7.36293C47.4831 7.70739 47.3251 8.14418 47.3251 8.6733V14H46.0467V8.39631C46.0467 7.93111 45.8958 7.55646 45.5939 7.27237C45.2921 6.98473 44.9032 6.84091 44.4274 6.84091C44.1007 6.84091 43.7953 6.92791 43.5112 7.10192C43.2306 7.27592 43.0034 7.5174 42.8294 7.82635C42.6589 8.13175 42.5737 8.48509 42.5737 8.88636V14H41.3166ZM56.7614 14.1918C56.2429 14.1918 55.7724 14.0941 55.3498 13.8988C54.9272 13.6999 54.5916 13.4141 54.343 13.0412C54.0945 12.6648 53.9702 12.2102 53.9702 11.6776C53.9702 11.2088 54.0625 10.8288 54.2472 10.5376C54.4318 10.2429 54.6786 10.0121 54.9876 9.84517C55.2965 9.67827 55.6374 9.55398 56.0103 9.4723C56.3867 9.38707 56.7649 9.3196 57.1449 9.26989C57.642 9.20597 58.0451 9.15803 58.354 9.12607C58.6665 9.09055 58.8938 9.03196 59.0359 8.95028C59.1815 8.86861 59.2543 8.72656 59.2543 8.52415V8.48153C59.2543 7.95597 59.1104 7.54759 58.8228 7.25639C58.5387 6.9652 58.1072 6.8196 57.5284 6.8196C56.9283 6.8196 56.4577 6.95099 56.1168 7.21378C55.7759 7.47656 55.5362 7.7571 55.3977 8.0554L54.2045 7.62926C54.4176 7.1321 54.7017 6.74503 55.0568 6.46804C55.4155 6.1875 55.8061 5.99219 56.2287 5.8821C56.6548 5.76847 57.0739 5.71165 57.4858 5.71165C57.7486 5.71165 58.0504 5.74361 58.3913 5.80753C58.7358 5.8679 59.0678 5.99396 59.3874 6.18572C59.7106 6.37749 59.9787 6.6669 60.1918 7.05398C60.4048 7.44105 60.5114 7.95952 60.5114 8.60938V14H59.2543V12.892H59.1903C59.1051 13.0696 58.9631 13.2596 58.7642 13.462C58.5653 13.6644 58.3008 13.8366 57.9705 13.9787C57.6403 14.1207 57.2372 14.1918 56.7614 14.1918ZM56.9531 13.0625C57.4503 13.0625 57.8693 12.9648 58.2102 12.7695C58.5547 12.5742 58.8139 12.3221 58.9879 12.0131C59.1655 11.7042 59.2543 11.3793 59.2543 11.0384V9.88778C59.201 9.9517 59.0838 10.0103 58.9027 10.0636C58.7251 10.1133 58.5192 10.1577 58.2848 10.1967C58.054 10.2322 57.8285 10.2642 57.6083 10.2926C57.3917 10.3175 57.2159 10.3388 57.081 10.3565C56.7543 10.3991 56.4489 10.4684 56.1648 10.5643C55.8842 10.6566 55.657 10.7969 55.483 10.9851C55.3125 11.1697 55.2273 11.4219 55.2273 11.7415C55.2273 12.1783 55.3888 12.5085 55.712 12.7322C56.0387 12.9524 56.4524 13.0625 56.9531 13.0625ZM57.571 4.90199C57.2088 4.90199 56.8803 4.82209 56.5856 4.66229C56.2944 4.50249 56.0618 4.28587 55.8878 4.01243C55.7173 3.73899 55.6321 3.43182 55.6321 3.09091C55.6321 2.75 55.7173 2.4375 55.8878 2.15341C56.0618 1.86932 56.2944 1.64204 56.5856 1.47159C56.8803 1.30114 57.2088 1.21591 57.571 1.21591C57.9332 1.21591 58.2582 1.30114 58.5458 1.47159C58.837 1.64204 59.0661 1.86932 59.233 2.15341C59.4034 2.4375 59.4886 2.75 59.4886 3.09091C59.4886 3.43182 59.4034 3.73899 59.233 4.01243C59.0661 4.28587 58.837 4.50249 58.5458 4.66229C58.2582 4.82209 57.9332 4.90199 57.571 4.90199ZM57.571 4.09233C57.8693 4.09233 58.1143 3.98935 58.3061 3.78338C58.4979 3.57741 58.5938 3.34659 58.5938 3.09091C58.5938 2.82457 58.4979 2.58487 58.3061 2.3718C58.1143 2.15518 57.8693 2.04688 57.571 2.04688C57.2727 2.04688 57.0277 2.15518 56.8359 2.3718C56.6442 2.58487 56.5483 2.82457 56.5483 3.09091C56.5483 3.34659 56.6442 3.57741 56.8359 3.78338C57.0277 3.98935 57.2727 4.09233 57.571 4.09233ZM64.0629 3.09091V14H62.8058V3.09091H64.0629ZM69.9237 5.81818V6.88352H65.6836V5.81818H69.9237ZM66.9194 3.85795H68.1765V11.6562C68.1765 12.0114 68.228 12.2777 68.331 12.4553C68.4375 12.6293 68.5724 12.7464 68.7358 12.8068C68.9027 12.8636 69.0785 12.892 69.2631 12.892C69.4016 12.892 69.5153 12.8849 69.604 12.8707C69.6928 12.853 69.7638 12.8388 69.8171 12.8281L70.0728 13.9574C69.9876 13.9893 69.8686 14.0213 69.7159 14.0533C69.5632 14.0888 69.3697 14.1065 69.1353 14.1065C68.7802 14.1065 68.4322 14.0302 68.0913 13.8775C67.7539 13.7248 67.4734 13.4922 67.2496 13.1797C67.0295 12.8672 66.9194 12.473 66.9194 11.9972V3.85795ZM71.8146 14V5.81818H73.0717V14H71.8146ZM72.4538 4.45455C72.2088 4.45455 71.9975 4.37109 71.82 4.20419C71.646 4.03729 71.5589 3.83665 71.5589 3.60227C71.5589 3.3679 71.646 3.16726 71.82 3.00035C71.9975 2.83345 72.2088 2.75 72.4538 2.75C72.6989 2.75 72.9084 2.83345 73.0824 3.00035C73.2599 3.16726 73.3487 3.3679 73.3487 3.60227C73.3487 3.83665 73.2599 4.03729 73.0824 4.20419C72.9084 4.37109 72.6989 4.45455 72.4538 4.45455ZM78.4637 14.1705C77.7819 14.1705 77.18 13.9982 76.6579 13.6538C76.1359 13.3058 75.7275 12.8157 75.4328 12.1836C75.1381 11.5479 74.9907 10.7969 74.9907 9.9304C74.9907 9.07102 75.1381 8.32528 75.4328 7.69318C75.7275 7.06108 76.1377 6.5728 76.6633 6.22834C77.1888 5.88388 77.7961 5.71165 78.485 5.71165C79.0177 5.71165 79.4385 5.80043 79.7474 5.97798C80.0599 6.15199 80.2979 6.35085 80.4612 6.57457C80.6281 6.79474 80.7577 6.97585 80.8501 7.1179H80.9566V3.09091H82.2137V14H80.9992V12.7429H80.8501C80.7577 12.892 80.6263 13.0803 80.4559 13.3075C80.2854 13.5312 80.0422 13.7319 79.7261 13.9094C79.4101 14.0835 78.9893 14.1705 78.4637 14.1705ZM78.6341 13.0412C79.1384 13.0412 79.5645 12.9098 79.9126 12.647C80.2606 12.3807 80.5251 12.0131 80.7062 11.5444C80.8873 11.0721 80.9779 10.527 80.9779 9.90909C80.9779 9.2983 80.8891 8.76385 80.7116 8.30575C80.534 7.84411 80.2712 7.48544 79.9232 7.22976C79.5752 6.97053 79.1455 6.84091 78.6341 6.84091C78.1015 6.84091 77.6576 6.97763 77.3025 7.25107C76.9509 7.52095 76.6863 7.88849 76.5088 8.35369C76.3348 8.81534 76.2478 9.33381 76.2478 9.90909C76.2478 10.4915 76.3366 11.0206 76.5141 11.4964C76.6952 11.9687 76.9616 12.3452 77.3131 12.6257C77.6682 12.9027 78.1086 13.0412 78.6341 13.0412ZM90.4861 7.65057L89.3568 7.97017C89.2858 7.78196 89.181 7.59908 89.0425 7.42152C88.9076 7.24041 88.7229 7.09126 88.4885 6.97408C88.2542 6.85689 87.9541 6.7983 87.5883 6.7983C87.0876 6.7983 86.6704 6.91371 86.3366 7.14453C86.0063 7.3718 85.8412 7.66122 85.8412 8.01278C85.8412 8.32528 85.9548 8.57209 86.1821 8.7532C86.4094 8.9343 86.7645 9.08523 87.2474 9.20597L88.4619 9.50426C89.1934 9.68182 89.7385 9.95348 90.0972 10.3192C90.4559 10.6815 90.6352 11.1484 90.6352 11.7202C90.6352 12.1889 90.5003 12.608 90.2304 12.9773C89.964 13.3466 89.5912 13.6378 89.1118 13.8509C88.6324 14.0639 88.0748 14.1705 87.4392 14.1705C86.6047 14.1705 85.914 13.9893 85.3671 13.6271C84.8202 13.2649 84.474 12.7358 84.3284 12.0398L85.5216 11.7415C85.6352 12.1818 85.8501 12.5121 86.1661 12.7322C86.4857 12.9524 86.903 13.0625 87.4179 13.0625C88.0038 13.0625 88.469 12.9382 88.8135 12.6896C89.1615 12.4375 89.3355 12.1357 89.3355 11.7841C89.3355 11.5 89.2361 11.2621 89.0372 11.0703C88.8383 10.875 88.5329 10.7294 88.121 10.6335L86.7574 10.3139C86.0081 10.1364 85.4577 9.86115 85.1061 9.48828C84.7581 9.11186 84.5841 8.64134 84.5841 8.0767C84.5841 7.61506 84.7137 7.20668 84.9729 6.85156C85.2357 6.49645 85.5926 6.21768 86.0436 6.01527C86.4981 5.81286 87.0131 5.71165 87.5883 5.71165C88.398 5.71165 89.0336 5.8892 89.4953 6.24432C89.9605 6.59943 90.2907 7.06818 90.4861 7.65057ZM93.6994 11.017L93.6781 9.46165H93.9338L97.5133 5.81818H99.0687L95.2548 9.67472H95.1483L93.6994 11.017ZM92.5275 14V3.09091H93.7846V14H92.5275ZM97.7264 14L94.5304 9.9517L95.4252 9.07812L99.3244 14H97.7264ZM103.094 14.1918C102.576 14.1918 102.105 14.0941 101.683 13.8988C101.26 13.6999 100.925 13.4141 100.676 13.0412C100.427 12.6648 100.303 12.2102 100.303 11.6776C100.303 11.2088 100.396 10.8288 100.58 10.5376C100.765 10.2429 101.012 10.0121 101.321 9.84517C101.63 9.67827 101.97 9.55398 102.343 9.4723C102.72 9.38707 103.098 9.3196 103.478 9.26989C103.975 9.20597 104.378 9.15803 104.687 9.12607C105 9.09055 105.227 9.03196 105.369 8.95028C105.514 8.86861 105.587 8.72656 105.587 8.52415V8.48153C105.587 7.95597 105.443 7.54759 105.156 7.25639C104.872 6.9652 104.44 6.8196 103.861 6.8196C103.261 6.8196 102.791 6.95099 102.45 7.21378C102.109 7.47656 101.869 7.7571 101.731 8.0554L100.538 7.62926C100.751 7.1321 101.035 6.74503 101.39 6.46804C101.748 6.1875 102.139 5.99219 102.562 5.8821C102.988 5.76847 103.407 5.71165 103.819 5.71165C104.082 5.71165 104.383 5.74361 104.724 5.80753C105.069 5.8679 105.401 5.99396 105.72 6.18572C106.044 6.37749 106.312 6.6669 106.525 7.05398C106.738 7.44105 106.844 7.95952 106.844 8.60938V14H105.587V12.892H105.523C105.438 13.0696 105.296 13.2596 105.097 13.462C104.898 13.6644 104.634 13.8366 104.304 13.9787C103.973 14.1207 103.57 14.1918 103.094 14.1918ZM103.286 13.0625C103.783 13.0625 104.202 12.9648 104.543 12.7695C104.888 12.5742 105.147 12.3221 105.321 12.0131C105.498 11.7042 105.587 11.3793 105.587 11.0384V9.88778C105.534 9.9517 105.417 10.0103 105.236 10.0636C105.058 10.1133 104.852 10.1577 104.618 10.1967C104.387 10.2322 104.161 10.2642 103.941 10.2926C103.725 10.3175 103.549 10.3388 103.414 10.3565C103.087 10.3991 102.782 10.4684 102.498 10.5643C102.217 10.6566 101.99 10.7969 101.816 10.9851C101.646 11.1697 101.56 11.4219 101.56 11.7415C101.56 12.1783 101.722 12.5085 102.045 12.7322C102.372 12.9524 102.785 13.0625 103.286 13.0625ZM114.934 7.65057L113.805 7.97017C113.734 7.78196 113.629 7.59908 113.491 7.42152C113.356 7.24041 113.171 7.09126 112.937 6.97408C112.702 6.85689 112.402 6.7983 112.037 6.7983C111.536 6.7983 111.119 6.91371 110.785 7.14453C110.455 7.3718 110.289 7.66122 110.289 8.01278C110.289 8.32528 110.403 8.57209 110.63 8.7532C110.858 8.9343 111.213 9.08523 111.696 9.20597L112.91 9.50426C113.642 9.68182 114.187 9.95348 114.545 10.3192C114.904 10.6815 115.083 11.1484 115.083 11.7202C115.083 12.1889 114.949 12.608 114.679 12.9773C114.412 13.3466 114.039 13.6378 113.56 13.8509C113.081 14.0639 112.523 14.1705 111.887 14.1705C111.053 14.1705 110.362 13.9893 109.815 13.6271C109.268 13.2649 108.922 12.7358 108.777 12.0398L109.97 11.7415C110.083 12.1818 110.298 12.5121 110.614 12.7322C110.934 12.9524 111.351 13.0625 111.866 13.0625C112.452 13.0625 112.917 12.9382 113.262 12.6896C113.61 12.4375 113.784 12.1357 113.784 11.7841C113.784 11.5 113.684 11.2621 113.485 11.0703C113.287 10.875 112.981 10.7294 112.569 10.6335L111.206 10.3139C110.456 10.1364 109.906 9.86115 109.554 9.48828C109.206 9.11186 109.032 8.64134 109.032 8.0767C109.032 7.61506 109.162 7.20668 109.421 6.85156C109.684 6.49645 110.041 6.21768 110.492 6.01527C110.946 5.81286 111.461 5.71165 112.037 5.71165C112.846 5.71165 113.482 5.8892 113.944 6.24432C114.409 6.59943 114.739 7.06818 114.934 7.65057ZM122.771 7.65057L121.642 7.97017C121.571 7.78196 121.466 7.59908 121.328 7.42152C121.193 7.24041 121.008 7.09126 120.774 6.97408C120.539 6.85689 120.239 6.7983 119.873 6.7983C119.373 6.7983 118.956 6.91371 118.622 7.14453C118.291 7.3718 118.126 7.66122 118.126 8.01278C118.126 8.32528 118.24 8.57209 118.467 8.7532C118.695 8.9343 119.05 9.08523 119.533 9.20597L120.747 9.50426C121.479 9.68182 122.024 9.95348 122.382 10.3192C122.741 10.6815 122.92 11.1484 122.92 11.7202C122.92 12.1889 122.785 12.608 122.516 12.9773C122.249 13.3466 121.876 13.6378 121.397 13.8509C120.918 14.0639 120.36 14.1705 119.724 14.1705C118.89 14.1705 118.199 13.9893 117.652 13.6271C117.105 13.2649 116.759 12.7358 116.614 12.0398L117.807 11.7415C117.92 12.1818 118.135 12.5121 118.451 12.7322C118.771 12.9524 119.188 13.0625 119.703 13.0625C120.289 13.0625 120.754 12.9382 121.099 12.6896C121.447 12.4375 121.621 12.1357 121.621 11.7841C121.621 11.5 121.521 11.2621 121.322 11.0703C121.123 10.875 120.818 10.7294 120.406 10.6335L119.043 10.3139C118.293 10.1364 117.743 9.86115 117.391 9.48828C117.043 9.11186 116.869 8.64134 116.869 8.0767C116.869 7.61506 116.999 7.20668 117.258 6.85156C117.521 6.49645 117.878 6.21768 118.329 6.01527C118.783 5.81286 119.298 5.71165 119.873 5.71165C120.683 5.71165 121.319 5.8892 121.78 6.24432C122.246 6.59943 122.576 7.06818 122.771 7.65057ZM128.243 14.1705C127.455 14.1705 126.775 13.9964 126.203 13.6484C125.635 13.2969 125.196 12.8068 124.887 12.1783C124.582 11.5462 124.429 10.8111 124.429 9.97301C124.429 9.13494 124.582 8.39631 124.887 7.7571C125.196 7.11435 125.626 6.61364 126.176 6.25497C126.73 5.89276 127.377 5.71165 128.115 5.71165C128.541 5.71165 128.962 5.78267 129.378 5.92472C129.793 6.06676 130.171 6.29759 130.512 6.61719C130.853 6.93324 131.125 7.35227 131.327 7.87429C131.53 8.39631 131.631 9.03906 131.631 9.80256V10.3352H125.324V9.24858H130.352C130.352 8.78693 130.26 8.375 130.075 8.01278C129.894 7.65057 129.635 7.3647 129.298 7.15518C128.964 6.94567 128.57 6.84091 128.115 6.84091C127.615 6.84091 127.181 6.9652 126.816 7.21378C126.453 7.45881 126.175 7.77841 125.979 8.17258C125.784 8.56676 125.686 8.98935 125.686 9.44034V10.1648C125.686 10.7827 125.793 11.3065 126.006 11.7362C126.222 12.1623 126.523 12.4872 126.906 12.7109C127.29 12.9311 127.735 13.0412 128.243 13.0412C128.573 13.0412 128.872 12.995 129.138 12.9027C129.408 12.8068 129.64 12.6648 129.836 12.4766C130.031 12.2848 130.182 12.0469 130.289 11.7628L131.503 12.1037C131.375 12.5156 131.16 12.8778 130.858 13.1903C130.557 13.4993 130.184 13.7408 129.74 13.9148C129.296 14.0852 128.797 14.1705 128.243 14.1705Z" fill="#4E4F3D"/>
<path d="M390.321 14V3.09091H391.642V12.8281H396.713V14H390.321ZM402.018 14.1705C401.23 14.1705 400.55 13.9964 399.978 13.6484C399.41 13.2969 398.972 12.8068 398.663 12.1783C398.357 11.5462 398.205 10.8111 398.205 9.97301C398.205 9.13494 398.357 8.39631 398.663 7.7571C398.972 7.11435 399.401 6.61364 399.952 6.25497C400.506 5.89276 401.152 5.71165 401.891 5.71165C402.317 5.71165 402.738 5.78267 403.153 5.92472C403.569 6.06676 403.947 6.29759 404.288 6.61719C404.629 6.93324 404.9 7.35227 405.103 7.87429C405.305 8.39631 405.406 9.03906 405.406 9.80256V10.3352H399.099V9.24858H404.128C404.128 8.78693 404.036 8.375 403.851 8.01278C403.67 7.65057 403.411 7.3647 403.073 7.15518C402.739 6.94567 402.345 6.84091 401.891 6.84091C401.39 6.84091 400.957 6.9652 400.591 7.21378C400.229 7.45881 399.95 7.77841 399.755 8.17258C399.559 8.56676 399.462 8.98935 399.462 9.44034V10.1648C399.462 10.7827 399.568 11.3065 399.781 11.7362C399.998 12.1623 400.298 12.4872 400.681 12.7109C401.065 12.9311 401.511 13.0412 402.018 13.0412C402.349 13.0412 402.647 12.995 402.913 12.9027C403.183 12.8068 403.416 12.6648 403.611 12.4766C403.806 12.2848 403.957 12.0469 404.064 11.7628L405.278 12.1037C405.151 12.5156 404.936 12.8778 404.634 13.1903C404.332 13.4993 403.959 13.7408 403.515 13.9148C403.071 14.0852 402.572 14.1705 402.018 14.1705ZM413.76 5.81818L410.734 14H409.456L406.43 5.81818H407.794L410.052 12.3381H410.138L412.396 5.81818H413.76ZM418.557 14.1705C417.768 14.1705 417.088 13.9964 416.516 13.6484C415.948 13.2969 415.51 12.8068 415.201 12.1783C414.895 11.5462 414.743 10.8111 414.743 9.97301C414.743 9.13494 414.895 8.39631 415.201 7.7571C415.51 7.11435 415.939 6.61364 416.49 6.25497C417.044 5.89276 417.69 5.71165 418.429 5.71165C418.855 5.71165 419.276 5.78267 419.691 5.92472C420.107 6.06676 420.485 6.29759 420.826 6.61719C421.167 6.93324 421.438 7.35227 421.641 7.87429C421.843 8.39631 421.944 9.03906 421.944 9.80256V10.3352H415.638V9.24858H420.666C420.666 8.78693 420.574 8.375 420.389 8.01278C420.208 7.65057 419.949 7.3647 419.611 7.15518C419.277 6.94567 418.883 6.84091 418.429 6.84091C417.928 6.84091 417.495 6.9652 417.129 7.21378C416.767 7.45881 416.488 7.77841 416.293 8.17258C416.097 8.56676 416 8.98935 416 9.44034V10.1648C416 10.7827 416.106 11.3065 416.319 11.7362C416.536 12.1623 416.836 12.4872 417.22 12.7109C417.603 12.9311 418.049 13.0412 418.557 13.0412C418.887 13.0412 419.185 12.995 419.451 12.9027C419.721 12.8068 419.954 12.6648 420.149 12.4766C420.345 12.2848 420.495 12.0469 420.602 11.7628L421.816 12.1037C421.689 12.5156 421.474 12.8778 421.172 13.1903C420.87 13.4993 420.497 13.7408 420.053 13.9148C419.609 14.0852 419.111 14.1705 418.557 14.1705ZM423.857 14V5.81818H425.071V7.05398H425.156C425.305 6.64915 425.575 6.32067 425.966 6.06854C426.357 5.81641 426.797 5.69034 427.287 5.69034C427.379 5.69034 427.495 5.69212 427.633 5.69567C427.772 5.69922 427.877 5.70455 427.948 5.71165V6.99006C427.905 6.9794 427.807 6.96342 427.655 6.94212C427.505 6.91726 427.347 6.90483 427.18 6.90483C426.783 6.90483 426.428 6.98828 426.115 7.15518C425.806 7.31854 425.561 7.54581 425.38 7.837C425.203 8.12464 425.114 8.45312 425.114 8.82244V14H423.857ZM429.438 14V5.81818H430.695V14H429.438ZM430.077 4.45455C429.832 4.45455 429.621 4.37109 429.443 4.20419C429.269 4.03729 429.182 3.83665 429.182 3.60227C429.182 3.3679 429.269 3.16726 429.443 3.00035C429.621 2.83345 429.832 2.75 430.077 2.75C430.322 2.75 430.531 2.83345 430.705 3.00035C430.883 3.16726 430.972 3.3679 430.972 3.60227C430.972 3.83665 430.883 4.03729 430.705 4.20419C430.531 4.37109 430.322 4.45455 430.077 4.45455ZM434.254 9.07812V14H432.997V5.81818H434.212V7.09659H434.318C434.51 6.68111 434.801 6.3473 435.192 6.09517C435.582 5.83949 436.087 5.71165 436.705 5.71165C437.259 5.71165 437.743 5.82528 438.159 6.05256C438.574 6.27628 438.897 6.61719 439.128 7.07528C439.359 7.52983 439.475 8.10511 439.475 8.80114V14H438.217V8.88636C438.217 8.24361 438.051 7.7429 437.717 7.38423C437.383 7.02202 436.925 6.84091 436.342 6.84091C435.941 6.84091 435.582 6.92791 435.266 7.10192C434.954 7.27592 434.707 7.52983 434.526 7.86364C434.345 8.19744 434.254 8.60227 434.254 9.07812ZM445.074 17.2386C444.467 17.2386 443.945 17.1605 443.508 17.0043C443.071 16.8516 442.707 16.6491 442.416 16.397C442.129 16.1484 441.9 15.8821 441.729 15.598L442.73 14.8949C442.844 15.044 442.988 15.2145 443.162 15.4062C443.336 15.6016 443.574 15.7702 443.876 15.9123C444.181 16.0579 444.581 16.1307 445.074 16.1307C445.735 16.1307 446.28 15.9709 446.71 15.6513C447.139 15.3317 447.354 14.831 447.354 14.1491V12.4872H447.248C447.155 12.6364 447.024 12.821 446.853 13.0412C446.686 13.2578 446.445 13.4513 446.129 13.6218C445.816 13.7887 445.394 13.8722 444.861 13.8722C444.201 13.8722 443.608 13.7159 443.082 13.4034C442.56 13.0909 442.146 12.6364 441.841 12.0398C441.539 11.4432 441.388 10.7187 441.388 9.86648C441.388 9.02841 441.536 8.29865 441.83 7.6772C442.125 7.0522 442.535 6.56925 443.061 6.22834C443.586 5.88388 444.194 5.71165 444.882 5.71165C445.415 5.71165 445.838 5.80043 446.15 5.97798C446.466 6.15199 446.708 6.35085 446.875 6.57457C447.045 6.79474 447.176 6.97585 447.269 7.1179H447.397V5.81818H448.611V14.2344C448.611 14.9375 448.451 15.5092 448.132 15.9496C447.816 16.3935 447.39 16.7184 446.853 16.9244C446.321 17.1339 445.728 17.2386 445.074 17.2386ZM445.032 12.7429C445.536 12.7429 445.962 12.6275 446.31 12.3967C446.658 12.1658 446.923 11.8338 447.104 11.4006C447.285 10.9673 447.375 10.4489 447.375 9.84517C447.375 9.25568 447.287 8.73544 447.109 8.28445C446.931 7.83345 446.669 7.48011 446.321 7.22443C445.973 6.96875 445.543 6.84091 445.032 6.84091C444.499 6.84091 444.055 6.97585 443.7 7.24574C443.348 7.51562 443.084 7.87784 442.906 8.33239C442.732 8.78693 442.645 9.29119 442.645 9.84517C442.645 10.4134 442.734 10.9158 442.912 11.3526C443.093 11.7859 443.359 12.1268 443.711 12.3754C444.066 12.6204 444.506 12.7429 445.032 12.7429Z" fill="#4E4F3D"/>
</svg>
