<svg width="475" height="302" viewBox="0 0 475 302" fill="none" xmlns="http://www.w3.org/2000/svg">
<rect width="475" height="302" rx="51" fill="#E2DCBE"/>
<path d="M299.881 178V170.727H300.761V174.335H300.847L304.114 170.727H305.264L302.21 174.009L305.264 178H304.199L301.67 174.619L300.761 175.642V178H299.881ZM308.106 178.114C307.614 178.114 307.182 177.996 306.81 177.762C306.441 177.528 306.152 177.2 305.943 176.778C305.737 176.357 305.634 175.865 305.634 175.301C305.634 174.733 305.737 174.237 305.943 173.813C306.152 173.389 306.441 173.06 306.81 172.826C307.182 172.592 307.614 172.474 308.106 172.474C308.598 172.474 309.029 172.592 309.399 172.826C309.77 173.06 310.059 173.389 310.265 173.813C310.473 174.237 310.578 174.733 310.578 175.301C310.578 175.865 310.473 176.357 310.265 176.778C310.059 177.2 309.77 177.528 309.399 177.762C309.029 177.996 308.598 178.114 308.106 178.114ZM308.106 177.361C308.48 177.361 308.788 177.265 309.029 177.073C309.271 176.881 309.45 176.629 309.566 176.317C309.682 176.004 309.74 175.666 309.74 175.301C309.74 174.937 309.682 174.597 309.566 174.282C309.45 173.967 309.271 173.713 309.029 173.518C308.788 173.324 308.48 173.227 308.106 173.227C307.732 173.227 307.424 173.324 307.183 173.518C306.941 173.713 306.762 173.967 306.646 174.282C306.53 174.597 306.472 174.937 306.472 175.301C306.472 175.666 306.53 176.004 306.646 176.317C306.762 176.629 306.941 176.881 307.183 177.073C307.424 177.265 307.732 177.361 308.106 177.361ZM312.695 174.719V178H311.857V172.545H312.667V173.398H312.738C312.865 173.121 313.06 172.898 313.32 172.73C313.58 172.56 313.917 172.474 314.328 172.474C314.698 172.474 315.021 172.55 315.298 172.702C315.575 172.851 315.79 173.078 315.944 173.384C316.098 173.687 316.175 174.07 316.175 174.534V178H315.337V174.591C315.337 174.162 315.226 173.829 315.003 173.589C314.781 173.348 314.475 173.227 314.087 173.227C313.819 173.227 313.58 173.285 313.37 173.401C313.161 173.517 312.997 173.687 312.876 173.909C312.755 174.132 312.695 174.402 312.695 174.719ZM320.079 172.545V173.256H317.252V172.545H320.079ZM318.076 171.239H318.914V176.438C318.914 176.674 318.948 176.852 319.017 176.97C319.088 177.086 319.178 177.164 319.287 177.205C319.398 177.242 319.515 177.261 319.638 177.261C319.731 177.261 319.806 177.257 319.866 177.247C319.925 177.235 319.972 177.226 320.008 177.219L320.178 177.972C320.121 177.993 320.042 178.014 319.94 178.036C319.838 178.059 319.709 178.071 319.553 178.071C319.316 178.071 319.084 178.02 318.857 177.918C318.632 177.817 318.445 177.661 318.296 177.453C318.149 177.245 318.076 176.982 318.076 176.665V171.239ZM321.339 178V172.545H322.149V173.369H322.206C322.305 173.099 322.485 172.88 322.746 172.712C323.006 172.544 323.3 172.46 323.626 172.46C323.688 172.46 323.765 172.461 323.857 172.464C323.949 172.466 324.019 172.47 324.067 172.474V173.327C324.038 173.32 323.973 173.309 323.871 173.295C323.772 173.278 323.666 173.27 323.555 173.27C323.29 173.27 323.053 173.326 322.845 173.437C322.639 173.546 322.476 173.697 322.355 173.891C322.237 174.083 322.177 174.302 322.177 174.548V178H321.339ZM325.06 178V172.545H325.898V178H325.06ZM325.486 171.636C325.323 171.636 325.182 171.581 325.064 171.469C324.948 171.358 324.89 171.224 324.89 171.068C324.89 170.912 324.948 170.778 325.064 170.667C325.182 170.556 325.323 170.5 325.486 170.5C325.65 170.5 325.789 170.556 325.905 170.667C326.024 170.778 326.083 170.912 326.083 171.068C326.083 171.224 326.024 171.358 325.905 171.469C325.789 171.581 325.65 171.636 325.486 171.636ZM328.271 170.727V178H327.433V170.727H328.271ZM332.022 178.114C331.511 178.114 331.07 177.993 330.701 177.751C330.332 177.51 330.048 177.177 329.849 176.754C329.65 176.33 329.55 175.846 329.55 175.301C329.55 174.747 329.652 174.258 329.856 173.835C330.062 173.408 330.348 173.076 330.715 172.837C331.085 172.595 331.515 172.474 332.008 172.474C332.391 172.474 332.737 172.545 333.045 172.688C333.353 172.83 333.605 173.028 333.801 173.284C333.998 173.54 334.12 173.838 334.167 174.179H333.329C333.265 173.93 333.123 173.71 332.903 173.518C332.685 173.324 332.391 173.227 332.022 173.227C331.695 173.227 331.409 173.312 331.163 173.483C330.919 173.651 330.728 173.889 330.591 174.197C330.456 174.502 330.388 174.861 330.388 175.273C330.388 175.694 330.455 176.061 330.587 176.374C330.722 176.686 330.912 176.929 331.156 177.102C331.402 177.274 331.691 177.361 332.022 177.361C332.24 177.361 332.438 177.323 332.615 177.247C332.793 177.171 332.943 177.062 333.066 176.92C333.189 176.778 333.277 176.608 333.329 176.409H334.167C334.12 176.731 334.002 177.021 333.815 177.279C333.631 177.535 333.386 177.738 333.08 177.89C332.777 178.039 332.424 178.114 332.022 178.114ZM335.392 178V172.545H336.23V178H335.392ZM335.818 171.636C335.655 171.636 335.514 171.581 335.396 171.469C335.28 171.358 335.222 171.224 335.222 171.068C335.222 170.912 335.28 170.778 335.396 170.667C335.514 170.556 335.655 170.5 335.818 170.5C335.982 170.5 336.121 170.556 336.237 170.667C336.356 170.778 336.415 170.912 336.415 171.068C336.415 171.224 336.356 171.358 336.237 171.469C336.121 171.581 335.982 171.636 335.818 171.636ZM340.194 172.545V173.256H337.254V172.545H340.194ZM338.134 178V171.793C338.134 171.48 338.208 171.22 338.355 171.011C338.501 170.803 338.692 170.647 338.926 170.543C339.161 170.438 339.408 170.386 339.669 170.386C339.874 170.386 340.043 170.403 340.173 170.436C340.303 170.469 340.4 170.5 340.464 170.528L340.222 171.253C340.18 171.239 340.121 171.221 340.045 171.2C339.972 171.178 339.874 171.168 339.754 171.168C339.477 171.168 339.277 171.237 339.154 171.377C339.033 171.517 338.972 171.722 338.972 171.991V178H338.134ZM341.369 178V172.545H342.178V173.369H342.235C342.335 173.099 342.514 172.88 342.775 172.712C343.035 172.544 343.329 172.46 343.656 172.46C343.717 172.46 343.794 172.461 343.886 172.464C343.979 172.466 344.049 172.47 344.096 172.474V173.327C344.067 173.32 344.002 173.309 343.901 173.295C343.801 173.278 343.696 173.27 343.585 173.27C343.319 173.27 343.083 173.326 342.874 173.437C342.668 173.546 342.505 173.697 342.384 173.891C342.266 174.083 342.207 174.302 342.207 174.548V178H341.369ZM347.21 178.114C346.685 178.114 346.231 177.998 345.85 177.766C345.471 177.531 345.179 177.205 344.973 176.786C344.769 176.364 344.668 175.874 344.668 175.315C344.668 174.757 344.769 174.264 344.973 173.838C345.179 173.41 345.465 173.076 345.832 172.837C346.202 172.595 346.633 172.474 347.125 172.474C347.409 172.474 347.69 172.522 347.967 172.616C348.244 172.711 348.496 172.865 348.723 173.078C348.95 173.289 349.131 173.568 349.266 173.916C349.401 174.264 349.469 174.693 349.469 175.202V175.557H345.264V174.832H348.616C348.616 174.525 348.555 174.25 348.432 174.009C348.311 173.767 348.138 173.576 347.913 173.437C347.691 173.297 347.428 173.227 347.125 173.227C346.791 173.227 346.502 173.31 346.259 173.476C346.017 173.639 345.831 173.852 345.701 174.115C345.571 174.378 345.506 174.66 345.506 174.96V175.443C345.506 175.855 345.577 176.204 345.719 176.491C345.863 176.775 346.063 176.991 346.319 177.141C346.575 177.287 346.872 177.361 347.21 177.361C347.43 177.361 347.629 177.33 347.807 177.268C347.987 177.205 348.142 177.11 348.272 176.984C348.402 176.857 348.503 176.698 348.574 176.509L349.384 176.736C349.298 177.01 349.155 177.252 348.954 177.46C348.753 177.666 348.504 177.827 348.208 177.943C347.912 178.057 347.58 178.114 347.21 178.114Z" fill="#4E4F3D"/>
<rect x="100.5" y="127.5" width="283" height="30" fill="white" stroke="#979797"/>
<rect x="100.5" y="180.5" width="64" height="30" fill="white" stroke="#979797"/>
<rect x="174.5" y="180.5" width="67" height="30" fill="white" stroke="#979797"/>
<rect x="299.5" y="180.5" width="84" height="30" fill="white" stroke="#979797"/>
<path d="M102.881 120V112.727H103.761V116.335H103.847L107.114 112.727H108.264L105.21 116.009L108.264 120H107.199L104.67 116.619L103.761 117.642V120H102.881ZM111.106 120.114C110.614 120.114 110.182 119.996 109.81 119.762C109.441 119.528 109.152 119.2 108.943 118.778C108.737 118.357 108.634 117.865 108.634 117.301C108.634 116.733 108.737 116.237 108.943 115.813C109.152 115.389 109.441 115.06 109.81 114.826C110.182 114.592 110.614 114.474 111.106 114.474C111.598 114.474 112.029 114.592 112.399 114.826C112.77 115.06 113.059 115.389 113.265 115.813C113.473 116.237 113.578 116.733 113.578 117.301C113.578 117.865 113.473 118.357 113.265 118.778C113.059 119.2 112.77 119.528 112.399 119.762C112.029 119.996 111.598 120.114 111.106 120.114ZM111.106 119.361C111.48 119.361 111.788 119.265 112.029 119.073C112.271 118.881 112.45 118.629 112.566 118.317C112.682 118.004 112.74 117.666 112.74 117.301C112.74 116.937 112.682 116.597 112.566 116.282C112.45 115.967 112.271 115.713 112.029 115.518C111.788 115.324 111.48 115.227 111.106 115.227C110.732 115.227 110.424 115.324 110.183 115.518C109.941 115.713 109.762 115.967 109.646 116.282C109.53 116.597 109.472 116.937 109.472 117.301C109.472 117.666 109.53 118.004 109.646 118.317C109.762 118.629 109.941 118.881 110.183 119.073C110.424 119.265 110.732 119.361 111.106 119.361ZM114.857 120V114.545H115.667V115.369H115.723C115.823 115.099 116.003 114.88 116.263 114.712C116.524 114.544 116.817 114.46 117.144 114.46C117.205 114.46 117.282 114.461 117.375 114.464C117.467 114.466 117.537 114.47 117.584 114.474V115.327C117.556 115.32 117.491 115.309 117.389 115.295C117.289 115.278 117.184 115.27 117.073 115.27C116.808 115.27 116.571 115.326 116.363 115.437C116.157 115.546 115.993 115.697 115.873 115.891C115.754 116.083 115.695 116.302 115.695 116.548V120H114.857ZM121.292 114.545V115.256H118.465V114.545H121.292ZM119.289 113.239H120.127V118.438C120.127 118.674 120.161 118.852 120.23 118.97C120.301 119.086 120.391 119.164 120.5 119.205C120.611 119.242 120.728 119.261 120.851 119.261C120.944 119.261 121.019 119.257 121.078 119.247C121.138 119.235 121.185 119.226 121.221 119.219L121.391 119.972C121.334 119.993 121.255 120.014 121.153 120.036C121.051 120.059 120.922 120.071 120.766 120.071C120.529 120.071 120.297 120.02 120.07 119.918C119.845 119.817 119.658 119.661 119.509 119.453C119.362 119.245 119.289 118.982 119.289 118.665V113.239ZM123.39 116.719V120H122.552V114.545H123.362V115.398H123.433C123.561 115.121 123.755 114.898 124.015 114.73C124.276 114.56 124.612 114.474 125.024 114.474C125.393 114.474 125.716 114.55 125.993 114.702C126.27 114.851 126.486 115.078 126.64 115.384C126.793 115.687 126.87 116.07 126.87 116.534V120H126.032V116.591C126.032 116.162 125.921 115.829 125.699 115.589C125.476 115.348 125.171 115.227 124.782 115.227C124.515 115.227 124.276 115.285 124.065 115.401C123.857 115.517 123.692 115.687 123.571 115.909C123.451 116.132 123.39 116.402 123.39 116.719ZM131.839 117.77V114.545H132.677V120H131.839V119.077H131.782C131.655 119.354 131.456 119.589 131.186 119.783C130.916 119.975 130.575 120.071 130.163 120.071C129.822 120.071 129.519 119.996 129.254 119.847C128.989 119.696 128.781 119.469 128.629 119.165C128.478 118.86 128.402 118.475 128.402 118.011V114.545H129.24V117.955C129.24 118.352 129.351 118.67 129.574 118.906C129.799 119.143 130.085 119.261 130.433 119.261C130.641 119.261 130.853 119.208 131.069 119.102C131.287 118.995 131.469 118.832 131.616 118.612C131.765 118.391 131.839 118.111 131.839 117.77ZM134.212 120V114.545H135.022V115.398H135.093C135.207 115.107 135.39 114.88 135.643 114.719C135.897 114.556 136.201 114.474 136.556 114.474C136.916 114.474 137.215 114.556 137.455 114.719C137.696 114.88 137.884 115.107 138.019 115.398H138.076C138.216 115.116 138.425 114.892 138.705 114.727C138.984 114.558 139.319 114.474 139.71 114.474C140.197 114.474 140.596 114.627 140.906 114.933C141.216 115.236 141.371 115.708 141.371 116.349V120H140.533V116.349C140.533 115.947 140.423 115.659 140.203 115.487C139.983 115.314 139.724 115.227 139.425 115.227C139.042 115.227 138.745 115.343 138.534 115.575C138.323 115.805 138.218 116.096 138.218 116.449V120H137.366V116.264C137.366 115.954 137.265 115.704 137.064 115.515C136.863 115.323 136.603 115.227 136.286 115.227C136.068 115.227 135.865 115.285 135.675 115.401C135.488 115.517 135.337 115.678 135.221 115.884C135.107 116.088 135.05 116.323 135.05 116.591V120H134.212ZM142.904 120V114.545H143.713V115.398H143.784C143.898 115.107 144.082 114.88 144.335 114.719C144.588 114.556 144.892 114.474 145.248 114.474C145.607 114.474 145.907 114.556 146.146 114.719C146.387 114.88 146.576 115.107 146.711 115.398H146.767C146.907 115.116 147.117 114.892 147.396 114.727C147.675 114.558 148.01 114.474 148.401 114.474C148.889 114.474 149.288 114.627 149.598 114.933C149.908 115.236 150.063 115.708 150.063 116.349V120H149.225V116.349C149.225 115.947 149.115 115.659 148.895 115.487C148.674 115.314 148.415 115.227 148.117 115.227C147.733 115.227 147.436 115.343 147.225 115.575C147.015 115.805 146.909 116.096 146.909 116.449V120H146.057V116.264C146.057 115.954 145.957 115.704 145.755 115.515C145.554 115.323 145.295 115.227 144.978 115.227C144.76 115.227 144.556 115.285 144.367 115.401C144.18 115.517 144.028 115.678 143.912 115.884C143.799 116.088 143.742 116.323 143.742 116.591V120H142.904ZM153.882 120.114C153.357 120.114 152.903 119.998 152.522 119.766C152.143 119.531 151.851 119.205 151.645 118.786C151.441 118.364 151.339 117.874 151.339 117.315C151.339 116.757 151.441 116.264 151.645 115.838C151.851 115.41 152.137 115.076 152.504 114.837C152.874 114.595 153.304 114.474 153.797 114.474C154.081 114.474 154.362 114.522 154.638 114.616C154.915 114.711 155.168 114.865 155.395 115.078C155.622 115.289 155.803 115.568 155.938 115.916C156.073 116.264 156.141 116.693 156.141 117.202V117.557H151.936V116.832H155.288C155.288 116.525 155.227 116.25 155.104 116.009C154.983 115.767 154.81 115.576 154.585 115.437C154.363 115.297 154.1 115.227 153.797 115.227C153.463 115.227 153.174 115.31 152.93 115.476C152.689 115.639 152.503 115.852 152.373 116.115C152.243 116.378 152.178 116.66 152.178 116.96V117.443C152.178 117.855 152.249 118.204 152.391 118.491C152.535 118.775 152.735 118.991 152.991 119.141C153.246 119.287 153.544 119.361 153.882 119.361C154.102 119.361 154.301 119.33 154.479 119.268C154.659 119.205 154.814 119.11 154.944 118.984C155.074 118.857 155.175 118.698 155.246 118.509L156.055 118.736C155.97 119.01 155.827 119.252 155.626 119.46C155.424 119.666 155.176 119.827 154.88 119.943C154.584 120.057 154.251 120.114 153.882 120.114ZM157.415 120V114.545H158.225V115.369H158.282C158.381 115.099 158.561 114.88 158.822 114.712C159.082 114.544 159.376 114.46 159.702 114.46C159.764 114.46 159.841 114.461 159.933 114.464C160.026 114.466 160.095 114.47 160.143 114.474V115.327C160.114 115.32 160.049 115.309 159.947 115.295C159.848 115.278 159.743 115.27 159.631 115.27C159.366 115.27 159.129 115.326 158.921 115.437C158.715 115.546 158.552 115.697 158.431 115.891C158.313 116.083 158.254 116.302 158.254 116.548V120H157.415Z" fill="#4E4F3D"/>
<path d="M107.653 170.727H108.534V175.543C108.534 176.04 108.417 176.484 108.183 176.874C107.951 177.263 107.623 177.569 107.199 177.794C106.775 178.017 106.278 178.128 105.707 178.128C105.137 178.128 104.64 178.017 104.216 177.794C103.792 177.569 103.463 177.263 103.229 176.874C102.997 176.484 102.881 176.04 102.881 175.543V170.727H103.761V175.472C103.761 175.827 103.839 176.143 103.996 176.42C104.152 176.694 104.375 176.911 104.663 177.07C104.955 177.226 105.303 177.304 105.707 177.304C106.112 177.304 106.46 177.226 106.751 177.07C107.043 176.911 107.265 176.694 107.419 176.42C107.575 176.143 107.653 175.827 107.653 175.472V170.727ZM112.239 178.114C111.784 178.114 111.383 177.999 111.035 177.769C110.687 177.537 110.415 177.21 110.218 176.789C110.022 176.365 109.923 175.865 109.923 175.287C109.923 174.714 110.022 174.217 110.218 173.795C110.415 173.374 110.688 173.049 111.039 172.819C111.389 172.589 111.794 172.474 112.253 172.474C112.608 172.474 112.889 172.534 113.095 172.652C113.303 172.768 113.462 172.901 113.57 173.05C113.682 173.196 113.768 173.317 113.83 173.412H113.901V170.727H114.739V178H113.929V177.162H113.83C113.768 177.261 113.681 177.387 113.567 177.538C113.453 177.687 113.291 177.821 113.08 177.94C112.87 178.056 112.589 178.114 112.239 178.114ZM112.352 177.361C112.689 177.361 112.973 177.273 113.205 177.098C113.437 176.92 113.613 176.675 113.734 176.363C113.855 176.048 113.915 175.685 113.915 175.273C113.915 174.866 113.856 174.509 113.737 174.204C113.619 173.896 113.444 173.657 113.212 173.487C112.98 173.314 112.693 173.227 112.352 173.227C111.997 173.227 111.701 173.318 111.465 173.501C111.23 173.681 111.054 173.926 110.936 174.236C110.82 174.544 110.762 174.889 110.762 175.273C110.762 175.661 110.821 176.014 110.939 176.331C111.06 176.646 111.237 176.897 111.472 177.084C111.709 177.268 112.002 177.361 112.352 177.361ZM117.228 170.727V178H116.39V170.727H117.228ZM119.346 178.298L118.806 177.929L122.613 172.29L123.152 172.659L119.346 178.298ZM120.979 178.114C120.487 178.114 120.055 177.996 119.683 177.762C119.314 177.528 119.025 177.2 118.816 176.778C118.61 176.357 118.507 175.865 118.507 175.301C118.507 174.733 118.61 174.237 118.816 173.813C119.025 173.389 119.314 173.06 119.683 172.826C120.055 172.592 120.487 172.474 120.979 172.474C121.471 172.474 121.902 172.592 122.272 172.826C122.643 173.06 122.932 173.389 123.138 173.813C123.346 174.237 123.451 174.733 123.451 175.301C123.451 175.865 123.346 176.357 123.138 176.778C122.932 177.2 122.643 177.528 122.272 177.762C121.902 177.996 121.471 178.114 120.979 178.114ZM120.979 177.361C121.353 177.361 121.661 177.265 121.902 177.073C122.144 176.881 122.323 176.629 122.439 176.317C122.555 176.004 122.613 175.666 122.613 175.301C122.613 174.937 122.555 174.597 122.439 174.282C122.323 173.967 122.144 173.713 121.902 173.518C121.661 173.324 121.353 173.227 120.979 173.227C120.605 173.227 120.297 173.324 120.056 173.518C119.814 173.713 119.636 173.967 119.52 174.282C119.404 174.597 119.346 174.937 119.346 175.301C119.346 175.666 119.404 176.004 119.52 176.317C119.636 176.629 119.814 176.881 120.056 177.073C120.297 177.265 120.605 177.361 120.979 177.361ZM124.844 178V170.727H125.682V173.412H125.753C125.814 173.317 125.899 173.196 126.008 173.05C126.12 172.901 126.278 172.768 126.484 172.652C126.693 172.534 126.974 172.474 127.329 172.474C127.789 172.474 128.193 172.589 128.544 172.819C128.894 173.049 129.168 173.374 129.364 173.795C129.561 174.217 129.659 174.714 129.659 175.287C129.659 175.865 129.561 176.365 129.364 176.789C129.168 177.21 128.895 177.537 128.547 177.769C128.199 177.999 127.798 178.114 127.344 178.114C126.993 178.114 126.713 178.056 126.502 177.94C126.291 177.821 126.129 177.687 126.015 177.538C125.902 177.387 125.814 177.261 125.753 177.162H125.653V178H124.844ZM125.667 175.273C125.667 175.685 125.728 176.048 125.849 176.363C125.969 176.675 126.146 176.92 126.378 177.098C126.61 177.273 126.894 177.361 127.23 177.361C127.58 177.361 127.873 177.268 128.107 177.084C128.344 176.897 128.521 176.646 128.64 176.331C128.76 176.014 128.821 175.661 128.821 175.273C128.821 174.889 128.762 174.544 128.643 174.236C128.527 173.926 128.351 173.681 128.114 173.501C127.88 173.318 127.585 173.227 127.23 173.227C126.889 173.227 126.603 173.314 126.371 173.487C126.139 173.657 125.963 173.896 125.845 174.204C125.727 174.509 125.667 174.866 125.667 175.273ZM134.805 173.767L134.052 173.98C134.004 173.855 133.934 173.733 133.842 173.614C133.752 173.494 133.629 173.394 133.473 173.316C133.317 173.238 133.117 173.199 132.873 173.199C132.539 173.199 132.261 173.276 132.038 173.43C131.818 173.581 131.708 173.774 131.708 174.009C131.708 174.217 131.784 174.381 131.935 174.502C132.087 174.623 132.323 174.723 132.645 174.804L133.455 175.003C133.943 175.121 134.306 175.302 134.545 175.546C134.784 175.788 134.904 176.099 134.904 176.48C134.904 176.793 134.814 177.072 134.634 177.318C134.456 177.564 134.208 177.759 133.888 177.901C133.569 178.043 133.197 178.114 132.773 178.114C132.217 178.114 131.756 177.993 131.392 177.751C131.027 177.51 130.796 177.157 130.699 176.693L131.495 176.494C131.571 176.788 131.714 177.008 131.925 177.155C132.138 177.302 132.416 177.375 132.759 177.375C133.15 177.375 133.46 177.292 133.689 177.126C133.921 176.958 134.037 176.757 134.037 176.523C134.037 176.333 133.971 176.175 133.839 176.047C133.706 175.917 133.502 175.82 133.228 175.756L132.319 175.543C131.819 175.424 131.452 175.241 131.218 174.992C130.986 174.741 130.87 174.428 130.87 174.051C130.87 173.743 130.956 173.471 131.129 173.234C131.304 172.998 131.542 172.812 131.843 172.677C132.146 172.542 132.489 172.474 132.873 172.474C133.412 172.474 133.836 172.593 134.144 172.83C134.454 173.066 134.674 173.379 134.805 173.767ZM138.225 178.114C137.771 178.114 137.369 177.999 137.021 177.769C136.673 177.537 136.401 177.21 136.205 176.789C136.008 176.365 135.91 175.865 135.91 175.287C135.91 174.714 136.008 174.217 136.205 173.795C136.401 173.374 136.674 173.049 137.025 172.819C137.375 172.589 137.78 172.474 138.239 172.474C138.594 172.474 138.875 172.534 139.081 172.652C139.289 172.768 139.448 172.901 139.557 173.05C139.668 173.196 139.754 173.317 139.816 173.412H139.887V170.727H140.725V178H139.915V177.162H139.816C139.754 177.261 139.667 177.387 139.553 177.538C139.44 177.687 139.277 177.821 139.067 177.94C138.856 178.056 138.576 178.114 138.225 178.114ZM138.339 177.361C138.675 177.361 138.959 177.273 139.191 177.098C139.423 176.92 139.599 176.675 139.72 176.363C139.841 176.048 139.901 175.685 139.901 175.273C139.901 174.866 139.842 174.509 139.724 174.204C139.605 173.896 139.43 173.657 139.198 173.487C138.966 173.314 138.68 173.227 138.339 173.227C137.984 173.227 137.688 173.318 137.451 173.501C137.217 173.681 137.04 173.926 136.922 174.236C136.806 174.544 136.748 174.889 136.748 175.273C136.748 175.661 136.807 176.014 136.925 176.331C137.046 176.646 137.224 176.897 137.458 177.084C137.695 177.268 137.988 177.361 138.339 177.361ZM143.982 178.128C143.636 178.128 143.322 178.063 143.04 177.933C142.759 177.8 142.535 177.609 142.369 177.361C142.204 177.11 142.121 176.807 142.121 176.452C142.121 176.139 142.182 175.886 142.305 175.692C142.429 175.495 142.593 175.341 142.799 175.23C143.005 175.119 143.232 175.036 143.481 174.982C143.732 174.925 143.984 174.88 144.237 174.847C144.569 174.804 144.837 174.772 145.043 174.751C145.252 174.727 145.403 174.688 145.498 174.634C145.595 174.579 145.643 174.484 145.643 174.349V174.321C145.643 173.971 145.548 173.698 145.356 173.504C145.166 173.31 144.879 173.213 144.493 173.213C144.093 173.213 143.779 173.301 143.552 173.476C143.325 173.651 143.165 173.838 143.072 174.037L142.277 173.753C142.419 173.421 142.608 173.163 142.845 172.979C143.084 172.792 143.345 172.661 143.626 172.588C143.911 172.512 144.19 172.474 144.464 172.474C144.64 172.474 144.841 172.496 145.068 172.538C145.298 172.579 145.519 172.663 145.732 172.79C145.948 172.918 146.126 173.111 146.268 173.369C146.411 173.627 146.482 173.973 146.482 174.406V178H145.643V177.261H145.601C145.544 177.38 145.449 177.506 145.317 177.641C145.184 177.776 145.008 177.891 144.788 177.986C144.567 178.08 144.299 178.128 143.982 178.128ZM144.109 177.375C144.441 177.375 144.72 177.31 144.947 177.18C145.177 177.049 145.35 176.881 145.466 176.675C145.584 176.469 145.643 176.253 145.643 176.026V175.259C145.608 175.301 145.53 175.34 145.409 175.376C145.291 175.409 145.153 175.438 144.997 175.464C144.843 175.488 144.693 175.509 144.546 175.528C144.402 175.545 144.285 175.559 144.195 175.571C143.977 175.599 143.773 175.646 143.584 175.71C143.397 175.771 143.245 175.865 143.129 175.99C143.016 176.113 142.959 176.281 142.959 176.494C142.959 176.786 143.067 177.006 143.282 177.155C143.5 177.302 143.776 177.375 144.109 177.375ZM150.383 172.545V173.256H147.557V172.545H150.383ZM148.381 171.239H149.219V176.438C149.219 176.674 149.253 176.852 149.322 176.97C149.393 177.086 149.483 177.164 149.591 177.205C149.703 177.242 149.82 177.261 149.943 177.261C150.035 177.261 150.111 177.257 150.17 177.247C150.229 177.235 150.277 177.226 150.312 177.219L150.483 177.972C150.426 177.993 150.347 178.014 150.245 178.036C150.143 178.059 150.014 178.071 149.858 178.071C149.621 178.071 149.389 178.02 149.162 177.918C148.937 177.817 148.75 177.661 148.601 177.453C148.454 177.245 148.381 176.982 148.381 176.665V171.239ZM153.801 178.114C153.309 178.114 152.877 177.996 152.505 177.762C152.136 177.528 151.847 177.2 151.639 176.778C151.433 176.357 151.33 175.865 151.33 175.301C151.33 174.733 151.433 174.237 151.639 173.813C151.847 173.389 152.136 173.06 152.505 172.826C152.877 172.592 153.309 172.474 153.801 172.474C154.294 172.474 154.725 172.592 155.094 172.826C155.466 173.06 155.754 173.389 155.96 173.813C156.169 174.237 156.273 174.733 156.273 175.301C156.273 175.865 156.169 176.357 155.96 176.778C155.754 177.2 155.466 177.528 155.094 177.762C154.725 177.996 154.294 178.114 153.801 178.114ZM153.801 177.361C154.175 177.361 154.483 177.265 154.725 177.073C154.966 176.881 155.145 176.629 155.261 176.317C155.377 176.004 155.435 175.666 155.435 175.301C155.435 174.937 155.377 174.597 155.261 174.282C155.145 173.967 154.966 173.713 154.725 173.518C154.483 173.324 154.175 173.227 153.801 173.227C153.427 173.227 153.119 173.324 152.878 173.518C152.637 173.713 152.458 173.967 152.342 174.282C152.226 174.597 152.168 174.937 152.168 175.301C152.168 175.666 152.226 176.004 152.342 176.317C152.458 176.629 152.637 176.881 152.878 177.073C153.119 177.265 153.427 177.361 153.801 177.361Z" fill="#4E4F3D"/>
<path d="M181.256 192.727H182.264L184.281 196.122H184.366L186.384 192.727H187.392L184.764 197.003V200H183.884V197.003L181.256 192.727ZM187.906 192.727H188.915L190.932 196.122H191.017L193.034 192.727H194.042L191.415 197.003V200H190.534V197.003L187.906 192.727ZM194.556 192.727H195.565L197.582 196.122H197.667L199.684 192.727H200.693L198.065 197.003V200H197.184V197.003L194.556 192.727ZM201.207 192.727H202.215L204.232 196.122H204.318L206.335 192.727H207.343L204.715 197.003V200H203.835V197.003L201.207 192.727Z" fill="#AFB1B6"/>
<path d="M106.881 191.727H107.932L110.403 197.764H110.489L112.96 191.727H114.011V199H113.188V193.474H113.116L110.844 199H110.048L107.776 193.474H107.705V199H106.881V191.727ZM115.777 191.727H116.828L119.3 197.764H119.385L121.857 191.727H122.908V199H122.084V193.474H122.013L119.74 199H118.945L116.672 193.474H116.601V199H115.777V191.727Z" fill="#AFB1B6"/>
<line x1="101" y1="72.5" x2="384" y2="72.5" stroke="#AFB1B6"/>
<path d="M112.312 62.1548V60.7273H118.46V62.1548H116.254V68H114.521V62.1548H112.312ZM121.073 68.103C120.5 68.103 120.008 67.9858 119.596 67.7514C119.186 67.5147 118.87 67.1856 118.648 66.7642C118.428 66.3404 118.317 65.8492 118.317 65.2905C118.317 64.7294 118.428 64.2382 118.648 63.8168C118.87 63.393 119.186 63.0639 119.596 62.8295C120.008 62.5928 120.5 62.4744 121.073 62.4744C121.646 62.4744 122.137 62.5928 122.547 62.8295C122.959 63.0639 123.275 63.393 123.495 63.8168C123.718 64.2382 123.829 64.7294 123.829 65.2905C123.829 65.8492 123.718 66.3404 123.495 66.7642C123.275 67.1856 122.959 67.5147 122.547 67.7514C122.137 67.9858 121.646 68.103 121.073 68.103ZM121.084 66.7926C121.292 66.7926 121.469 66.7287 121.613 66.6009C121.757 66.473 121.867 66.2955 121.943 66.0682C122.021 65.8409 122.06 65.5781 122.06 65.2798C122.06 64.9768 122.021 64.7116 121.943 64.4844C121.867 64.2571 121.757 64.0795 121.613 63.9517C121.469 63.8239 121.292 63.7599 121.084 63.7599C120.868 63.7599 120.686 63.8239 120.537 63.9517C120.39 64.0795 120.278 64.2571 120.2 64.4844C120.124 64.7116 120.086 64.9768 120.086 65.2798C120.086 65.5781 120.124 65.8409 120.2 66.0682C120.278 66.2955 120.39 66.473 120.537 66.6009C120.686 66.7287 120.868 66.7926 121.084 66.7926ZM127.797 62.5455V63.8239H124.356V62.5455H127.797ZM125.077 61.2386H126.814V66.2848C126.814 66.3913 126.83 66.4777 126.863 66.544C126.899 66.608 126.95 66.6541 127.016 66.6825C127.082 66.7086 127.162 66.7216 127.254 66.7216C127.32 66.7216 127.39 66.7157 127.463 66.7038C127.539 66.6896 127.596 66.6778 127.634 66.6683L127.897 67.9219C127.814 67.9455 127.697 67.9751 127.545 68.0107C127.396 68.0462 127.217 68.0687 127.009 68.0781C126.602 68.0971 126.252 68.0497 125.961 67.9361C125.672 67.8201 125.451 67.6402 125.297 67.3963C125.146 67.1525 125.072 66.8459 125.077 66.4766V61.2386ZM130.221 68.0923C129.873 68.0923 129.564 68.0343 129.294 67.9183C129.027 67.8 128.815 67.6224 128.658 67.3857C128.504 67.1465 128.428 66.8471 128.428 66.4872C128.428 66.1842 128.481 65.9285 128.587 65.7202C128.694 65.5118 128.841 65.3426 129.028 65.2124C129.215 65.0821 129.43 64.9839 129.674 64.9176C129.918 64.849 130.178 64.8028 130.455 64.7791C130.765 64.7507 131.015 64.7211 131.205 64.6903C131.394 64.6572 131.531 64.611 131.616 64.5518C131.704 64.4903 131.748 64.4039 131.748 64.2926V64.2749C131.748 64.0926 131.685 63.9517 131.56 63.8523C131.434 63.7528 131.265 63.7031 131.052 63.7031C130.822 63.7031 130.638 63.7528 130.498 63.8523C130.358 63.9517 130.269 64.089 130.232 64.2642L128.63 64.2074C128.677 63.8759 128.799 63.58 128.996 63.3196C129.195 63.0568 129.467 62.8509 129.812 62.7017C130.161 62.5502 130.578 62.4744 131.066 62.4744C131.414 62.4744 131.735 62.5159 132.028 62.5987C132.322 62.6792 132.578 62.7976 132.795 62.9538C133.013 63.1077 133.181 63.2971 133.3 63.522C133.42 63.7469 133.481 64.0038 133.481 64.2926V68H131.847V67.2401H131.805C131.708 67.4247 131.583 67.581 131.432 67.7088C131.283 67.8366 131.106 67.9325 130.903 67.9964C130.701 68.0604 130.474 68.0923 130.221 68.0923ZM130.757 66.956C130.944 66.956 131.112 66.9181 131.261 66.8423C131.413 66.7666 131.534 66.6624 131.624 66.5298C131.714 66.3949 131.759 66.2386 131.759 66.0611V65.5426C131.709 65.5687 131.648 65.5923 131.577 65.6136C131.509 65.6349 131.433 65.6551 131.35 65.674C131.267 65.6929 131.182 65.7095 131.094 65.7237C131.007 65.7379 130.923 65.7509 130.842 65.7628C130.679 65.7888 130.539 65.8291 130.423 65.8835C130.31 65.938 130.222 66.009 130.161 66.0966C130.101 66.1818 130.072 66.2836 130.072 66.402C130.072 66.5819 130.136 66.7192 130.263 66.8139C130.394 66.9086 130.558 66.956 130.757 66.956ZM136.279 60.7273V68H134.543V60.7273H136.279Z" fill="#4E4F3D"/>
<path d="M353.303 68.0994C352.749 68.0994 352.257 68.0047 351.829 67.8153C351.403 67.6236 351.067 67.3596 350.82 67.0234C350.574 66.6873 350.449 66.3002 350.444 65.8622H352.212C352.219 66.0208 352.27 66.1617 352.365 66.2848C352.46 66.4055 352.589 66.5002 352.752 66.5689C352.915 66.6375 353.101 66.6719 353.31 66.6719C353.518 66.6719 353.701 66.6352 353.86 66.5618C354.021 66.486 354.147 66.383 354.237 66.2528C354.326 66.1203 354.37 65.9687 354.368 65.7983C354.37 65.6278 354.322 65.4763 354.222 65.3438C354.123 65.2112 353.982 65.1082 353.8 65.0348C353.62 64.9614 353.407 64.9247 353.161 64.9247H352.454V63.6747H353.161C353.376 63.6747 353.565 63.6392 353.729 63.5682C353.894 63.4972 354.023 63.3977 354.116 63.2699C354.208 63.1397 354.253 62.9905 354.251 62.8224C354.253 62.6591 354.214 62.5159 354.134 62.3928C354.055 62.2673 353.945 62.1702 353.803 62.1016C353.664 62.0329 353.501 61.9986 353.317 61.9986C353.123 61.9986 352.946 62.0329 352.788 62.1016C352.631 62.1702 352.507 62.2673 352.415 62.3928C352.322 62.5182 352.274 62.6638 352.269 62.8295H350.589C350.594 62.3963 350.715 62.0152 350.952 61.6861C351.188 61.3546 351.51 61.0954 351.918 60.9084C352.327 60.7214 352.794 60.6278 353.317 60.6278C353.838 60.6278 354.296 60.719 354.691 60.9013C355.086 61.0836 355.394 61.3321 355.614 61.647C355.835 61.9595 355.945 62.3134 355.945 62.7088C355.947 63.1184 355.813 63.4557 355.543 63.7209C355.276 63.986 354.931 64.1494 354.51 64.2109V64.2678C355.073 64.334 355.498 64.5163 355.785 64.8146C356.074 65.1129 356.217 65.4858 356.214 65.9332C356.214 66.3546 356.09 66.7287 355.842 67.0554C355.595 67.3797 355.252 67.6354 354.812 67.8224C354.374 68.0071 353.871 68.0994 353.303 68.0994ZM359.944 60.6278C360.342 60.6278 360.722 60.6929 361.084 60.8232C361.446 60.951 361.769 61.1558 362.053 61.4375C362.338 61.7169 362.561 62.085 362.725 62.5419C362.888 62.9988 362.97 63.5563 362.97 64.2145C362.972 64.8205 362.901 65.3639 362.757 65.8445C362.612 66.3227 362.405 66.7299 362.135 67.0661C361.868 67.4022 361.546 67.6591 361.169 67.8366C360.793 68.0118 360.373 68.0994 359.909 68.0994C359.397 68.0994 358.946 68.0012 358.556 67.8047C358.167 67.6058 357.856 67.3383 357.622 67.0021C357.39 66.666 357.251 66.2895 357.206 65.8729H358.936C358.99 66.1143 359.105 66.2966 359.28 66.4197C359.455 66.5405 359.665 66.6009 359.909 66.6009C360.354 66.6009 360.686 66.4079 360.906 66.022C361.127 65.6361 361.237 65.1117 361.237 64.4489H361.194C361.092 64.6667 360.948 64.8537 360.761 65.0099C360.576 65.1662 360.362 65.2857 360.118 65.3686C359.874 65.4515 359.617 65.4929 359.347 65.4929C358.912 65.4929 358.527 65.3935 358.193 65.1946C357.862 64.9957 357.602 64.7223 357.412 64.3743C357.225 64.0263 357.13 63.6286 357.128 63.1811C357.126 62.6792 357.243 62.2365 357.48 61.853C357.716 61.4671 358.047 61.1664 358.47 60.951C358.894 60.7332 359.385 60.6255 359.944 60.6278ZM359.955 61.9773C359.737 61.9773 359.543 62.0282 359.372 62.13C359.204 62.2318 359.072 62.3691 358.975 62.5419C358.878 62.7147 358.83 62.9089 358.833 63.1243C358.835 63.3397 358.883 63.5339 358.978 63.7067C359.075 63.8795 359.207 64.0168 359.372 64.1186C359.54 64.2204 359.732 64.2713 359.948 64.2713C360.109 64.2713 360.258 64.2417 360.395 64.1825C360.532 64.1233 360.652 64.0417 360.754 63.9375C360.856 63.831 360.935 63.7079 360.992 63.5682C361.051 63.4285 361.079 63.2794 361.077 63.1207C361.075 62.91 361.025 62.7183 360.928 62.5455C360.831 62.3726 360.697 62.2353 360.526 62.1335C360.358 62.0294 360.168 61.9773 359.955 61.9773ZM366.673 60.6278C367.07 60.6278 367.45 60.6929 367.812 60.8232C368.175 60.951 368.498 61.1558 368.782 61.4375C369.066 61.7169 369.29 62.085 369.453 62.5419C369.616 62.9988 369.698 63.5563 369.698 64.2145C369.701 64.8205 369.629 65.3639 369.485 65.8445C369.341 66.3227 369.134 66.7299 368.864 67.0661C368.596 67.4022 368.274 67.6591 367.898 67.8366C367.521 68.0118 367.101 68.0994 366.637 68.0994C366.126 68.0994 365.675 68.0012 365.284 67.8047C364.896 67.6058 364.585 67.3383 364.35 67.0021C364.118 66.666 363.98 66.2895 363.935 65.8729H365.664C365.719 66.1143 365.833 66.2966 366.009 66.4197C366.184 66.5405 366.393 66.6009 366.637 66.6009C367.082 66.6009 367.415 66.4079 367.635 66.022C367.855 65.6361 367.965 65.1117 367.965 64.4489H367.923C367.821 64.6667 367.676 64.8537 367.489 65.0099C367.305 65.1662 367.09 65.2857 366.847 65.3686C366.603 65.4515 366.346 65.4929 366.076 65.4929C365.64 65.4929 365.256 65.3935 364.922 65.1946C364.59 64.9957 364.33 64.7223 364.141 64.3743C363.954 64.0263 363.859 63.6286 363.857 63.1811C363.854 62.6792 363.971 62.2365 364.208 61.853C364.445 61.4671 364.775 61.1664 365.199 60.951C365.623 60.7332 366.114 60.6255 366.673 60.6278ZM366.683 61.9773C366.465 61.9773 366.271 62.0282 366.101 62.13C365.933 62.2318 365.8 62.3691 365.703 62.5419C365.606 62.7147 365.559 62.9089 365.561 63.1243C365.563 63.3397 365.612 63.5339 365.707 63.7067C365.804 63.8795 365.935 64.0168 366.101 64.1186C366.269 64.2204 366.461 64.2713 366.676 64.2713C366.837 64.2713 366.986 64.2417 367.124 64.1825C367.261 64.1233 367.38 64.0417 367.482 63.9375C367.584 63.831 367.663 63.7079 367.72 63.5682C367.779 63.4285 367.808 63.2794 367.805 63.1207C367.803 62.91 367.753 62.7183 367.656 62.5455C367.559 62.3726 367.425 62.2353 367.255 62.1335C367.087 62.0294 366.896 61.9773 366.683 61.9773ZM372.137 67.0057L372.105 67.3999C372.077 67.7266 372.019 68.045 371.931 68.3551C371.846 68.6676 371.755 68.9482 371.657 69.1967C371.56 69.4453 371.483 69.6383 371.427 69.7756H370.333C370.371 69.6383 370.422 69.4453 370.486 69.1967C370.552 68.9482 370.613 68.6676 370.67 68.3551C370.727 68.0426 370.759 67.7254 370.766 67.4034L370.773 67.0057H372.137ZM376.961 64.3885V65.7273H373.595V64.3885H376.961Z" fill="#4E4F3D"/>
<rect x="299" y="214" width="30" height="18.1463" rx="3" fill="#D9D9D9"/>
<rect x="299" y="217" width="30" height="3" fill="black" fill-opacity="0.36"/>
<rect x="300.098" y="221.562" width="27.439" height="2.26829" fill="white" fill-opacity="0.85"/>
<path d="M326.602 224.89C326.602 225.804 325.887 226.53 325.023 226.53C324.158 226.53 323.443 225.804 323.443 224.89C323.443 223.977 324.158 223.25 325.023 223.25C325.887 223.25 326.602 223.977 326.602 224.89Z" stroke="#DD2424" stroke-width="0.5"/>
<path d="M324.128 225.641V225.514L324.393 225.282C324.413 225.264 324.43 225.248 324.444 225.233C324.458 225.217 324.469 225.202 324.476 225.187C324.483 225.172 324.487 225.155 324.487 225.137C324.487 225.117 324.482 225.1 324.474 225.086C324.465 225.071 324.453 225.06 324.438 225.052C324.422 225.044 324.404 225.04 324.385 225.04C324.364 225.04 324.347 225.045 324.332 225.053C324.317 225.061 324.305 225.073 324.296 225.088C324.288 225.103 324.284 225.122 324.284 225.144H324.117C324.117 225.095 324.128 225.052 324.151 225.016C324.173 224.98 324.204 224.952 324.244 224.933C324.285 224.913 324.332 224.903 324.385 224.903C324.44 224.903 324.488 224.913 324.529 224.931C324.57 224.95 324.601 224.975 324.624 225.009C324.646 225.041 324.657 225.08 324.657 225.123C324.657 225.151 324.652 225.178 324.641 225.206C324.629 225.233 324.609 225.263 324.581 225.296C324.552 225.329 324.511 225.368 324.458 225.414L324.371 225.494V225.499H324.666V225.641H324.128ZM325.05 225.651C324.993 225.651 324.943 225.642 324.898 225.624C324.854 225.605 324.819 225.581 324.794 225.55C324.768 225.518 324.756 225.483 324.756 225.444C324.756 225.414 324.763 225.386 324.778 225.361C324.792 225.336 324.812 225.315 324.836 225.299C324.861 225.282 324.889 225.271 324.919 225.266V225.261C324.879 225.253 324.847 225.235 324.821 225.205C324.796 225.175 324.783 225.14 324.783 225.1C324.783 225.062 324.794 225.029 324.817 224.999C324.841 224.969 324.872 224.946 324.912 224.929C324.952 224.912 324.998 224.903 325.05 224.903C325.101 224.903 325.147 224.912 325.187 224.929C325.227 224.946 325.259 224.969 325.282 224.999C325.305 225.029 325.316 225.062 325.316 225.1C325.316 225.14 325.303 225.175 325.278 225.205C325.252 225.235 325.219 225.253 325.18 225.261V225.266C325.21 225.271 325.238 225.282 325.262 225.299C325.287 225.315 325.307 225.336 325.321 225.361C325.336 225.386 325.343 225.414 325.343 225.444C325.343 225.483 325.331 225.518 325.305 225.55C325.28 225.581 325.245 225.605 325.201 225.624C325.157 225.642 325.106 225.651 325.05 225.651ZM325.05 225.526C325.071 225.526 325.09 225.522 325.106 225.514C325.123 225.506 325.136 225.494 325.145 225.479C325.154 225.465 325.159 225.448 325.159 225.43C325.159 225.411 325.154 225.394 325.145 225.379C325.135 225.365 325.122 225.353 325.106 225.345C325.089 225.336 325.071 225.332 325.05 225.332C325.029 225.332 325.01 225.336 324.994 225.345C324.977 225.353 324.964 225.365 324.954 225.379C324.945 225.394 324.94 225.411 324.94 225.43C324.94 225.448 324.945 225.465 324.954 225.479C324.964 225.494 324.976 225.505 324.993 225.513C325.009 225.522 325.028 225.526 325.05 225.526ZM325.05 225.208C325.068 225.208 325.084 225.204 325.099 225.197C325.113 225.189 325.124 225.179 325.132 225.165C325.141 225.152 325.145 225.136 325.145 225.119C325.145 225.102 325.141 225.087 325.132 225.074C325.124 225.061 325.113 225.051 325.099 225.044C325.085 225.036 325.068 225.032 325.05 225.032C325.031 225.032 325.015 225.036 325 225.044C324.986 225.051 324.975 225.061 324.967 225.074C324.958 225.087 324.954 225.102 324.954 225.119C324.954 225.136 324.958 225.152 324.967 225.165C324.975 225.178 324.986 225.189 325.001 225.197C325.015 225.204 325.031 225.208 325.05 225.208ZM325.733 225.651C325.693 225.651 325.655 225.644 325.619 225.631C325.582 225.618 325.55 225.598 325.521 225.57C325.493 225.541 325.47 225.504 325.454 225.458C325.438 225.412 325.43 225.356 325.43 225.289C325.43 225.23 325.438 225.176 325.452 225.128C325.466 225.08 325.487 225.04 325.514 225.006C325.541 224.973 325.573 224.948 325.61 224.93C325.648 224.912 325.69 224.903 325.736 224.903C325.787 224.903 325.832 224.913 325.871 224.933C325.91 224.953 325.941 224.979 325.965 225.013C325.988 225.046 326.002 225.083 326.006 225.124H325.833C325.828 225.101 325.817 225.083 325.799 225.071C325.781 225.059 325.761 225.053 325.736 225.053C325.692 225.053 325.659 225.073 325.637 225.111C325.615 225.15 325.604 225.201 325.603 225.266H325.608C325.618 225.244 325.632 225.225 325.651 225.21C325.67 225.194 325.691 225.182 325.715 225.174C325.739 225.165 325.765 225.161 325.793 225.161C325.836 225.161 325.875 225.171 325.908 225.191C325.941 225.212 325.967 225.239 325.986 225.274C326.005 225.309 326.015 225.349 326.014 225.394C326.015 225.444 326.003 225.489 325.979 225.528C325.955 225.567 325.922 225.597 325.88 225.618C325.837 225.64 325.789 225.651 325.733 225.651ZM325.732 225.516C325.753 225.516 325.773 225.511 325.79 225.5C325.807 225.49 325.82 225.476 325.83 225.459C325.84 225.441 325.844 225.422 325.844 225.4C325.844 225.377 325.84 225.357 325.83 225.34C325.82 225.323 325.807 225.309 325.79 225.299C325.773 225.289 325.754 225.284 325.732 225.284C325.716 225.284 325.701 225.287 325.688 225.293C325.674 225.299 325.662 225.307 325.652 225.317C325.642 225.328 325.634 225.34 325.628 225.354C325.623 225.368 325.62 225.384 325.62 225.4C325.62 225.421 325.625 225.441 325.634 225.458C325.644 225.476 325.657 225.49 325.674 225.5C325.691 225.511 325.71 225.516 325.732 225.516Z" fill="#4E4F3D"/>
</svg>
