<svg width="604" height="18" viewBox="0 0 604 18" fill="none" xmlns="http://www.w3.org/2000/svg">
<path d="M547.321 14V3.09091H551.135C551.895 3.09091 552.522 3.2223 553.015 3.48509C553.509 3.74432 553.876 4.0941 554.118 4.53445C554.359 4.97124 554.48 5.45597 554.48 5.98864C554.48 6.45739 554.397 6.84446 554.23 7.14986C554.066 7.45526 553.85 7.69673 553.58 7.87429C553.314 8.05185 553.024 8.18324 552.712 8.26847V8.375C553.045 8.39631 553.381 8.51349 553.718 8.72656C554.056 8.93963 554.338 9.24503 554.565 9.64276C554.793 10.0405 554.906 10.527 554.906 11.1023C554.906 11.6491 554.782 12.141 554.533 12.5778C554.285 13.0146 553.892 13.3608 553.356 13.6165C552.82 13.8722 552.122 14 551.263 14H547.321ZM548.642 12.8281H551.263C552.126 12.8281 552.738 12.6612 553.1 12.3274C553.466 11.9901 553.649 11.5817 553.649 11.1023C553.649 10.733 553.555 10.392 553.367 10.0795C553.179 9.76349 552.911 9.51136 552.562 9.32315C552.214 9.13139 551.803 9.03551 551.327 9.03551H548.642V12.8281ZM548.642 7.88494H551.092C551.49 7.88494 551.849 7.80682 552.168 7.65057C552.491 7.49432 552.747 7.27415 552.935 6.99006C553.127 6.70597 553.223 6.37216 553.223 5.98864C553.223 5.50923 553.056 5.10263 552.722 4.76882C552.388 4.43146 551.859 4.26278 551.135 4.26278H548.642V7.88494ZM560.337 14.1705C559.548 14.1705 558.868 13.9964 558.297 13.6484C557.729 13.2969 557.29 12.8068 556.981 12.1783C556.676 11.5462 556.523 10.8111 556.523 9.97301C556.523 9.13494 556.676 8.39631 556.981 7.7571C557.29 7.11435 557.72 6.61364 558.27 6.25497C558.824 5.89276 559.47 5.71165 560.209 5.71165C560.635 5.71165 561.056 5.78267 561.471 5.92472C561.887 6.06676 562.265 6.29759 562.606 6.61719C562.947 6.93324 563.219 7.35227 563.421 7.87429C563.623 8.39631 563.725 9.03906 563.725 9.80256V10.3352H557.418V9.24858H562.446C562.446 8.78693 562.354 8.375 562.169 8.01278C561.988 7.65057 561.729 7.3647 561.392 7.15518C561.058 6.94567 560.664 6.84091 560.209 6.84091C559.708 6.84091 559.275 6.9652 558.909 7.21378C558.547 7.45881 558.268 7.77841 558.073 8.17258C557.878 8.56676 557.78 8.98935 557.78 9.44034V10.1648C557.78 10.7827 557.887 11.3065 558.1 11.7362C558.316 12.1623 558.616 12.4872 559 12.7109C559.383 12.9311 559.829 13.0412 560.337 13.0412C560.667 13.0412 560.965 12.995 561.232 12.9027C561.502 12.8068 561.734 12.6648 561.93 12.4766C562.125 12.2848 562.276 12.0469 562.382 11.7628L563.597 12.1037C563.469 12.5156 563.254 12.8778 562.952 13.1903C562.65 13.4993 562.278 13.7408 561.834 13.9148C561.39 14.0852 560.891 14.1705 560.337 14.1705ZM569.195 5.81818V6.88352H564.955V5.81818H569.195ZM566.191 3.85795H567.448V11.6562C567.448 12.0114 567.499 12.2777 567.602 12.4553C567.709 12.6293 567.844 12.7464 568.007 12.8068C568.174 12.8636 568.35 12.892 568.535 12.892C568.673 12.892 568.787 12.8849 568.876 12.8707C568.964 12.853 569.035 12.8388 569.089 12.8281L569.344 13.9574C569.259 13.9893 569.14 14.0213 568.987 14.0533C568.835 14.0888 568.641 14.1065 568.407 14.1065C568.052 14.1065 567.704 14.0302 567.363 13.8775C567.025 13.7248 566.745 13.4922 566.521 13.1797C566.301 12.8672 566.191 12.473 566.191 11.9972V3.85795ZM573.494 14.1918C572.975 14.1918 572.505 14.0941 572.082 13.8988C571.66 13.6999 571.324 13.4141 571.075 13.0412C570.827 12.6648 570.703 12.2102 570.703 11.6776C570.703 11.2088 570.795 10.8288 570.98 10.5376C571.164 10.2429 571.411 10.0121 571.72 9.84517C572.029 9.67827 572.37 9.55398 572.743 9.4723C573.119 9.38707 573.497 9.3196 573.877 9.26989C574.374 9.20597 574.778 9.15803 575.086 9.12607C575.399 9.09055 575.626 9.03196 575.768 8.95028C575.914 8.86861 575.987 8.72656 575.987 8.52415V8.48153C575.987 7.95597 575.843 7.54759 575.555 7.25639C575.271 6.9652 574.84 6.8196 574.261 6.8196C573.661 6.8196 573.19 6.95099 572.849 7.21378C572.508 7.47656 572.269 7.7571 572.13 8.0554L570.937 7.62926C571.15 7.1321 571.434 6.74503 571.789 6.46804C572.148 6.1875 572.539 5.99219 572.961 5.8821C573.387 5.76847 573.806 5.71165 574.218 5.71165C574.481 5.71165 574.783 5.74361 575.124 5.80753C575.468 5.8679 575.8 5.99396 576.12 6.18572C576.443 6.37749 576.711 6.6669 576.924 7.05398C577.137 7.44105 577.244 7.95952 577.244 8.60938V14H575.987V12.892H575.923C575.838 13.0696 575.695 13.2596 575.497 13.462C575.298 13.6644 575.033 13.8366 574.703 13.9787C574.373 14.1207 573.97 14.1918 573.494 14.1918ZM573.686 13.0625C574.183 13.0625 574.602 12.9648 574.943 12.7695C575.287 12.5742 575.546 12.3221 575.72 12.0131C575.898 11.7042 575.987 11.3793 575.987 11.0384V9.88778C575.933 9.9517 575.816 10.0103 575.635 10.0636C575.458 10.1133 575.252 10.1577 575.017 10.1967C574.786 10.2322 574.561 10.2642 574.341 10.2926C574.124 10.3175 573.948 10.3388 573.813 10.3565C573.487 10.3991 573.181 10.4684 572.897 10.5643C572.617 10.6566 572.389 10.7969 572.215 10.9851C572.045 11.1697 571.96 11.4219 571.96 11.7415C571.96 12.1783 572.121 12.5085 572.444 12.7322C572.771 12.9524 573.185 13.0625 573.686 13.0625ZM580.795 3.09091V14H579.538V3.09091H580.795ZM583.098 14V5.81818H584.355V14H583.098ZM583.737 4.45455C583.492 4.45455 583.281 4.37109 583.103 4.20419C582.929 4.03729 582.842 3.83665 582.842 3.60227C582.842 3.3679 582.929 3.16726 583.103 3.00035C583.281 2.83345 583.492 2.75 583.737 2.75C583.982 2.75 584.192 2.83345 584.366 3.00035C584.543 3.16726 584.632 3.3679 584.632 3.60227C584.632 3.83665 584.543 4.03729 584.366 4.20419C584.192 4.37109 583.982 4.45455 583.737 4.45455ZM587.915 9.07812V14H586.657V5.81818H587.872V7.09659H587.978C588.17 6.68111 588.461 6.3473 588.852 6.09517C589.243 5.83949 589.747 5.71165 590.365 5.71165C590.919 5.71165 591.403 5.82528 591.819 6.05256C592.234 6.27628 592.558 6.61719 592.788 7.07528C593.019 7.52983 593.135 8.10511 593.135 8.80114V14H591.878V8.88636C591.878 8.24361 591.711 7.7429 591.377 7.38423C591.043 7.02202 590.585 6.84091 590.003 6.84091C589.601 6.84091 589.243 6.92791 588.927 7.10192C588.614 7.27592 588.367 7.52983 588.186 7.86364C588.005 8.19744 587.915 8.60227 587.915 9.07812ZM598.734 17.2386C598.127 17.2386 597.605 17.1605 597.168 17.0043C596.732 16.8516 596.368 16.6491 596.076 16.397C595.789 16.1484 595.56 15.8821 595.389 15.598L596.391 14.8949C596.504 15.044 596.648 15.2145 596.822 15.4062C596.996 15.6016 597.234 15.7702 597.536 15.9123C597.841 16.0579 598.241 16.1307 598.734 16.1307C599.395 16.1307 599.94 15.9709 600.37 15.6513C600.799 15.3317 601.014 14.831 601.014 14.1491V12.4872H600.908C600.815 12.6364 600.684 12.821 600.513 13.0412C600.347 13.2578 600.105 13.4513 599.789 13.6218C599.477 13.7887 599.054 13.8722 598.521 13.8722C597.861 13.8722 597.268 13.7159 596.742 13.4034C596.22 13.0909 595.806 12.6364 595.501 12.0398C595.199 11.4432 595.048 10.7187 595.048 9.86648C595.048 9.02841 595.196 8.29865 595.49 7.6772C595.785 7.0522 596.195 6.56925 596.721 6.22834C597.246 5.88388 597.854 5.71165 598.543 5.71165C599.075 5.71165 599.498 5.80043 599.81 5.97798C600.126 6.15199 600.368 6.35085 600.535 6.57457C600.705 6.79474 600.837 6.97585 600.929 7.1179H601.057V5.81818H602.271V14.2344C602.271 14.9375 602.112 15.5092 601.792 15.9496C601.476 16.3935 601.05 16.7184 600.513 16.9244C599.981 17.1339 599.388 17.2386 598.734 17.2386ZM598.692 12.7429C599.196 12.7429 599.622 12.6275 599.97 12.3967C600.318 12.1658 600.583 11.8338 600.764 11.4006C600.945 10.9673 601.036 10.4489 601.036 9.84517C601.036 9.25568 600.947 8.73544 600.769 8.28445C600.592 7.83345 600.329 7.48011 599.981 7.22443C599.633 6.96875 599.203 6.84091 598.692 6.84091C598.159 6.84091 597.715 6.97585 597.36 7.24574C597.009 7.51562 596.744 7.87784 596.566 8.33239C596.392 8.78693 596.305 9.29119 596.305 9.84517C596.305 10.4134 596.394 10.9158 596.572 11.3526C596.753 11.7859 597.019 12.1268 597.371 12.3754C597.726 12.6204 598.166 12.7429 598.692 12.7429Z" fill="#4E4F3D"/>
<path d="M217.826 14V3.09091H222.332C223.149 3.09091 223.854 3.23828 224.447 3.53303C225.043 3.82422 225.503 4.24325 225.826 4.79013C226.15 5.33345 226.311 5.97798 226.311 6.72372C226.311 7.48011 226.146 8.12287 225.816 8.65199C225.485 9.17756 225.017 9.57884 224.409 9.85582C223.802 10.1293 223.083 10.266 222.252 10.266H219.402V8.18857H221.762C222.16 8.18857 222.492 8.13707 222.758 8.03409C223.028 7.92756 223.232 7.76776 223.371 7.55469C223.509 7.33807 223.578 7.06108 223.578 6.72372C223.578 6.38636 223.509 6.1076 223.371 5.88743C223.232 5.66371 223.028 5.4968 222.758 5.38672C222.488 5.27308 222.156 5.21626 221.762 5.21626H220.462V14H217.826ZM223.967 9.0142L226.684 14H223.808L221.144 9.0142H223.967ZM231.421 14.1545C230.565 14.1545 229.826 13.9858 229.205 13.6484C228.587 13.3075 228.111 12.8228 227.777 12.1942C227.447 11.5621 227.282 10.8111 227.282 9.94105C227.282 9.09588 227.449 8.35724 227.783 7.72514C228.116 7.08949 228.587 6.59588 229.194 6.24432C229.801 5.8892 230.517 5.71165 231.341 5.71165C231.923 5.71165 232.456 5.8022 232.939 5.98331C233.422 6.16442 233.839 6.43253 234.191 6.78764C234.542 7.14276 234.816 7.58132 235.011 8.10334C235.206 8.6218 235.304 9.21662 235.304 9.88778V10.5376H228.193V9.02486H232.88C232.877 8.74787 232.811 8.50107 232.683 8.28445C232.555 8.06783 232.38 7.89915 232.156 7.77841C231.936 7.65412 231.682 7.59197 231.394 7.59197C231.103 7.59197 230.842 7.65767 230.611 7.78906C230.38 7.9169 230.197 8.09268 230.062 8.31641C229.927 8.53658 229.856 8.78693 229.849 9.06747V10.6069C229.849 10.9407 229.915 11.2337 230.046 11.4858C230.178 11.7344 230.364 11.9279 230.606 12.0664C230.847 12.2049 231.135 12.2741 231.469 12.2741C231.699 12.2741 231.909 12.2422 232.097 12.1783C232.285 12.1143 232.447 12.0202 232.582 11.896C232.717 11.7717 232.818 11.619 232.886 11.4379L235.277 11.5071C235.178 12.0433 234.959 12.5103 234.622 12.908C234.288 13.3022 233.85 13.6094 233.306 13.8295C232.763 14.0462 232.134 14.1545 231.421 14.1545ZM240.448 17.2386C239.67 17.2386 239.005 17.1303 238.451 16.9137C237.897 16.6971 237.462 16.4006 237.146 16.0241C236.83 15.6477 236.64 15.2216 236.576 14.7457L239.042 14.6072C239.088 14.7741 239.173 14.9197 239.298 15.044C239.425 15.1683 239.591 15.2642 239.793 15.3317C239.999 15.3991 240.24 15.4329 240.517 15.4329C240.954 15.4329 241.315 15.3263 241.599 15.1133C241.886 14.9038 242.03 14.5362 242.03 14.0107V12.5724H241.94C241.837 12.8246 241.68 13.0501 241.471 13.2489C241.261 13.4478 241 13.604 240.688 13.7177C240.379 13.8313 240.024 13.8881 239.623 13.8881C239.026 13.8881 238.479 13.7496 237.982 13.4727C237.488 13.1921 237.092 12.7589 236.794 12.1729C236.499 11.5835 236.352 10.8253 236.352 9.89844C236.352 8.94318 236.505 8.1566 236.81 7.53871C237.115 6.91726 237.515 6.45739 238.009 6.15909C238.506 5.8608 239.04 5.71165 239.612 5.71165C240.042 5.71165 240.409 5.78622 240.714 5.93537C241.023 6.08097 241.277 6.26918 241.476 6.5C241.675 6.73082 241.826 6.97053 241.929 7.2191H242.004V5.81818H244.598V14.032C244.598 14.7244 244.424 15.3086 244.076 15.7844C243.728 16.2603 243.241 16.6207 242.616 16.8658C241.991 17.1143 241.268 17.2386 240.448 17.2386ZM240.528 11.9918C240.844 11.9918 241.114 11.9084 241.338 11.7415C241.561 11.5746 241.734 11.3349 241.854 11.0224C241.975 10.7099 242.036 10.3352 242.036 9.89844C242.036 9.45455 241.975 9.0728 241.854 8.7532C241.737 8.43004 241.565 8.18146 241.338 8.00746C241.114 7.83345 240.844 7.74645 240.528 7.74645C240.205 7.74645 239.931 7.83523 239.708 8.01278C239.484 8.19034 239.314 8.4407 239.196 8.76385C239.083 9.08345 239.026 9.46165 239.026 9.89844C239.026 10.3352 239.085 10.7099 239.202 11.0224C239.319 11.3349 239.488 11.5746 239.708 11.7415C239.931 11.9084 240.205 11.9918 240.528 11.9918ZM246.258 14V5.81818H248.863V14H246.258ZM247.563 4.8647C247.198 4.8647 246.883 4.74396 246.62 4.50249C246.358 4.25746 246.226 3.96271 246.226 3.61825C246.226 3.27734 246.358 2.98615 246.62 2.74467C246.883 2.49964 247.198 2.37713 247.563 2.37713C247.933 2.37713 248.247 2.49964 248.506 2.74467C248.769 2.98615 248.9 3.27734 248.9 3.61825C248.9 3.96271 248.769 4.25746 248.506 4.50249C248.247 4.74396 247.933 4.8647 247.563 4.8647ZM257.664 8.31641L255.272 8.38033C255.248 8.20987 255.18 8.05895 255.07 7.92756C254.96 7.79261 254.816 7.68786 254.638 7.61328C254.464 7.53516 254.262 7.49609 254.031 7.49609C253.729 7.49609 253.472 7.55646 253.259 7.6772C253.049 7.79794 252.946 7.96129 252.95 8.16726C252.946 8.32706 253.01 8.46555 253.142 8.58274C253.277 8.69993 253.516 8.79403 253.861 8.86506L255.438 9.16335C256.254 9.3196 256.862 9.57884 257.259 9.94105C257.661 10.3033 257.863 10.7827 257.866 11.3793C257.863 11.9403 257.696 12.4286 257.366 12.8441C257.039 13.2596 256.592 13.5827 256.023 13.8136C255.455 14.0408 254.805 14.1545 254.074 14.1545C252.906 14.1545 251.984 13.9148 251.309 13.4354C250.638 12.9524 250.255 12.3061 250.159 11.4964L252.732 11.4325C252.788 11.7308 252.936 11.9581 253.174 12.1143C253.412 12.2706 253.715 12.3487 254.085 12.3487C254.418 12.3487 254.69 12.2866 254.9 12.1623C255.109 12.038 255.216 11.8729 255.219 11.6669C255.216 11.4822 255.134 11.3349 254.974 11.2248C254.814 11.1112 254.564 11.0224 254.223 10.9585L252.795 10.6868C251.975 10.5376 251.364 10.2624 250.963 9.86115C250.562 9.45632 250.363 8.94141 250.366 8.31641C250.363 7.76953 250.509 7.30256 250.803 6.91548C251.098 6.52486 251.517 6.22656 252.06 6.0206C252.604 5.81463 253.245 5.71165 253.983 5.71165C255.091 5.71165 255.965 5.94425 256.604 6.40945C257.243 6.87109 257.597 7.50675 257.664 8.31641ZM263.767 5.81818V7.7358H258.606V5.81818H263.767ZM259.687 3.85795H262.292V11.4272C262.292 11.587 262.316 11.7166 262.366 11.8161C262.419 11.9119 262.496 11.9812 262.595 12.0238C262.695 12.0629 262.814 12.0824 262.952 12.0824C263.052 12.0824 263.156 12.0735 263.266 12.0558C263.38 12.0344 263.465 12.0167 263.522 12.0025L263.916 13.8828C263.792 13.9183 263.616 13.9627 263.389 14.016C263.165 14.0692 262.897 14.103 262.585 14.1172C261.974 14.1456 261.45 14.0746 261.013 13.9041C260.58 13.7301 260.248 13.4602 260.017 13.0945C259.79 12.7287 259.68 12.2688 259.687 11.7148V3.85795ZM265.096 14V5.81818H267.626V7.30966H267.712C267.861 6.76989 268.104 6.36861 268.441 6.10582C268.779 5.83949 269.171 5.70632 269.619 5.70632C269.739 5.70632 269.864 5.7152 269.991 5.73295C270.119 5.74716 270.238 5.77024 270.348 5.8022V8.06605C270.224 8.02344 270.061 7.9897 269.858 7.96484C269.659 7.93999 269.482 7.92756 269.326 7.92756C269.017 7.92756 268.738 7.9968 268.489 8.1353C268.244 8.27024 268.051 8.46023 267.909 8.70526C267.77 8.94673 267.701 9.23082 267.701 9.55753V14H265.096ZM274.809 14.1545C273.954 14.1545 273.215 13.9858 272.593 13.6484C271.976 13.3075 271.5 12.8228 271.166 12.1942C270.836 11.5621 270.671 10.8111 270.671 9.94105C270.671 9.09588 270.837 8.35724 271.171 7.72514C271.505 7.08949 271.976 6.59588 272.583 6.24432C273.19 5.8892 273.906 5.71165 274.729 5.71165C275.312 5.71165 275.845 5.8022 276.328 5.98331C276.81 6.16442 277.228 6.43253 277.579 6.78764C277.931 7.14276 278.204 7.58132 278.4 8.10334C278.595 8.6218 278.693 9.21662 278.693 9.88778V10.5376H271.581V9.02486H276.269C276.265 8.74787 276.2 8.50107 276.072 8.28445C275.944 8.06783 275.768 7.89915 275.544 7.77841C275.324 7.65412 275.07 7.59197 274.783 7.59197C274.492 7.59197 274.231 7.65767 274 7.78906C273.769 7.9169 273.586 8.09268 273.451 8.31641C273.316 8.53658 273.245 8.78693 273.238 9.06747V10.6069C273.238 10.9407 273.304 11.2337 273.435 11.4858C273.566 11.7344 273.753 11.9279 273.994 12.0664C274.236 12.2049 274.524 12.2741 274.857 12.2741C275.088 12.2741 275.298 12.2422 275.486 12.1783C275.674 12.1143 275.836 12.0202 275.971 11.896C276.106 11.7717 276.207 11.619 276.274 11.4379L278.666 11.5071C278.566 12.0433 278.348 12.5103 278.011 12.908C277.677 13.3022 277.238 13.6094 276.695 13.8295C276.152 14.0462 275.523 14.1545 274.809 14.1545ZM280.023 14V5.81818H282.553V7.30966H282.638C282.787 6.76989 283.031 6.36861 283.368 6.10582C283.705 5.83949 284.098 5.70632 284.545 5.70632C284.666 5.70632 284.79 5.7152 284.918 5.73295C285.046 5.74716 285.165 5.77024 285.275 5.8022V8.06605C285.151 8.02344 284.987 7.9897 284.785 7.96484C284.586 7.93999 284.409 7.92756 284.252 7.92756C283.943 7.92756 283.665 7.9968 283.416 8.1353C283.171 8.27024 282.977 8.46023 282.835 8.70526C282.697 8.94673 282.628 9.23082 282.628 9.55753V14H280.023ZM286.336 14V5.81818H288.941V14H286.336ZM287.641 4.8647C287.276 4.8647 286.961 4.74396 286.699 4.50249C286.436 4.25746 286.304 3.96271 286.304 3.61825C286.304 3.27734 286.436 2.98615 286.699 2.74467C286.961 2.49964 287.276 2.37713 287.641 2.37713C288.011 2.37713 288.325 2.49964 288.584 2.74467C288.847 2.98615 288.978 3.27734 288.978 3.61825C288.978 3.96271 288.847 4.25746 288.584 4.50249C288.325 4.74396 288.011 4.8647 287.641 4.8647ZM293.204 9.33381V14H290.599V5.81818H293.076V7.32031H293.167C293.348 6.8196 293.657 6.4272 294.093 6.14311C294.53 5.85547 295.05 5.71165 295.654 5.71165C296.229 5.71165 296.728 5.84126 297.151 6.1005C297.577 6.35618 297.907 6.71484 298.142 7.17649C298.38 7.63459 298.497 8.17081 298.493 8.78516V14H295.888V9.29652C295.892 8.84197 295.777 8.48686 295.542 8.23118C295.311 7.9755 294.99 7.84766 294.578 7.84766C294.305 7.84766 294.063 7.90803 293.854 8.02876C293.648 8.14595 293.488 8.31463 293.374 8.5348C293.264 8.75497 293.207 9.02131 293.204 9.33381ZM303.92 17.2386C303.142 17.2386 302.476 17.1303 301.922 16.9137C301.368 16.6971 300.933 16.4006 300.617 16.0241C300.301 15.6477 300.111 15.2216 300.047 14.7457L302.514 14.6072C302.56 14.7741 302.645 14.9197 302.769 15.044C302.897 15.1683 303.062 15.2642 303.265 15.3317C303.471 15.3991 303.712 15.4329 303.989 15.4329C304.426 15.4329 304.786 15.3263 305.07 15.1133C305.358 14.9038 305.502 14.5362 305.502 14.0107V12.5724H305.411C305.308 12.8246 305.152 13.0501 304.943 13.2489C304.733 13.4478 304.472 13.604 304.16 13.7177C303.851 13.8313 303.495 13.8881 303.094 13.8881C302.498 13.8881 301.951 13.7496 301.454 13.4727C300.96 13.1921 300.564 12.7589 300.266 12.1729C299.971 11.5835 299.824 10.8253 299.824 9.89844C299.824 8.94318 299.976 8.1566 300.282 7.53871C300.587 6.91726 300.987 6.45739 301.48 6.15909C301.977 5.8608 302.512 5.71165 303.084 5.71165C303.513 5.71165 303.881 5.78622 304.186 5.93537C304.495 6.08097 304.749 6.26918 304.948 6.5C305.147 6.73082 305.298 6.97053 305.401 7.2191H305.475V5.81818H308.069V14.032C308.069 14.7244 307.895 15.3086 307.547 15.7844C307.199 16.2603 306.713 16.6207 306.088 16.8658C305.463 17.1143 304.74 17.2386 303.92 17.2386ZM304 11.9918C304.316 11.9918 304.586 11.9084 304.809 11.7415C305.033 11.5746 305.205 11.3349 305.326 11.0224C305.447 10.7099 305.507 10.3352 305.507 9.89844C305.507 9.45455 305.447 9.0728 305.326 8.7532C305.209 8.43004 305.037 8.18146 304.809 8.00746C304.586 7.83345 304.316 7.74645 304 7.74645C303.677 7.74645 303.403 7.83523 303.179 8.01278C302.956 8.19034 302.785 8.4407 302.668 8.76385C302.554 9.08345 302.498 9.46165 302.498 9.89844C302.498 10.3352 302.556 10.7099 302.673 11.0224C302.791 11.3349 302.959 11.5746 303.179 11.7415C303.403 11.9084 303.677 11.9918 304 11.9918Z" fill="#4E4F3D"/>
<line x1="310" y1="8.5" x2="382" y2="8.5" stroke="#4E4F3D"/>
<line x1="462" y1="8.5" x2="534" y2="8.5" stroke="#4E4F3D"/>
<line x1="147" y1="8.5" x2="209" y2="8.5" stroke="#4E4F3D"/>
<path d="M1.76847 3.09091L5.0071 12.2741H5.13494L8.37358 3.09091H9.75852L5.75284 14H4.3892L0.383523 3.09091H1.76847ZM19.0909 14.1705C18.1854 14.1705 17.4325 13.9485 16.8324 13.5046C16.2322 13.0572 15.8629 12.4766 15.7244 11.7628L15.9588 7.69318C16.2251 7.07528 16.6104 6.59055 17.1147 6.23899C17.6225 5.88743 18.2386 5.71165 18.9631 5.71165C19.3892 5.71165 19.81 5.78267 20.2255 5.92472C20.641 6.06676 21.0192 6.29759 21.3601 6.61719C21.701 6.93324 21.9727 7.35227 22.1751 7.87429C22.3775 8.39631 22.4787 9.03906 22.4787 9.80256V10.3352H16.1719V9.24858H21.2003C21.2003 8.78693 21.108 8.375 20.9233 8.01278C20.7422 7.65057 20.483 7.3647 20.1456 7.15518C19.8118 6.94567 19.4176 6.84091 18.9631 6.84091C18.4624 6.84091 18.0291 6.9652 17.6634 7.21378C17.3011 7.45881 17.0224 7.78018 16.8271 8.17791C16.6317 8.57209 16.5341 8.9929 16.5341 9.44034V10.1648C16.5341 10.7827 16.6424 11.3065 16.859 11.7362C17.0756 12.1623 17.3757 12.4872 17.7592 12.7109C18.1428 12.9311 18.5866 13.0412 19.0909 13.0412C19.4212 13.0412 19.7195 12.995 19.9858 12.9027C20.2557 12.8068 20.4883 12.6648 20.6836 12.4766C20.8789 12.2848 21.0298 12.0469 21.1364 11.7628L22.3509 12.1037C22.223 12.5156 22.0082 12.8778 21.7063 13.1903C21.4045 13.4993 21.0316 13.7408 20.5877 13.9148C20.1438 14.0852 19.6449 14.1705 19.0909 14.1705ZM13.125 13.0625C13.6222 13.0625 14.0412 12.9648 14.3821 12.7695C14.7266 12.5742 14.9858 12.3221 15.1598 12.0131C15.3374 11.7042 15.4261 11.3793 15.4261 11.0384V9.88778C15.3729 9.9517 15.2557 10.0103 15.0746 10.0636C14.897 10.1133 14.6911 10.1577 14.4567 10.1967C14.2259 10.2322 14.0004 10.2642 13.7802 10.2926C13.5636 10.3175 13.3878 10.3388 13.2528 10.3565C12.9261 10.3991 12.6207 10.4684 12.3366 10.5643C12.0561 10.6566 11.8288 10.7969 11.6548 10.9851C11.4844 11.1697 11.3991 11.4219 11.3991 11.7415C11.3991 12.1783 11.5607 12.5085 11.8839 12.7322C12.2106 12.9524 12.6243 13.0625 13.125 13.0625ZM12.9332 14.1918C12.4148 14.1918 11.9442 14.0941 11.5217 13.8988C11.0991 13.6999 10.7635 13.4141 10.5149 13.0412C10.2663 12.6648 10.142 12.2102 10.142 11.6776C10.142 11.2088 10.2344 10.8288 10.419 10.5376C10.6072 10.2429 10.854 10.0121 11.1594 9.84517C11.4684 9.67472 11.8111 9.54865 12.1875 9.46697C12.5639 9.38175 12.9403 9.31605 13.3168 9.26989C13.8139 9.20597 14.217 9.15625 14.5259 9.12074C14.8384 9.08523 15.0657 9.02663 15.2077 8.94496C15.3533 8.86328 15.4261 8.72301 15.4261 8.52415V8.48153C15.4261 7.95952 15.2823 7.55291 14.9947 7.26172C14.707 6.96697 14.2756 6.8196 13.7003 6.8196C13.1037 6.8196 12.6332 6.95099 12.2887 7.21378C11.9478 7.47656 11.7081 7.7571 11.5696 8.0554L10.3764 7.62926C10.5895 7.1321 10.8736 6.74503 11.2287 6.46804C11.5874 6.1875 11.978 5.99219 12.4006 5.8821C12.8267 5.76847 13.2457 5.71165 13.6577 5.71165C13.8778 5.71165 14.1264 5.73295 14.4034 5.77557C14.6804 5.81463 14.9592 5.89453 15.2397 6.01527C15.5202 6.13601 15.7759 6.31534 16.0067 6.55327C16.2376 6.79119 16.4134 7.10724 16.5341 7.50142L16.044 12.5085H15.9375C15.831 12.8139 15.6303 13.0945 15.3356 13.3501C15.0444 13.6058 14.6893 13.81 14.2702 13.9627C13.8548 14.1154 13.4091 14.1918 12.9332 14.1918ZM25.6547 3.09091V14H24.3976V3.09091H25.6547ZM31.2598 17.2386C30.6525 17.2386 30.1305 17.1605 29.6937 17.0043C29.2569 16.8516 28.8929 16.6491 28.6017 16.397C28.3141 16.1484 28.085 15.8821 27.9146 15.598L28.916 14.8949C29.0297 15.044 29.1735 15.2145 29.3475 15.4062C29.5215 15.6016 29.7594 15.7702 30.0613 15.9123C30.3667 16.0579 30.7662 16.1307 31.2598 16.1307C31.9203 16.1307 32.4654 15.9709 32.8951 15.6513C33.3248 15.3317 33.5396 14.831 33.5396 14.1491V12.4872H33.4331C33.3407 12.6364 33.2093 12.821 33.0389 13.0412C32.872 13.2578 32.6305 13.4513 32.3145 13.6218C32.002 13.7887 31.5794 13.8722 31.0467 13.8722C30.3862 13.8722 29.7931 13.7159 29.2676 13.4034C28.7456 13.0909 28.3319 12.6364 28.0265 12.0398C27.7246 11.4432 27.5737 10.7187 27.5737 9.86648C27.5737 9.02841 27.7211 8.29865 28.0158 7.6772C28.3105 7.0522 28.7207 6.56925 29.2463 6.22834C29.7718 5.88388 30.3791 5.71165 31.068 5.71165C31.6007 5.71165 32.0233 5.80043 32.3358 5.97798C32.6518 6.15199 32.8933 6.35085 33.0602 6.57457C33.2306 6.79474 33.362 6.97585 33.4544 7.1179H33.5822V5.81818H34.7967V14.2344C34.7967 14.9375 34.6369 15.5092 34.3173 15.9496C34.0012 16.3935 33.5751 16.7184 33.0389 16.9244C32.5062 17.1339 31.9132 17.2386 31.2598 17.2386ZM31.2172 12.7429C31.7214 12.7429 32.1475 12.6275 32.4956 12.3967C32.8436 12.1658 33.1081 11.8338 33.2892 11.4006C33.4703 10.9673 33.5609 10.4489 33.5609 9.84517C33.5609 9.25568 33.4721 8.73544 33.2946 8.28445C33.117 7.83345 32.8542 7.48011 32.5062 7.22443C32.1582 6.96875 31.7285 6.84091 31.2172 6.84091C30.6845 6.84091 30.2406 6.97585 29.8855 7.24574C29.5339 7.51562 29.2694 7.87784 29.0918 8.33239C28.9178 8.78693 28.8308 9.29119 28.8308 9.84517C28.8308 10.4134 28.9196 10.9158 29.0971 11.3526C29.2782 11.7859 29.5446 12.1268 29.8961 12.3754C30.2512 12.6204 30.6916 12.7429 31.2172 12.7429ZM41.3166 14V5.81818H42.5311V7.09659H42.6376C42.8081 6.6598 43.0833 6.32067 43.4632 6.07919C43.8432 5.83416 44.2995 5.71165 44.8322 5.71165C45.372 5.71165 45.8212 5.83416 46.1799 6.07919C46.5421 6.32067 46.8244 6.6598 47.0268 7.09659H47.112C47.3216 6.67401 47.6358 6.33842 48.0549 6.08984C48.4739 5.83771 48.9764 5.71165 49.5623 5.71165C50.2939 5.71165 50.8922 5.9407 51.3574 6.39879C51.8226 6.85334 52.0552 7.56179 52.0552 8.52415V14H50.7981V8.52415C50.7981 7.92045 50.633 7.48899 50.3027 7.22976C49.9725 6.97053 49.5836 6.84091 49.1362 6.84091C48.5609 6.84091 48.1152 7.01491 47.7992 7.36293C47.4831 7.70739 47.3251 8.14418 47.3251 8.6733V14H46.0467V8.39631C46.0467 7.93111 45.8958 7.55646 45.5939 7.27237C45.2921 6.98473 44.9032 6.84091 44.4274 6.84091C44.1007 6.84091 43.7953 6.92791 43.5112 7.10192C43.2306 7.27592 43.0034 7.5174 42.8294 7.82635C42.6589 8.13175 42.5737 8.48509 42.5737 8.88636V14H41.3166ZM56.7614 14.1918C56.2429 14.1918 55.7724 14.0941 55.3498 13.8988C54.9272 13.6999 54.5916 13.4141 54.343 13.0412C54.0945 12.6648 53.9702 12.2102 53.9702 11.6776C53.9702 11.2088 54.0625 10.8288 54.2472 10.5376C54.4318 10.2429 54.6786 10.0121 54.9876 9.84517C55.2965 9.67827 55.6374 9.55398 56.0103 9.4723C56.3867 9.38707 56.7649 9.3196 57.1449 9.26989C57.642 9.20597 58.0451 9.15803 58.354 9.12607C58.6665 9.09055 58.8938 9.03196 59.0359 8.95028C59.1815 8.86861 59.2543 8.72656 59.2543 8.52415V8.48153C59.2543 7.95597 59.1104 7.54759 58.8228 7.25639C58.5387 6.9652 58.1072 6.8196 57.5284 6.8196C56.9283 6.8196 56.4577 6.95099 56.1168 7.21378C55.7759 7.47656 55.5362 7.7571 55.3977 8.0554L54.2045 7.62926C54.4176 7.1321 54.7017 6.74503 55.0568 6.46804C55.4155 6.1875 55.8061 5.99219 56.2287 5.8821C56.6548 5.76847 57.0739 5.71165 57.4858 5.71165C57.7486 5.71165 58.0504 5.74361 58.3913 5.80753C58.7358 5.8679 59.0678 5.99396 59.3874 6.18572C59.7106 6.37749 59.9787 6.6669 60.1918 7.05398C60.4048 7.44105 60.5114 7.95952 60.5114 8.60938V14H59.2543V12.892H59.1903C59.1051 13.0696 58.9631 13.2596 58.7642 13.462C58.5653 13.6644 58.3008 13.8366 57.9705 13.9787C57.6403 14.1207 57.2372 14.1918 56.7614 14.1918ZM56.9531 13.0625C57.4503 13.0625 57.8693 12.9648 58.2102 12.7695C58.5547 12.5742 58.8139 12.3221 58.9879 12.0131C59.1655 11.7042 59.2543 11.3793 59.2543 11.0384V9.88778C59.201 9.9517 59.0838 10.0103 58.9027 10.0636C58.7251 10.1133 58.5192 10.1577 58.2848 10.1967C58.054 10.2322 57.8285 10.2642 57.6083 10.2926C57.3917 10.3175 57.2159 10.3388 57.081 10.3565C56.7543 10.3991 56.4489 10.4684 56.1648 10.5643C55.8842 10.6566 55.657 10.7969 55.483 10.9851C55.3125 11.1697 55.2273 11.4219 55.2273 11.7415C55.2273 12.1783 55.3888 12.5085 55.712 12.7322C56.0387 12.9524 56.4524 13.0625 56.9531 13.0625ZM57.571 4.90199C57.2088 4.90199 56.8803 4.82209 56.5856 4.66229C56.2944 4.50249 56.0618 4.28587 55.8878 4.01243C55.7173 3.73899 55.6321 3.43182 55.6321 3.09091C55.6321 2.75 55.7173 2.4375 55.8878 2.15341C56.0618 1.86932 56.2944 1.64204 56.5856 1.47159C56.8803 1.30114 57.2088 1.21591 57.571 1.21591C57.9332 1.21591 58.2582 1.30114 58.5458 1.47159C58.837 1.64204 59.0661 1.86932 59.233 2.15341C59.4034 2.4375 59.4886 2.75 59.4886 3.09091C59.4886 3.43182 59.4034 3.73899 59.233 4.01243C59.0661 4.28587 58.837 4.50249 58.5458 4.66229C58.2582 4.82209 57.9332 4.90199 57.571 4.90199ZM57.571 4.09233C57.8693 4.09233 58.1143 3.98935 58.3061 3.78338C58.4979 3.57741 58.5938 3.34659 58.5938 3.09091C58.5938 2.82457 58.4979 2.58487 58.3061 2.3718C58.1143 2.15518 57.8693 2.04688 57.571 2.04688C57.2727 2.04688 57.0277 2.15518 56.8359 2.3718C56.6442 2.58487 56.5483 2.82457 56.5483 3.09091C56.5483 3.34659 56.6442 3.57741 56.8359 3.78338C57.0277 3.98935 57.2727 4.09233 57.571 4.09233ZM64.0629 3.09091V14H62.8058V3.09091H64.0629ZM69.9237 5.81818V6.88352H65.6836V5.81818H69.9237ZM66.9194 3.85795H68.1765V11.6562C68.1765 12.0114 68.228 12.2777 68.331 12.4553C68.4375 12.6293 68.5724 12.7464 68.7358 12.8068C68.9027 12.8636 69.0785 12.892 69.2631 12.892C69.4016 12.892 69.5153 12.8849 69.604 12.8707C69.6928 12.853 69.7638 12.8388 69.8171 12.8281L70.0728 13.9574C69.9876 13.9893 69.8686 14.0213 69.7159 14.0533C69.5632 14.0888 69.3697 14.1065 69.1353 14.1065C68.7802 14.1065 68.4322 14.0302 68.0913 13.8775C67.7539 13.7248 67.4734 13.4922 67.2496 13.1797C67.0295 12.8672 66.9194 12.473 66.9194 11.9972V3.85795ZM71.8146 14V5.81818H73.0717V14H71.8146ZM72.4538 4.45455C72.2088 4.45455 71.9975 4.37109 71.82 4.20419C71.646 4.03729 71.5589 3.83665 71.5589 3.60227C71.5589 3.3679 71.646 3.16726 71.82 3.00035C71.9975 2.83345 72.2088 2.75 72.4538 2.75C72.6989 2.75 72.9084 2.83345 73.0824 3.00035C73.2599 3.16726 73.3487 3.3679 73.3487 3.60227C73.3487 3.83665 73.2599 4.03729 73.0824 4.20419C72.9084 4.37109 72.6989 4.45455 72.4538 4.45455ZM78.4637 14.1705C77.7819 14.1705 77.18 13.9982 76.6579 13.6538C76.1359 13.3058 75.7275 12.8157 75.4328 12.1836C75.1381 11.5479 74.9907 10.7969 74.9907 9.9304C74.9907 9.07102 75.1381 8.32528 75.4328 7.69318C75.7275 7.06108 76.1377 6.5728 76.6633 6.22834C77.1888 5.88388 77.7961 5.71165 78.485 5.71165C79.0177 5.71165 79.4385 5.80043 79.7474 5.97798C80.0599 6.15199 80.2979 6.35085 80.4612 6.57457C80.6281 6.79474 80.7577 6.97585 80.8501 7.1179H80.9566V3.09091H82.2137V14H80.9992V12.7429H80.8501C80.7577 12.892 80.6263 13.0803 80.4559 13.3075C80.2854 13.5312 80.0422 13.7319 79.7261 13.9094C79.4101 14.0835 78.9893 14.1705 78.4637 14.1705ZM78.6341 13.0412C79.1384 13.0412 79.5645 12.9098 79.9126 12.647C80.2606 12.3807 80.5251 12.0131 80.7062 11.5444C80.8873 11.0721 80.9779 10.527 80.9779 9.90909C80.9779 9.2983 80.8891 8.76385 80.7116 8.30575C80.534 7.84411 80.2712 7.48544 79.9232 7.22976C79.5752 6.97053 79.1455 6.84091 78.6341 6.84091C78.1015 6.84091 77.6576 6.97763 77.3025 7.25107C76.9509 7.52095 76.6863 7.88849 76.5088 8.35369C76.3348 8.81534 76.2478 9.33381 76.2478 9.90909C76.2478 10.4915 76.3366 11.0206 76.5141 11.4964C76.6952 11.9687 76.9616 12.3452 77.3131 12.6257C77.6682 12.9027 78.1086 13.0412 78.6341 13.0412ZM90.4861 7.65057L89.3568 7.97017C89.2858 7.78196 89.181 7.59908 89.0425 7.42152C88.9076 7.24041 88.7229 7.09126 88.4885 6.97408C88.2542 6.85689 87.9541 6.7983 87.5883 6.7983C87.0876 6.7983 86.6704 6.91371 86.3366 7.14453C86.0063 7.3718 85.8412 7.66122 85.8412 8.01278C85.8412 8.32528 85.9548 8.57209 86.1821 8.7532C86.4094 8.9343 86.7645 9.08523 87.2474 9.20597L88.4619 9.50426C89.1934 9.68182 89.7385 9.95348 90.0972 10.3192C90.4559 10.6815 90.6352 11.1484 90.6352 11.7202C90.6352 12.1889 90.5003 12.608 90.2304 12.9773C89.964 13.3466 89.5912 13.6378 89.1118 13.8509C88.6324 14.0639 88.0748 14.1705 87.4392 14.1705C86.6047 14.1705 85.914 13.9893 85.3671 13.6271C84.8202 13.2649 84.474 12.7358 84.3284 12.0398L85.5216 11.7415C85.6352 12.1818 85.8501 12.5121 86.1661 12.7322C86.4857 12.9524 86.903 13.0625 87.4179 13.0625C88.0038 13.0625 88.469 12.9382 88.8135 12.6896C89.1615 12.4375 89.3355 12.1357 89.3355 11.7841C89.3355 11.5 89.2361 11.2621 89.0372 11.0703C88.8383 10.875 88.5329 10.7294 88.121 10.6335L86.7574 10.3139C86.0081 10.1364 85.4577 9.86115 85.1061 9.48828C84.7581 9.11186 84.5841 8.64134 84.5841 8.0767C84.5841 7.61506 84.7137 7.20668 84.9729 6.85156C85.2357 6.49645 85.5926 6.21768 86.0436 6.01527C86.4981 5.81286 87.0131 5.71165 87.5883 5.71165C88.398 5.71165 89.0336 5.8892 89.4953 6.24432C89.9605 6.59943 90.2907 7.06818 90.4861 7.65057ZM93.6994 11.017L93.6781 9.46165H93.9338L97.5133 5.81818H99.0687L95.2548 9.67472H95.1483L93.6994 11.017ZM92.5275 14V3.09091H93.7846V14H92.5275ZM97.7264 14L94.5304 9.9517L95.4252 9.07812L99.3244 14H97.7264ZM103.094 14.1918C102.576 14.1918 102.105 14.0941 101.683 13.8988C101.26 13.6999 100.925 13.4141 100.676 13.0412C100.427 12.6648 100.303 12.2102 100.303 11.6776C100.303 11.2088 100.396 10.8288 100.58 10.5376C100.765 10.2429 101.012 10.0121 101.321 9.84517C101.63 9.67827 101.97 9.55398 102.343 9.4723C102.72 9.38707 103.098 9.3196 103.478 9.26989C103.975 9.20597 104.378 9.15803 104.687 9.12607C105 9.09055 105.227 9.03196 105.369 8.95028C105.514 8.86861 105.587 8.72656 105.587 8.52415V8.48153C105.587 7.95597 105.443 7.54759 105.156 7.25639C104.872 6.9652 104.44 6.8196 103.861 6.8196C103.261 6.8196 102.791 6.95099 102.45 7.21378C102.109 7.47656 101.869 7.7571 101.731 8.0554L100.538 7.62926C100.751 7.1321 101.035 6.74503 101.39 6.46804C101.748 6.1875 102.139 5.99219 102.562 5.8821C102.988 5.76847 103.407 5.71165 103.819 5.71165C104.082 5.71165 104.383 5.74361 104.724 5.80753C105.069 5.8679 105.401 5.99396 105.72 6.18572C106.044 6.37749 106.312 6.6669 106.525 7.05398C106.738 7.44105 106.844 7.95952 106.844 8.60938V14H105.587V12.892H105.523C105.438 13.0696 105.296 13.2596 105.097 13.462C104.898 13.6644 104.634 13.8366 104.304 13.9787C103.973 14.1207 103.57 14.1918 103.094 14.1918ZM103.286 13.0625C103.783 13.0625 104.202 12.9648 104.543 12.7695C104.888 12.5742 105.147 12.3221 105.321 12.0131C105.498 11.7042 105.587 11.3793 105.587 11.0384V9.88778C105.534 9.9517 105.417 10.0103 105.236 10.0636C105.058 10.1133 104.852 10.1577 104.618 10.1967C104.387 10.2322 104.161 10.2642 103.941 10.2926C103.725 10.3175 103.549 10.3388 103.414 10.3565C103.087 10.3991 102.782 10.4684 102.498 10.5643C102.217 10.6566 101.99 10.7969 101.816 10.9851C101.646 11.1697 101.56 11.4219 101.56 11.7415C101.56 12.1783 101.722 12.5085 102.045 12.7322C102.372 12.9524 102.785 13.0625 103.286 13.0625ZM114.934 7.65057L113.805 7.97017C113.734 7.78196 113.629 7.59908 113.491 7.42152C113.356 7.24041 113.171 7.09126 112.937 6.97408C112.702 6.85689 112.402 6.7983 112.037 6.7983C111.536 6.7983 111.119 6.91371 110.785 7.14453C110.455 7.3718 110.289 7.66122 110.289 8.01278C110.289 8.32528 110.403 8.57209 110.63 8.7532C110.858 8.9343 111.213 9.08523 111.696 9.20597L112.91 9.50426C113.642 9.68182 114.187 9.95348 114.545 10.3192C114.904 10.6815 115.083 11.1484 115.083 11.7202C115.083 12.1889 114.949 12.608 114.679 12.9773C114.412 13.3466 114.039 13.6378 113.56 13.8509C113.081 14.0639 112.523 14.1705 111.887 14.1705C111.053 14.1705 110.362 13.9893 109.815 13.6271C109.268 13.2649 108.922 12.7358 108.777 12.0398L109.97 11.7415C110.083 12.1818 110.298 12.5121 110.614 12.7322C110.934 12.9524 111.351 13.0625 111.866 13.0625C112.452 13.0625 112.917 12.9382 113.262 12.6896C113.61 12.4375 113.784 12.1357 113.784 11.7841C113.784 11.5 113.684 11.2621 113.485 11.0703C113.287 10.875 112.981 10.7294 112.569 10.6335L111.206 10.3139C110.456 10.1364 109.906 9.86115 109.554 9.48828C109.206 9.11186 109.032 8.64134 109.032 8.0767C109.032 7.61506 109.162 7.20668 109.421 6.85156C109.684 6.49645 110.041 6.21768 110.492 6.01527C110.946 5.81286 111.461 5.71165 112.037 5.71165C112.846 5.71165 113.482 5.8892 113.944 6.24432C114.409 6.59943 114.739 7.06818 114.934 7.65057ZM122.771 7.65057L121.642 7.97017C121.571 7.78196 121.466 7.59908 121.328 7.42152C121.193 7.24041 121.008 7.09126 120.774 6.97408C120.539 6.85689 120.239 6.7983 119.873 6.7983C119.373 6.7983 118.956 6.91371 118.622 7.14453C118.291 7.3718 118.126 7.66122 118.126 8.01278C118.126 8.32528 118.24 8.57209 118.467 8.7532C118.695 8.9343 119.05 9.08523 119.533 9.20597L120.747 9.50426C121.479 9.68182 122.024 9.95348 122.382 10.3192C122.741 10.6815 122.92 11.1484 122.92 11.7202C122.92 12.1889 122.785 12.608 122.516 12.9773C122.249 13.3466 121.876 13.6378 121.397 13.8509C120.918 14.0639 120.36 14.1705 119.724 14.1705C118.89 14.1705 118.199 13.9893 117.652 13.6271C117.105 13.2649 116.759 12.7358 116.614 12.0398L117.807 11.7415C117.92 12.1818 118.135 12.5121 118.451 12.7322C118.771 12.9524 119.188 13.0625 119.703 13.0625C120.289 13.0625 120.754 12.9382 121.099 12.6896C121.447 12.4375 121.621 12.1357 121.621 11.7841C121.621 11.5 121.521 11.2621 121.322 11.0703C121.123 10.875 120.818 10.7294 120.406 10.6335L119.043 10.3139C118.293 10.1364 117.743 9.86115 117.391 9.48828C117.043 9.11186 116.869 8.64134 116.869 8.0767C116.869 7.61506 116.999 7.20668 117.258 6.85156C117.521 6.49645 117.878 6.21768 118.329 6.01527C118.783 5.81286 119.298 5.71165 119.873 5.71165C120.683 5.71165 121.319 5.8892 121.78 6.24432C122.246 6.59943 122.576 7.06818 122.771 7.65057ZM128.243 14.1705C127.455 14.1705 126.775 13.9964 126.203 13.6484C125.635 13.2969 125.196 12.8068 124.887 12.1783C124.582 11.5462 124.429 10.8111 124.429 9.97301C124.429 9.13494 124.582 8.39631 124.887 7.7571C125.196 7.11435 125.626 6.61364 126.176 6.25497C126.73 5.89276 127.377 5.71165 128.115 5.71165C128.541 5.71165 128.962 5.78267 129.378 5.92472C129.793 6.06676 130.171 6.29759 130.512 6.61719C130.853 6.93324 131.125 7.35227 131.327 7.87429C131.53 8.39631 131.631 9.03906 131.631 9.80256V10.3352H125.324V9.24858H130.352C130.352 8.78693 130.26 8.375 130.075 8.01278C129.894 7.65057 129.635 7.3647 129.298 7.15518C128.964 6.94567 128.57 6.84091 128.115 6.84091C127.615 6.84091 127.181 6.9652 126.816 7.21378C126.453 7.45881 126.175 7.77841 125.979 8.17258C125.784 8.56676 125.686 8.98935 125.686 9.44034V10.1648C125.686 10.7827 125.793 11.3065 126.006 11.7362C126.222 12.1623 126.523 12.4872 126.906 12.7109C127.29 12.9311 127.735 13.0412 128.243 13.0412C128.573 13.0412 128.872 12.995 129.138 12.9027C129.408 12.8068 129.64 12.6648 129.836 12.4766C130.031 12.2848 130.182 12.0469 130.289 11.7628L131.503 12.1037C131.375 12.5156 131.16 12.8778 130.858 13.1903C130.557 13.4993 130.184 13.7408 129.74 13.9148C129.296 14.0852 128.797 14.1705 128.243 14.1705Z" fill="#4E4F3D"/>
<path d="M390.321 14V3.09091H391.642V12.8281H396.713V14H390.321ZM402.018 14.1705C401.23 14.1705 400.55 13.9964 399.978 13.6484C399.41 13.2969 398.972 12.8068 398.663 12.1783C398.357 11.5462 398.205 10.8111 398.205 9.97301C398.205 9.13494 398.357 8.39631 398.663 7.7571C398.972 7.11435 399.401 6.61364 399.952 6.25497C400.506 5.89276 401.152 5.71165 401.891 5.71165C402.317 5.71165 402.738 5.78267 403.153 5.92472C403.569 6.06676 403.947 6.29759 404.288 6.61719C404.629 6.93324 404.9 7.35227 405.103 7.87429C405.305 8.39631 405.406 9.03906 405.406 9.80256V10.3352H399.099V9.24858H404.128C404.128 8.78693 404.036 8.375 403.851 8.01278C403.67 7.65057 403.411 7.3647 403.073 7.15518C402.739 6.94567 402.345 6.84091 401.891 6.84091C401.39 6.84091 400.957 6.9652 400.591 7.21378C400.229 7.45881 399.95 7.77841 399.755 8.17258C399.559 8.56676 399.462 8.98935 399.462 9.44034V10.1648C399.462 10.7827 399.568 11.3065 399.781 11.7362C399.998 12.1623 400.298 12.4872 400.681 12.7109C401.065 12.9311 401.511 13.0412 402.018 13.0412C402.349 13.0412 402.647 12.995 402.913 12.9027C403.183 12.8068 403.416 12.6648 403.611 12.4766C403.806 12.2848 403.957 12.0469 404.064 11.7628L405.278 12.1037C405.151 12.5156 404.936 12.8778 404.634 13.1903C404.332 13.4993 403.959 13.7408 403.515 13.9148C403.071 14.0852 402.572 14.1705 402.018 14.1705ZM413.76 5.81818L410.734 14H409.456L406.43 5.81818H407.794L410.052 12.3381H410.138L412.396 5.81818H413.76ZM418.557 14.1705C417.768 14.1705 417.088 13.9964 416.516 13.6484C415.948 13.2969 415.51 12.8068 415.201 12.1783C414.895 11.5462 414.743 10.8111 414.743 9.97301C414.743 9.13494 414.895 8.39631 415.201 7.7571C415.51 7.11435 415.939 6.61364 416.49 6.25497C417.044 5.89276 417.69 5.71165 418.429 5.71165C418.855 5.71165 419.276 5.78267 419.691 5.92472C420.107 6.06676 420.485 6.29759 420.826 6.61719C421.167 6.93324 421.438 7.35227 421.641 7.87429C421.843 8.39631 421.944 9.03906 421.944 9.80256V10.3352H415.638V9.24858H420.666C420.666 8.78693 420.574 8.375 420.389 8.01278C420.208 7.65057 419.949 7.3647 419.611 7.15518C419.277 6.94567 418.883 6.84091 418.429 6.84091C417.928 6.84091 417.495 6.9652 417.129 7.21378C416.767 7.45881 416.488 7.77841 416.293 8.17258C416.097 8.56676 416 8.98935 416 9.44034V10.1648C416 10.7827 416.106 11.3065 416.319 11.7362C416.536 12.1623 416.836 12.4872 417.22 12.7109C417.603 12.9311 418.049 13.0412 418.557 13.0412C418.887 13.0412 419.185 12.995 419.451 12.9027C419.721 12.8068 419.954 12.6648 420.149 12.4766C420.345 12.2848 420.495 12.0469 420.602 11.7628L421.816 12.1037C421.689 12.5156 421.474 12.8778 421.172 13.1903C420.87 13.4993 420.497 13.7408 420.053 13.9148C419.609 14.0852 419.111 14.1705 418.557 14.1705ZM423.857 14V5.81818H425.071V7.05398H425.156C425.305 6.64915 425.575 6.32067 425.966 6.06854C426.357 5.81641 426.797 5.69034 427.287 5.69034C427.379 5.69034 427.495 5.69212 427.633 5.69567C427.772 5.69922 427.877 5.70455 427.948 5.71165V6.99006C427.905 6.9794 427.807 6.96342 427.655 6.94212C427.505 6.91726 427.347 6.90483 427.18 6.90483C426.783 6.90483 426.428 6.98828 426.115 7.15518C425.806 7.31854 425.561 7.54581 425.38 7.837C425.203 8.12464 425.114 8.45312 425.114 8.82244V14H423.857ZM429.438 14V5.81818H430.695V14H429.438ZM430.077 4.45455C429.832 4.45455 429.621 4.37109 429.443 4.20419C429.269 4.03729 429.182 3.83665 429.182 3.60227C429.182 3.3679 429.269 3.16726 429.443 3.00035C429.621 2.83345 429.832 2.75 430.077 2.75C430.322 2.75 430.531 2.83345 430.705 3.00035C430.883 3.16726 430.972 3.3679 430.972 3.60227C430.972 3.83665 430.883 4.03729 430.705 4.20419C430.531 4.37109 430.322 4.45455 430.077 4.45455ZM434.254 9.07812V14H432.997V5.81818H434.212V7.09659H434.318C434.51 6.68111 434.801 6.3473 435.192 6.09517C435.582 5.83949 436.087 5.71165 436.705 5.71165C437.259 5.71165 437.743 5.82528 438.159 6.05256C438.574 6.27628 438.897 6.61719 439.128 7.07528C439.359 7.52983 439.475 8.10511 439.475 8.80114V14H438.217V8.88636C438.217 8.24361 438.051 7.7429 437.717 7.38423C437.383 7.02202 436.925 6.84091 436.342 6.84091C435.941 6.84091 435.582 6.92791 435.266 7.10192C434.954 7.27592 434.707 7.52983 434.526 7.86364C434.345 8.19744 434.254 8.60227 434.254 9.07812ZM445.074 17.2386C444.467 17.2386 443.945 17.1605 443.508 17.0043C443.071 16.8516 442.707 16.6491 442.416 16.397C442.129 16.1484 441.9 15.8821 441.729 15.598L442.73 14.8949C442.844 15.044 442.988 15.2145 443.162 15.4062C443.336 15.6016 443.574 15.7702 443.876 15.9123C444.181 16.0579 444.581 16.1307 445.074 16.1307C445.735 16.1307 446.28 15.9709 446.71 15.6513C447.139 15.3317 447.354 14.831 447.354 14.1491V12.4872H447.248C447.155 12.6364 447.024 12.821 446.853 13.0412C446.686 13.2578 446.445 13.4513 446.129 13.6218C445.816 13.7887 445.394 13.8722 444.861 13.8722C444.201 13.8722 443.608 13.7159 443.082 13.4034C442.56 13.0909 442.146 12.6364 441.841 12.0398C441.539 11.4432 441.388 10.7187 441.388 9.86648C441.388 9.02841 441.536 8.29865 441.83 7.6772C442.125 7.0522 442.535 6.56925 443.061 6.22834C443.586 5.88388 444.194 5.71165 444.882 5.71165C445.415 5.71165 445.838 5.80043 446.15 5.97798C446.466 6.15199 446.708 6.35085 446.875 6.57457C447.045 6.79474 447.176 6.97585 447.269 7.1179H447.397V5.81818H448.611V14.2344C448.611 14.9375 448.451 15.5092 448.132 15.9496C447.816 16.3935 447.39 16.7184 446.853 16.9244C446.321 17.1339 445.728 17.2386 445.074 17.2386ZM445.032 12.7429C445.536 12.7429 445.962 12.6275 446.31 12.3967C446.658 12.1658 446.923 11.8338 447.104 11.4006C447.285 10.9673 447.375 10.4489 447.375 9.84517C447.375 9.25568 447.287 8.73544 447.109 8.28445C446.931 7.83345 446.669 7.48011 446.321 7.22443C445.973 6.96875 445.543 6.84091 445.032 6.84091C444.499 6.84091 444.055 6.97585 443.7 7.24574C443.348 7.51562 443.084 7.87784 442.906 8.33239C442.732 8.78693 442.645 9.29119 442.645 9.84517C442.645 10.4134 442.734 10.9158 442.912 11.3526C443.093 11.7859 443.359 12.1268 443.711 12.3754C444.066 12.6204 444.506 12.7429 445.032 12.7429Z" fill="#4E4F3D"/>
</svg>
