<svg width="157" height="157" viewBox="0 0 157 157" fill="none" xmlns="http://www.w3.org/2000/svg">
<mask id="mask0_300_2175" style="mask-type:luminance" maskUnits="userSpaceOnUse" x="13" y="19" width="135" height="129">
<path fill-rule="evenodd" clip-rule="evenodd" d="M13.084 19.625H147.008V147.194H13.084V19.625Z" fill="white"/>
</mask>
<g mask="url(#mask0_300_2175)">
<path fill-rule="evenodd" clip-rule="evenodd" d="M25.0137 79.3054C34.1852 107.84 70.4195 130.913 80.0488 136.623C89.7108 130.854 126.207 107.526 135.084 79.3316C140.912 61.1065 135.503 38.0209 114.007 31.0933C103.592 27.7505 91.4444 29.785 83.058 36.2743C81.3048 37.6219 78.8713 37.6481 77.105 36.3136C68.2215 29.6345 56.6165 27.6786 46.0387 31.0933C24.5755 38.0144 19.1851 61.0999 25.0137 79.3054M80.0553 147.195C79.2442 147.195 78.4395 146.999 77.7069 146.6C75.6593 145.481 27.4276 118.896 15.6722 82.3015C15.6657 82.3015 15.6657 82.2949 15.6657 82.2949C8.28671 59.2552 16.503 30.3018 43.0295 21.7518C55.4848 17.7221 69.0588 19.4949 80.0357 26.4226C90.6725 19.6977 104.802 17.8399 117.009 21.7518C143.562 30.3149 151.804 59.2617 144.432 82.2949C133.056 118.47 84.471 145.455 82.4103 146.586C81.6777 146.992 80.8665 147.195 80.0553 147.195" fill="#4E4F3D"/>
</g>
<path fill-rule="evenodd" clip-rule="evenodd" d="M118.757 69.5045C116.225 69.5045 114.08 67.5616 113.87 64.9972C113.439 59.62 109.841 55.0801 104.719 53.425C102.135 52.5877 100.722 49.8206 101.552 47.2497C102.396 44.6723 105.137 43.2724 107.728 44.0835C116.644 46.9684 122.891 54.8642 123.657 64.1992C123.873 66.9009 121.864 69.269 119.163 69.4848C119.025 69.4979 118.894 69.5045 118.757 69.5045" fill="#4E4F3D"/>
</svg>
