<svg width="139" height="139" viewBox="0 0 139 139" fill="none" xmlns="http://www.w3.org/2000/svg">
<circle cx="69.5" cy="69.5" r="69.5" fill="#AFB1B6"/>
<circle cx="69.5" cy="69.5" r="69.5" fill="#AFB1B6"/>
<circle cx="69.5" cy="69.5" r="69.5" fill="#A3A276"/>
<mask id="mask0_301_2170" style="mask-type:luminance" maskUnits="userSpaceOnUse" x="39" y="38" width="61" height="64">
<path fill-rule="evenodd" clip-rule="evenodd" d="M39.834 38.917H99.6251V101.64H39.834V38.917Z" fill="white"/>
</mask>
<g mask="url(#mask0_301_2170)">
<path fill-rule="evenodd" clip-rule="evenodd" d="M74.0086 80.5998C77.5202 80.5998 80.3786 83.4377 80.3786 86.9261V95.8977C80.3786 96.6473 80.9794 97.2481 81.7494 97.2656H87.3086C91.6894 97.2656 95.2506 93.7481 95.2506 89.4256V63.9806C95.2302 62.4931 94.5215 61.0931 93.3052 60.1627L74.0756 44.8269C71.4944 42.7823 67.8836 42.7823 65.2936 44.8327L46.1952 60.1569C44.9323 61.1165 44.2236 62.5165 44.209 64.0302V89.4256C44.209 93.7481 47.7702 97.2656 52.1511 97.2656H57.7627C58.5532 97.2656 59.1948 96.6386 59.1948 95.8686C59.1948 95.6994 59.2152 95.5302 59.2502 95.3698V86.9261C59.2502 83.4581 62.0911 80.6231 65.5765 80.5998H74.0086ZM87.3086 101.641H81.6969C78.4827 101.565 76.0036 99.0419 76.0036 95.8977V86.9261C76.0036 85.8498 75.1082 84.9748 74.0086 84.9748H65.5911C64.5148 84.9806 63.6252 85.8586 63.6252 86.9261V95.8686C63.6252 96.0873 63.5961 96.2973 63.5348 96.4956C63.2198 99.3831 60.7523 101.641 57.7627 101.641H52.1511C45.3582 101.641 39.834 96.1602 39.834 89.4256V64.0098C39.8632 61.1106 41.199 58.4565 43.5061 56.7094L62.5665 41.4115C66.7636 38.0865 72.6115 38.0865 76.7998 41.4056L95.9973 56.7181C98.2519 58.4361 99.5877 61.0844 99.6257 63.9486V89.4256C99.6257 96.1602 94.1015 101.641 87.3086 101.641V101.641Z" fill="black"/>
</g>
</svg>
