<svg width="137" height="137" viewBox="0 0 137 137" fill="none" xmlns="http://www.w3.org/2000/svg">
<circle cx="68.5" cy="68.5" r="68.5" fill="#AFB1B6"/>
<circle cx="68.5" cy="68.5" r="68.5" fill="#AFB1B6"/>
<circle cx="68.5" cy="68.5" r="68.5" fill="#A3A276"/>
<mask id="mask0_301_2171" style="mask-type:luminance" maskUnits="userSpaceOnUse" x="44" y="38" width="52" height="62">
<path fill-rule="evenodd" clip-rule="evenodd" d="M44.834 38.918H95.0275V99.1366H44.834V38.918Z" fill="white"/>
</mask>
<g mask="url(#mask0_301_2171)">
<path fill-rule="evenodd" clip-rule="evenodd" d="M69.9308 43.3535C67.4221 43.3535 51.595 48.927 49.7697 50.4506C49.2313 50.9919 49.2106 51.9327 49.326 58.231C49.3792 61.2662 49.4532 65.3901 49.4532 71.0997C49.4532 86.486 66.3808 93.3168 69.9278 94.5741C73.4719 93.3109 90.4083 86.4416 90.4083 71.0997C90.4083 65.3842 90.4823 61.2573 90.5385 58.2221C90.6509 51.9297 90.6302 50.989 90.0593 50.421C88.2695 48.927 72.4394 43.3535 69.9308 43.3535M69.9308 99.1359C69.7148 99.1359 69.4988 99.1063 69.2888 99.0412C68.2978 98.7424 45.0157 91.459 45.0157 71.0997C45.0157 65.4286 44.9417 61.3254 44.8885 58.3138C44.7524 50.7908 44.7228 49.2228 46.6664 47.2822C48.9887 44.954 66.576 38.916 69.9308 38.916C73.2825 38.916 90.8698 44.954 93.198 47.2822C95.1387 49.2228 95.1091 50.7908 94.973 58.3049C94.9198 61.3165 94.8458 65.4197 94.8458 71.0997C94.8458 91.459 71.5638 98.7424 70.5727 99.0412C70.3627 99.1063 70.1467 99.1359 69.9308 99.1359" fill="black"/>
</g>
<path fill-rule="evenodd" clip-rule="evenodd" d="M67.8409 75.9528V75.9528C67.2522 75.9528 66.6872 75.7191 66.2701 75.3019L60.6729 69.6989C59.8091 68.8321 59.8091 67.4239 60.6759 66.5601C61.5397 65.6933 62.9479 65.6933 63.8146 66.5601L67.8409 70.5923L77.8046 60.6286C78.6714 59.7618 80.0736 59.7618 80.9404 60.6286C81.8072 61.4954 81.8072 62.9006 80.9404 63.7674L69.4089 75.3019C68.9947 75.7191 68.4296 75.9528 67.8409 75.9528" fill="black"/>
</svg>
