<svg width="108" height="108" viewBox="0 0 108 108" fill="none" xmlns="http://www.w3.org/2000/svg">
<path d="M53.4928 100.894C81.0297 100.894 103.353 78.5707 103.353 51.0338C103.353 23.4969 81.0297 1.17383 53.4928 1.17383C25.9559 1.17383 3.63281 23.4969 3.63281 51.0338C3.63281 78.5707 25.9559 100.894 53.4928 100.894Z" fill="#4E4F3D"/>
<path d="M14.3994 83.2719L14.3418 81.4719C25.1022 81.1371 33.303 78.8115 40.1466 74.1531C41.5038 73.0875 42.8106 72.0435 44.0922 71.0211C47.5734 68.2455 50.8638 65.6211 54.5538 62.9859L54.6078 62.9499C63.8238 57.3411 72.597 54.9399 81.4242 55.6203C89.3082 56.4087 96.5766 58.8603 102.463 62.7087L101.476 64.2135C95.8314 60.5199 88.8438 58.1691 81.2658 57.4131C72.8562 56.7687 64.4466 59.0727 55.5726 64.4691C51.933 67.0719 48.6678 69.6747 45.2118 72.4287C43.9194 73.4583 42.6018 74.5095 41.2302 75.5859L41.1798 75.6219C34.041 80.4963 25.5306 82.9263 14.3994 83.2719Z" fill="white"/>
<path d="M17.9344 86.9613L17.8984 85.1613C24.5404 85.0317 30.592 83.8293 35.8912 81.5901C40.7476 79.5345 44.9416 76.1505 48.9952 72.8817L50.068 72.0177C57.268 66.2361 68.6476 59.5437 81.9352 60.5265C88.4368 61.0017 95.068 63.3129 101.116 67.2045L100.14 68.7165C94.3444 64.9869 88.0048 62.7729 81.802 62.3193C69.094 61.3797 58.1428 67.8381 51.1948 73.4217L50.1256 74.2821C45.9748 77.6301 41.68 81.0933 36.5932 83.2461C31.0816 85.5753 24.8068 86.8281 17.9344 86.9613Z" fill="white"/>
<path d="M23.5769 91.9372L23.4941 90.1408C29.3261 89.8744 34.6721 88.582 39.3845 86.3032C43.8989 84.1216 47.6321 80.8492 50.6921 77.9404C60.5453 68.566 72.2921 64.048 82.9193 65.5456C88.3301 66.3052 93.8381 68.5732 98.8385 72.1012L97.8017 73.5736C93.0317 70.2076 87.7973 68.0512 82.6673 67.3276C72.5873 65.9092 61.3841 70.2508 51.9305 79.2472C48.7733 82.2532 44.9033 85.6372 40.1693 87.9268C35.2409 90.3064 29.6573 91.66 23.5769 91.9372Z" fill="white"/>
<path d="M31.3381 96.6278L31.0645 94.8494C36.1801 94.061 40.9321 92.207 44.7985 89.489C47.2537 87.7646 49.4101 85.5902 51.4981 83.4842C52.7905 82.181 54.1297 80.831 55.5409 79.5818C63.6193 72.4358 73.1593 69.0014 81.7201 70.1534C86.8681 70.8482 92.1204 73.181 96.9156 76.9034L95.8105 78.3254C91.2673 74.7974 86.3137 72.587 81.4789 71.9354C73.4365 70.8482 64.4185 74.1278 56.7325 80.9246C55.3645 82.1342 54.0469 83.4626 52.7725 84.7478C50.6305 86.9078 48.4165 89.1398 45.8317 90.9578C41.7385 93.8378 36.7273 95.7962 31.3381 96.6278Z" fill="white"/>
<path d="M38.2791 99.4715L38.0703 97.6823C42.4299 97.1747 46.4799 95.7419 49.7811 93.5315C52.2219 91.8971 54.3063 89.7119 56.3223 87.5951C57.1791 86.6951 58.0683 85.7663 58.9791 84.8807C63.0291 80.9423 71.3127 74.5235 81.2415 75.7691C85.6731 76.3271 90.1911 78.4043 94.3059 81.7811L93.1647 83.1743C89.3127 80.0135 85.1115 78.0731 81.0147 77.5583C71.8311 76.4027 64.0479 82.4615 60.2283 86.1731C59.3427 87.0335 58.4679 87.9515 57.6183 88.8407C55.5339 91.0259 53.3811 93.2831 50.7747 95.0291C47.2467 97.3979 42.9231 98.9351 38.2791 99.4715Z" fill="white"/>
<path d="M67.9433 99.7384L66.3809 98.8456C67.8749 96.232 70.2293 93.9604 72.8429 92.6176C75.9425 91.0264 79.0421 90.8716 81.8105 92.1784L81.0437 93.8056C76.3169 91.5772 70.5641 95.152 67.9433 99.7384Z" fill="white"/>
<path d="M34.0193 59.1302C33.5225 58.0718 32.9789 57.035 32.8493 55.8542C32.5649 53.2514 33.6953 50.7386 34.4729 48.3122C35.3333 45.6266 35.8517 42.7286 34.6313 40.0682C34.4297 39.629 33.7889 39.5174 33.4001 39.7478C32.9465 40.0142 32.8745 40.5326 33.0761 40.9754C34.0733 43.1462 33.4289 45.6806 32.7377 47.837C31.9673 50.2382 30.9665 52.6466 31.0133 55.2134C31.0385 56.5778 31.4201 57.809 31.9925 59.0402C32.5037 60.1382 33.0041 61.1858 33.2417 62.3846C33.4757 63.5762 33.4937 64.8002 33.4829 66.0098C33.4721 67.2266 33.5081 68.4938 33.1481 69.6674C32.7377 71.0138 31.9169 72.1802 31.6361 73.577C31.3373 75.0494 31.4021 76.5434 31.4921 78.0338C31.5605 79.1822 33.3605 79.1894 33.2921 78.0338C33.2165 76.7738 33.1121 75.4634 33.3425 74.2106C33.5801 72.911 34.2605 71.8202 34.7285 70.5998C35.1893 69.3938 35.2469 68.0906 35.2721 66.8162C35.2973 65.5202 35.3045 64.2206 35.1389 62.9354C34.9625 61.5926 34.5953 60.3578 34.0193 59.1302Z" fill="white"/>
<path d="M14.8421 81.6877L13.0781 81.3313C13.3877 79.8013 15.3029 71.9821 22.5641 68.1949C29.7317 64.4581 38.8001 66.0889 45.1289 72.2521L43.8725 73.5409C38.1953 68.0041 29.7749 66.4633 23.3993 69.7897C16.8581 73.1989 15.1229 80.2981 14.8421 81.6877Z" fill="white"/>
<path d="M11.2538 76.2555L9.57617 75.6003C11.5634 70.5063 15.8294 66.2331 21.2834 63.8787C26.5142 61.6215 32.375 61.1355 37.7894 62.5071C41.6234 63.4755 45.3818 65.4159 48.665 68.1195L47.5202 69.5091C44.4422 66.9747 40.925 65.1531 37.3502 64.2495C32.321 62.9751 26.8706 63.4287 21.9998 65.5275C16.9814 67.6983 13.0646 71.6079 11.2538 76.2555Z" fill="white"/>
<path d="M50.958 66.0137C46.3284 62.3849 40.9032 60.1241 35.2656 59.4689L35.4744 57.6797C41.4396 58.3745 47.178 60.7649 52.0668 64.5989L50.958 66.0137Z" fill="white"/>
<path d="M9.04965 72.9718L7.49805 72.0574C12.5272 63.5398 23.4424 55.411 35.5348 57.6862L35.2 59.4538C27.3268 57.9706 15.7816 61.567 9.04965 72.9718Z" fill="white"/>
<path d="M22.9671 63.0107L24.7635 62.4131L25.1955 64.4399L22.9023 65.1851" fill="#4E4F3D"/>
<path d="M22.2832 59.108L22.744 61.0232L24.184 60.512L23.7016 58.5752L22.2832 59.108Z" fill="#4E4F3D"/>
<path d="M24.8613 67.1903C24.7425 66.8987 24.4797 66.6719 24.0693 66.6719C23.8677 66.6719 23.7057 66.7295 23.5761 66.8159C23.4933 66.8447 23.4213 66.8807 23.3565 66.9275C22.9893 67.0643 22.8057 67.4279 22.8129 67.7879C22.7913 67.8131 22.7733 67.8383 22.7517 67.8635C22.7481 67.8671 22.7445 67.8707 22.7409 67.8779C22.6869 67.9607 22.6617 68.0507 22.6473 68.1443L22.2621 70.2899C22.2225 70.3727 22.1937 70.4591 22.1901 70.5527C22.1649 70.6715 22.1685 70.7903 22.2045 70.9127C22.2333 71.0315 22.2873 71.1323 22.3665 71.2187C22.4313 71.3159 22.5141 71.3951 22.6185 71.4491C22.6905 71.4779 22.7625 71.5103 22.8345 71.5391C22.9929 71.5823 23.1549 71.5823 23.3133 71.5391C23.3781 71.5103 23.4429 71.4851 23.5113 71.4563C23.5761 71.4383 23.6373 71.4131 23.6985 71.3771C23.8029 71.3195 23.8893 71.2439 23.9505 71.1467C24.0297 71.0603 24.0837 70.9595 24.1125 70.8407C24.1233 70.7615 24.1341 70.6823 24.1449 70.6031C24.1449 70.4411 24.1017 70.2899 24.0225 70.1495L23.8821 69.9659C23.8677 69.9515 23.8497 69.9443 23.8353 69.9299L24.6633 69.6743L25.0845 68.4287L25.3545 66.9779L24.8613 67.1903Z" fill="#4E4F3D"/>
<path d="M25.9306 59.9297L25.3906 57.9137L27.457 57.5645L28.213 59.5589L25.9306 59.9297Z" fill="#4E4F3D"/>
<path d="M29.1895 57.3338L30.0535 59.465L32.1019 59.3246L31.2955 57.1826L29.1895 57.3338Z" fill="#4E4F3D"/>
<path d="M33.0977 61.7359L32.9825 61.7323C32.9789 61.3579 32.7737 60.9907 32.3705 60.8791C32.2265 60.7423 32.0285 60.6523 31.7729 60.6523C31.7657 60.6523 31.7585 60.6559 31.7477 60.6559C31.7369 60.6559 31.7225 60.6523 31.7117 60.6523C31.6325 60.6631 31.5533 60.6739 31.4741 60.6847C31.3229 60.7279 31.1897 60.8035 31.0781 60.9151C31.0313 60.9763 30.9845 61.0375 30.9377 61.0987C30.8549 61.2391 30.8153 61.3903 30.8153 61.5523V61.6639C30.8153 61.6711 30.8153 61.6747 30.8153 61.6819H30.7793L30.9341 63.5431L33.4217 63.7015L33.0977 61.7359Z" fill="#4E4F3D"/>
<path d="M26.5254 62.118L26.9322 64.0692L29.1354 63.7739L28.9302 61.6104L26.5254 62.118Z" fill="#4E4F3D"/>
<path d="M27.1398 66.5608L26.9238 68.4904L29.2314 68.116L29.2602 66.2656H27.9858L27.1398 66.5608Z" fill="#4E4F3D"/>
<path d="M31.0717 68.0579L31.0645 66.0635L33.4801 66.2651L33.4081 68.2739L31.0717 68.0579Z" fill="#4E4F3D"/>
<path d="M36.392 59.6519L35.564 57.5243L33.2168 57.3623L34.1888 59.5691" fill="#4E4F3D"/>
<path d="M34.9785 61.9376L35.2305 63.8384L37.5561 64.3928L37.2285 62.33L36.8973 61.9376L35.0685 61.8008L34.9785 61.9376Z" fill="#4E4F3D"/>
<path d="M35.1719 68.6231L35.2691 66.7835L35.2727 66.6719L37.4651 67.3019L37.3427 67.9679L37.1951 68.5691L37.0007 69.1955" fill="#4E4F3D"/>
<path d="M22.3849 59.3893C21.7009 57.1825 20.8189 55.0405 21.0745 52.6753C21.2149 51.3649 21.8341 50.1877 22.1977 48.9349C22.5721 47.6317 22.7017 46.2529 22.5865 44.9029C22.5469 44.4169 22.2013 44.0029 21.6865 44.0029C21.2329 44.0029 20.7469 44.4169 20.7865 44.9029C20.8873 46.1053 20.7973 47.2933 20.4589 48.4561C20.1349 49.5757 19.6129 50.6269 19.3969 51.7789C18.9397 54.2413 19.5553 56.6065 20.3401 58.9285C20.7001 59.9977 21.0673 61.0885 21.1429 62.2261C21.2257 63.4969 21.1177 64.7929 21.0349 66.0637C20.9593 67.2553 20.8441 68.4433 20.5813 69.6061C20.3149 70.7869 19.8973 71.9245 19.5985 73.0981C18.9289 75.7261 19.0585 78.5125 20.0413 81.0469C20.2177 81.5005 20.6461 81.8137 21.1501 81.6769C21.5821 81.5581 21.9565 81.0253 21.7801 80.5681C20.9413 78.4117 20.7361 76.0753 21.2761 73.8217C21.5497 72.6733 21.9565 71.5645 22.2409 70.4197C22.5397 69.2209 22.6909 67.9861 22.7881 66.7585C22.8853 65.5453 22.9609 64.3177 22.9681 63.1009C22.9717 61.8301 22.7593 60.6025 22.3849 59.3893Z" fill="white"/>
<path d="M27.0801 64.8903C26.7993 62.5971 26.0217 60.4263 25.4637 58.1979C25.2009 57.1575 24.9885 56.1027 24.9561 55.0263C24.9201 53.8887 25.1505 52.8663 25.5069 51.7899C25.7409 51.0843 25.8885 50.3895 25.9353 49.6479C25.9857 48.9027 26.0145 48.1827 26.1657 47.4483C26.4573 46.0119 26.8425 44.5323 26.3493 43.0923C26.1909 42.6315 25.7301 42.3291 25.2405 42.4623C24.7941 42.5847 24.4557 43.1067 24.6105 43.5711C25.0209 44.7771 24.6069 46.0083 24.3801 47.2107C24.1317 48.5031 24.2469 49.8315 23.8437 51.0879C23.4693 52.2579 23.1633 53.3847 23.1489 54.6231C23.1381 55.7571 23.3145 56.8911 23.5629 57.9963C24.0561 60.2067 24.8733 62.3451 25.2333 64.5879C25.3953 65.5923 25.4457 66.6579 25.2621 67.6623C25.0245 68.9655 24.4305 70.1607 24.0237 71.4135C23.0877 74.2755 23.1057 77.3931 23.8581 80.2911C24.1497 81.4107 25.8849 80.9355 25.5933 79.8123C24.9381 77.2923 24.9165 74.6247 25.6869 72.1263C26.0829 70.8339 26.7057 69.6099 26.9757 68.2779C27.1989 67.1583 27.2205 66.0207 27.0801 64.8903Z" fill="white"/>
<path d="M29.8904 49.8204C30.3008 48.4812 30.8876 47.1888 31.1144 45.7956C31.2836 44.748 31.2943 43.6896 31.1467 42.6492C31.0855 42.2352 30.9992 41.8212 30.8876 41.4144C30.5816 40.2984 28.8464 40.7736 29.1524 41.8932C29.21 42.1056 29.2604 42.3216 29.3036 42.5376C29.3252 42.642 29.3432 42.7428 29.3576 42.8472C29.3828 43.0092 29.4764 44.7732 29.3504 45.4788C29.1272 46.6992 28.6375 47.844 28.2559 49.0176C27.8563 50.2488 27.5828 51.516 27.4136 52.7976C27.248 54.054 27.1363 55.3572 27.2767 56.6244C27.4207 57.8952 27.9356 58.9536 28.4576 60.102C28.9724 61.2288 29.0731 62.4168 29.1307 63.6372C29.1919 64.9044 29.2747 66.1788 29.2819 67.4496C29.2855 68.0292 29.2424 68.5908 29.0732 69.1488C28.8896 69.75 28.6088 70.3152 28.3856 70.902C27.3848 73.5408 27.518 76.446 27.6692 79.2108C27.7304 80.3628 29.534 80.37 29.4692 79.2108C29.336 76.7556 29.1848 74.214 29.9588 71.838C30.3548 70.6248 30.9416 69.5664 31.0532 68.2704C31.1648 67.0032 31.028 65.6928 30.9704 64.422C30.9128 63.1512 30.8948 61.8444 30.56 60.6096C30.2324 59.4144 29.4908 58.3812 29.1884 57.1788C28.8896 55.9908 29.0048 54.6732 29.1307 53.4636C29.2639 52.236 29.5268 51.0084 29.8904 49.8204Z" fill="white"/>
<path d="M38.9992 61.9666C38.7148 60.6418 38.2576 59.389 37.7248 58.147C37.2388 57.0166 36.9112 55.8934 36.9112 54.6586C36.9112 51.9658 38.0812 49.543 38.83 47.0122C39.2728 45.5146 39.3124 44.035 39.1432 42.4906C38.9704 40.8994 38.7724 39.3118 38.5888 37.7242C38.5312 37.2418 38.2144 36.8242 37.6888 36.8242C37.246 36.8242 36.7312 37.2382 36.7888 37.7242C36.9544 39.139 37.12 40.5538 37.2856 41.9686C37.444 43.3402 37.5736 44.6866 37.2316 46.0402C36.9148 47.293 36.4036 48.4918 36.0148 49.7266C35.6044 51.0154 35.284 52.333 35.1616 53.683C35.0392 55.0006 35.1544 56.3578 35.59 57.6106C36.0076 58.813 36.5836 59.9398 36.9436 61.1638C37.678 63.6658 37.8976 66.319 37.1236 68.8354C36.3316 71.4094 34.924 73.8538 35.0896 76.633C35.158 77.785 36.958 77.7922 36.8896 76.633C36.7456 74.1994 37.966 71.9926 38.7184 69.7498C39.5644 67.2082 39.5572 64.5766 38.9992 61.9666Z" fill="white"/>
<path d="M50.2018 101.686L49.291 100.134C51.5338 98.8204 53.449 96.9196 55.303 95.0836C55.555 94.8352 55.807 94.5868 56.059 94.3384C58.4998 91.948 60.9046 89.6332 63.5326 87.6064C69.2206 83.2288 74.8798 81.184 80.3446 81.5224C83.9086 81.742 87.4978 82.8364 91.0078 84.7768L90.1366 86.3536C86.9038 84.5716 83.4802 83.5204 80.2294 83.3224C75.2074 83.0128 69.9586 84.9352 64.627 89.0392C62.0782 91.0012 59.713 93.2764 57.3154 95.6272C57.067 95.872 56.815 96.1204 56.5666 96.3688C54.6406 98.2768 52.6426 100.257 50.2018 101.686Z" fill="white"/>
<path d="M59.1841 101.531L57.9277 100.242C59.4541 98.7549 60.9013 96.9441 62.2981 95.1981C65.8081 90.5181 70.9633 87.2817 76.0717 86.5653C79.9201 86.0253 83.5453 86.9469 86.5585 89.2293L85.4713 90.6657C82.8469 88.6785 79.6825 87.8757 76.3201 88.3509C71.6761 89.0025 66.9637 91.9761 63.7201 96.3033C62.2693 98.1141 60.7897 99.9645 59.1841 101.531Z" fill="white"/>
<path d="M53.7808 101.754C25.9023 101.754 3.21875 79.0703 3.21875 51.1919C3.21875 23.3135 25.9023 0.629883 53.7808 0.629883C81.6591 0.629883 104.343 23.3135 104.343 51.1919C104.343 79.0703 81.6591 101.754 53.7808 101.754ZM53.7808 1.70988C26.4963 1.70988 4.29875 23.9075 4.29875 51.1919C4.29875 78.4763 26.4963 100.674 53.7808 100.674C81.0652 100.674 103.263 78.4763 103.263 51.1919C103.263 23.9075 81.0652 1.70988 53.7808 1.70988Z" fill="white"/>
<path d="M16.954 51.0199L19.1212 49.9615L21.1228 48.9787L97.8676 11.4163L95.7652 8.57227L91.0132 11.0311L16.918 49.4287L16.954 51.0199Z" fill="white"/>
<path d="M16.7734 51.3184L16.7266 49.3131L16.831 49.2592L90.9262 10.8615L95.8222 8.32715L98.155 11.4879L97.9498 11.5887L19.207 50.1304L16.7734 51.3184ZM17.1082 49.5435L17.137 50.7208L21.0394 48.8127L97.5826 11.3475L95.7106 8.81315L91.1026 11.1999L17.1082 49.5435Z" fill="#4E4F3D"/>
<path d="M61.264 21.0355L60.0723 21.6543L60.2382 21.9738L61.4299 21.355L61.264 21.0355Z" fill="#4E4F3D"/>
<path d="M84.0329 14.0687L82.8457 14.6885L83.0123 15.0076L84.1995 14.3878L84.0329 14.0687Z" fill="#4E4F3D"/>
<path d="M36.9258 38.7502L37.1058 40.1002L38.8086 39.0922L38.6322 37.8574L36.9258 38.7502Z" fill="white"/>
<path d="M33.0762 40.9537L33.1302 41.0941L33.249 41.3965L34.815 40.5937L34.6314 39.9961L33.0078 40.7449" fill="white"/>
<path d="M24.7535 45.2269L24.7031 45.7201L26.5751 44.9821V44.2441" fill="white"/>
<path d="M36.9111 38.756L36.5547 38.8066L36.9006 41.2411L37.2571 41.1904L36.9111 38.756Z" fill="#4E4F3D"/>
<path d="M38.9771 37.9213L38.6211 37.9746L38.985 40.4064L39.341 40.3531L38.9771 37.9213Z" fill="#4E4F3D"/>
<path d="M34.9903 39.938L34.6406 40.0234L35.1782 42.2231L35.5279 42.1376L34.9903 39.938Z" fill="#4E4F3D"/>
<path d="M33.1396 41.1631L32.8027 41.29L33.5301 43.2204L33.867 43.0935L33.1396 41.1631Z" fill="#4E4F3D"/>
<path d="M31.3594 41.6657L31.0039 41.7227L31.3929 44.1505L31.7484 44.0935L31.3594 41.6657Z" fill="#4E4F3D"/>
<path d="M29.3458 42.8761L28.9902 42.9326L29.3407 45.1369L29.6962 45.0804L29.3458 42.8761Z" fill="#4E4F3D"/>
<path d="M26.5645 44.2313L26.4727 46.4688L26.8324 46.4835L26.9242 44.2461L26.5645 44.2313Z" fill="#4E4F3D"/>
<path d="M24.3729 45.2418L24.2812 47.4756L24.641 47.4903L24.7326 45.2565L24.3729 45.2418Z" fill="#4E4F3D"/>
<path d="M22.6622 46.1424L22.5723 48.333L22.932 48.3478L23.0219 46.1571L22.6622 46.1424Z" fill="#4E4F3D"/>
<path d="M20.3299 47.2144L20.2383 49.4482L20.598 49.463L20.6897 47.2292L20.3299 47.2144Z" fill="#4E4F3D"/>
<path d="M88.2726 15.9227L88.1934 15.7571L89.4426 15.1523L89.5218 15.3143" fill="white"/>
<path d="M16.5645 52.7512L95.3577 16.5208L93.3993 13.7344L16.5645 51.2212V52.7512Z" fill="white"/>
<path d="M16.3691 53.0533V51.1021L16.4771 51.0481L93.4631 13.4893L95.6483 16.5997L16.3691 53.0533ZM16.7543 51.3433V52.4521L95.0687 16.4413L93.3371 13.9789L16.7543 51.3433Z" fill="#4E4F3D"/>
<path d="M29.3438 42.7613L29.4013 43.2221L31.1005 42.3149L31.0069 41.8721L29.3438 42.7613Z" fill="white"/>
<path d="M24.7723 45.0144L24.7363 45.3816L26.5615 44.5068V44.082L24.7723 45.0144Z" fill="white"/>
<path d="M22.6364 46.2168L22.6328 46.7424L20.6816 47.7432L20.7248 47.1672L22.6364 46.2168Z" fill="white"/>
</svg>
