<svg width="11" height="11" viewBox="0 0 11 11" fill="none" xmlns="http://www.w3.org/2000/svg">
<path d="M5.42094 10.17C2.82094 10.17 0.710938 8.06 0.710938 5.46C0.710938 2.86 2.82094 0.75 5.42094 0.75C8.02094 0.75 10.1309 2.86 10.1309 5.46C10.1309 8.06 8.02094 10.17 5.42094 10.17ZM5.42094 1.25C3.10094 1.25 1.21094 3.14 1.21094 5.46C1.21094 7.78 3.10094 9.67 5.42094 9.67C7.74094 9.67 9.63094 7.78 9.63094 5.46C9.63094 3.14 7.74094 1.25 5.42094 1.25Z" fill="#636851"/>
<path d="M6.45 7.78047L3.25 5.47047L6.45 2.98047L6.75 3.38047L4.08 5.46047L6.75 7.38047L6.45 7.78047Z" fill="#636851"/>
</svg>
