<svg width="10" height="10" viewBox="0 0 10 10" fill="none" xmlns="http://www.w3.org/2000/svg">
<path d="M4.77055 9.71004C2.17055 9.71004 0.0605469 7.60004 0.0605469 5.00004C0.0605469 2.40004 2.17055 0.290039 4.77055 0.290039C7.37055 0.290039 9.48055 2.40004 9.48055 5.00004C9.48055 7.60004 7.37055 9.71004 4.77055 9.71004ZM4.77055 0.790039C2.45055 0.790039 0.560547 2.68004 0.560547 5.00004C0.560547 7.32004 2.45055 9.21004 4.77055 9.21004C7.09055 9.21004 8.98055 7.32004 8.98055 5.00004C8.98055 2.68004 7.09055 0.790039 4.77055 0.790039Z" fill="#636851"/>
<path d="M3.73969 7.47969L3.42969 7.08969L6.09969 5.00969L3.43969 3.08969L3.73969 2.67969L6.93969 4.98969L3.73969 7.47969Z" fill="#636851"/>
</svg>
