<svg width="604" height="18" viewBox="0 0 604 18" fill="none" xmlns="http://www.w3.org/2000/svg">
<path d="M547.321 14V3.09091H551.135C551.895 3.09091 552.522 3.2223 553.015 3.48509C553.509 3.74432 553.876 4.0941 554.118 4.53445C554.359 4.97124 554.48 5.45597 554.48 5.98864C554.48 6.45739 554.397 6.84446 554.23 7.14986C554.066 7.45526 553.85 7.69673 553.58 7.87429C553.314 8.05185 553.024 8.18324 552.712 8.26847V8.375C553.045 8.39631 553.381 8.51349 553.718 8.72656C554.056 8.93963 554.338 9.24503 554.565 9.64276C554.793 10.0405 554.906 10.527 554.906 11.1023C554.906 11.6491 554.782 12.141 554.533 12.5778C554.285 13.0146 553.892 13.3608 553.356 13.6165C552.82 13.8722 552.122 14 551.263 14H547.321ZM548.642 12.8281H551.263C552.126 12.8281 552.738 12.6612 553.1 12.3274C553.466 11.9901 553.649 11.5817 553.649 11.1023C553.649 10.733 553.555 10.392 553.367 10.0795C553.179 9.76349 552.911 9.51136 552.562 9.32315C552.214 9.13139 551.803 9.03551 551.327 9.03551H548.642V12.8281ZM548.642 7.88494H551.092C551.49 7.88494 551.849 7.80682 552.168 7.65057C552.491 7.49432 552.747 7.27415 552.935 6.99006C553.127 6.70597 553.223 6.37216 553.223 5.98864C553.223 5.50923 553.056 5.10263 552.722 4.76882C552.388 4.43146 551.859 4.26278 551.135 4.26278H548.642V7.88494ZM560.337 14.1705C559.548 14.1705 558.868 13.9964 558.297 13.6484C557.729 13.2969 557.29 12.8068 556.981 12.1783C556.676 11.5462 556.523 10.8111 556.523 9.97301C556.523 9.13494 556.676 8.39631 556.981 7.7571C557.29 7.11435 557.72 6.61364 558.27 6.25497C558.824 5.89276 559.47 5.71165 560.209 5.71165C560.635 5.71165 561.056 5.78267 561.471 5.92472C561.887 6.06676 562.265 6.29759 562.606 6.61719C562.947 6.93324 563.219 7.35227 563.421 7.87429C563.623 8.39631 563.725 9.03906 563.725 9.80256V10.3352H557.418V9.24858H562.446C562.446 8.78693 562.354 8.375 562.169 8.01278C561.988 7.65057 561.729 7.3647 561.392 7.15518C561.058 6.94567 560.664 6.84091 560.209 6.84091C559.708 6.84091 559.275 6.9652 558.909 7.21378C558.547 7.45881 558.268 7.77841 558.073 8.17258C557.878 8.56676 557.78 8.98935 557.78 9.44034V10.1648C557.78 10.7827 557.887 11.3065 558.1 11.7362C558.316 12.1623 558.616 12.4872 559 12.7109C559.383 12.9311 559.829 13.0412 560.337 13.0412C560.667 13.0412 560.965 12.995 561.232 12.9027C561.502 12.8068 561.734 12.6648 561.93 12.4766C562.125 12.2848 562.276 12.0469 562.382 11.7628L563.597 12.1037C563.469 12.5156 563.254 12.8778 562.952 13.1903C562.65 13.4993 562.278 13.7408 561.834 13.9148C561.39 14.0852 560.891 14.1705 560.337 14.1705ZM569.195 5.81818V6.88352H564.955V5.81818H569.195ZM566.191 3.85795H567.448V11.6562C567.448 12.0114 567.499 12.2777 567.602 12.4553C567.709 12.6293 567.844 12.7464 568.007 12.8068C568.174 12.8636 568.35 12.892 568.535 12.892C568.673 12.892 568.787 12.8849 568.876 12.8707C568.964 12.853 569.035 12.8388 569.089 12.8281L569.344 13.9574C569.259 13.9893 569.14 14.0213 568.987 14.0533C568.835 14.0888 568.641 14.1065 568.407 14.1065C568.052 14.1065 567.704 14.0302 567.363 13.8775C567.025 13.7248 566.745 13.4922 566.521 13.1797C566.301 12.8672 566.191 12.473 566.191 11.9972V3.85795ZM573.494 14.1918C572.975 14.1918 572.505 14.0941 572.082 13.8988C571.66 13.6999 571.324 13.4141 571.075 13.0412C570.827 12.6648 570.703 12.2102 570.703 11.6776C570.703 11.2088 570.795 10.8288 570.98 10.5376C571.164 10.2429 571.411 10.0121 571.72 9.84517C572.029 9.67827 572.37 9.55398 572.743 9.4723C573.119 9.38707 573.497 9.3196 573.877 9.26989C574.374 9.20597 574.778 9.15803 575.086 9.12607C575.399 9.09055 575.626 9.03196 575.768 8.95028C575.914 8.86861 575.987 8.72656 575.987 8.52415V8.48153C575.987 7.95597 575.843 7.54759 575.555 7.25639C575.271 6.9652 574.84 6.8196 574.261 6.8196C573.661 6.8196 573.19 6.95099 572.849 7.21378C572.508 7.47656 572.269 7.7571 572.13 8.0554L570.937 7.62926C571.15 7.1321 571.434 6.74503 571.789 6.46804C572.148 6.1875 572.539 5.99219 572.961 5.8821C573.387 5.76847 573.806 5.71165 574.218 5.71165C574.481 5.71165 574.783 5.74361 575.124 5.80753C575.468 5.8679 575.8 5.99396 576.12 6.18572C576.443 6.37749 576.711 6.6669 576.924 7.05398C577.137 7.44105 577.244 7.95952 577.244 8.60938V14H575.987V12.892H575.923C575.838 13.0696 575.695 13.2596 575.497 13.462C575.298 13.6644 575.033 13.8366 574.703 13.9787C574.373 14.1207 573.97 14.1918 573.494 14.1918ZM573.686 13.0625C574.183 13.0625 574.602 12.9648 574.943 12.7695C575.287 12.5742 575.546 12.3221 575.72 12.0131C575.898 11.7042 575.987 11.3793 575.987 11.0384V9.88778C575.933 9.9517 575.816 10.0103 575.635 10.0636C575.458 10.1133 575.252 10.1577 575.017 10.1967C574.786 10.2322 574.561 10.2642 574.341 10.2926C574.124 10.3175 573.948 10.3388 573.813 10.3565C573.487 10.3991 573.181 10.4684 572.897 10.5643C572.617 10.6566 572.389 10.7969 572.215 10.9851C572.045 11.1697 571.96 11.4219 571.96 11.7415C571.96 12.1783 572.121 12.5085 572.444 12.7322C572.771 12.9524 573.185 13.0625 573.686 13.0625ZM580.795 3.09091V14H579.538V3.09091H580.795ZM583.098 14V5.81818H584.355V14H583.098ZM583.737 4.45455C583.492 4.45455 583.281 4.37109 583.103 4.20419C582.929 4.03729 582.842 3.83665 582.842 3.60227C582.842 3.3679 582.929 3.16726 583.103 3.00035C583.281 2.83345 583.492 2.75 583.737 2.75C583.982 2.75 584.192 2.83345 584.366 3.00035C584.543 3.16726 584.632 3.3679 584.632 3.60227C584.632 3.83665 584.543 4.03729 584.366 4.20419C584.192 4.37109 583.982 4.45455 583.737 4.45455ZM587.915 9.07812V14H586.657V5.81818H587.872V7.09659H587.978C588.17 6.68111 588.461 6.3473 588.852 6.09517C589.243 5.83949 589.747 5.71165 590.365 5.71165C590.919 5.71165 591.403 5.82528 591.819 6.05256C592.234 6.27628 592.558 6.61719 592.788 7.07528C593.019 7.52983 593.135 8.10511 593.135 8.80114V14H591.878V8.88636C591.878 8.24361 591.711 7.7429 591.377 7.38423C591.043 7.02202 590.585 6.84091 590.003 6.84091C589.601 6.84091 589.243 6.92791 588.927 7.10192C588.614 7.27592 588.367 7.52983 588.186 7.86364C588.005 8.19744 587.915 8.60227 587.915 9.07812ZM598.734 17.2386C598.127 17.2386 597.605 17.1605 597.168 17.0043C596.732 16.8516 596.368 16.6491 596.076 16.397C595.789 16.1484 595.56 15.8821 595.389 15.598L596.391 14.8949C596.504 15.044 596.648 15.2145 596.822 15.4062C596.996 15.6016 597.234 15.7702 597.536 15.9123C597.841 16.0579 598.241 16.1307 598.734 16.1307C599.395 16.1307 599.94 15.9709 600.37 15.6513C600.799 15.3317 601.014 14.831 601.014 14.1491V12.4872H600.908C600.815 12.6364 600.684 12.821 600.513 13.0412C600.347 13.2578 600.105 13.4513 599.789 13.6218C599.477 13.7887 599.054 13.8722 598.521 13.8722C597.861 13.8722 597.268 13.7159 596.742 13.4034C596.22 13.0909 595.806 12.6364 595.501 12.0398C595.199 11.4432 595.048 10.7187 595.048 9.86648C595.048 9.02841 595.196 8.29865 595.49 7.6772C595.785 7.0522 596.195 6.56925 596.721 6.22834C597.246 5.88388 597.854 5.71165 598.543 5.71165C599.075 5.71165 599.498 5.80043 599.81 5.97798C600.126 6.15199 600.368 6.35085 600.535 6.57457C600.705 6.79474 600.837 6.97585 600.929 7.1179H601.057V5.81818H602.271V14.2344C602.271 14.9375 602.112 15.5092 601.792 15.9496C601.476 16.3935 601.05 16.7184 600.513 16.9244C599.981 17.1339 599.388 17.2386 598.734 17.2386ZM598.692 12.7429C599.196 12.7429 599.622 12.6275 599.97 12.3967C600.318 12.1658 600.583 11.8338 600.764 11.4006C600.945 10.9673 601.036 10.4489 601.036 9.84517C601.036 9.25568 600.947 8.73544 600.769 8.28445C600.592 7.83345 600.329 7.48011 599.981 7.22443C599.633 6.96875 599.203 6.84091 598.692 6.84091C598.159 6.84091 597.715 6.97585 597.36 7.24574C597.009 7.51562 596.744 7.87784 596.566 8.33239C596.392 8.78693 596.305 9.29119 596.305 9.84517C596.305 10.4134 596.394 10.9158 596.572 11.3526C596.753 11.7859 597.019 12.1268 597.371 12.3754C597.726 12.6204 598.166 12.7429 598.692 12.7429Z" fill="#4E4F3D"/>
<path d="M218.321 14V3.09091H222.007C222.859 3.09091 223.559 3.23651 224.106 3.5277C224.653 3.81534 225.058 4.21129 225.32 4.71555C225.583 5.21982 225.714 5.79332 225.714 6.43608C225.714 7.07884 225.583 7.64879 225.32 8.14595C225.058 8.64311 224.654 9.03374 224.111 9.31783C223.568 9.59837 222.874 9.73864 222.028 9.73864H219.045V8.54545H221.986C222.568 8.54545 223.037 8.46023 223.392 8.28977C223.751 8.11932 224.01 7.87784 224.17 7.56534C224.333 7.24929 224.415 6.87287 224.415 6.43608C224.415 5.99929 224.333 5.61754 224.17 5.29084C224.006 4.96413 223.745 4.712 223.387 4.53445C223.028 4.35334 222.554 4.26278 221.964 4.26278H219.642V14H218.321ZM223.456 9.09943L226.141 14H224.607L221.964 9.09943H223.456ZM231.088 14.1705C230.299 14.1705 229.619 13.9964 229.048 13.6484C228.479 13.2969 228.041 12.8068 227.732 12.1783C227.427 11.5462 227.274 10.8111 227.274 9.97301C227.274 9.13494 227.427 8.39631 227.732 7.7571C228.041 7.11435 228.471 6.61364 229.021 6.25497C229.575 5.89276 230.221 5.71165 230.96 5.71165C231.386 5.71165 231.807 5.78267 232.222 5.92472C232.638 6.06676 233.016 6.29759 233.357 6.61719C233.698 6.93324 233.97 7.35227 234.172 7.87429C234.374 8.39631 234.476 9.03906 234.476 9.80256V10.3352H228.169V9.24858H233.197C233.197 8.78693 233.105 8.375 232.92 8.01278C232.739 7.65057 232.48 7.3647 232.142 7.15518C231.809 6.94567 231.415 6.84091 230.96 6.84091C230.459 6.84091 230.026 6.9652 229.66 7.21378C229.298 7.45881 229.019 7.77841 228.824 8.17258C228.629 8.56676 228.531 8.98935 228.531 9.44034V10.1648C228.531 10.7827 228.638 11.3065 228.851 11.7362C229.067 12.1623 229.367 12.4872 229.751 12.7109C230.134 12.9311 230.58 13.0412 231.088 13.0412C231.418 13.0412 231.716 12.995 231.983 12.9027C232.253 12.8068 232.485 12.6648 232.68 12.4766C232.876 12.2848 233.027 12.0469 233.133 11.7628L234.348 12.1037C234.22 12.5156 234.005 12.8778 233.703 13.1903C233.401 13.4993 233.028 13.7408 232.585 13.9148C232.141 14.0852 231.642 14.1705 231.088 14.1705ZM239.69 17.2386C239.083 17.2386 238.561 17.1605 238.124 17.0043C237.688 16.8516 237.324 16.6491 237.032 16.397C236.745 16.1484 236.516 15.8821 236.345 15.598L237.347 14.8949C237.46 15.044 237.604 15.2145 237.778 15.4062C237.952 15.6016 238.19 15.7702 238.492 15.9123C238.797 16.0579 239.197 16.1307 239.69 16.1307C240.351 16.1307 240.896 15.9709 241.326 15.6513C241.755 15.3317 241.97 14.831 241.97 14.1491V12.4872H241.864C241.771 12.6364 241.64 12.821 241.47 13.0412C241.303 13.2578 241.061 13.4513 240.745 13.6218C240.433 13.7887 240.01 13.8722 239.477 13.8722C238.817 13.8722 238.224 13.7159 237.698 13.4034C237.176 13.0909 236.763 12.6364 236.457 12.0398C236.155 11.4432 236.004 10.7187 236.004 9.86648C236.004 9.02841 236.152 8.29865 236.446 7.6772C236.741 7.0522 237.151 6.56925 237.677 6.22834C238.203 5.88388 238.81 5.71165 239.499 5.71165C240.031 5.71165 240.454 5.80043 240.766 5.97798C241.082 6.15199 241.324 6.35085 241.491 6.57457C241.661 6.79474 241.793 6.97585 241.885 7.1179H242.013V5.81818H243.227V14.2344C243.227 14.9375 243.068 15.5092 242.748 15.9496C242.432 16.3935 242.006 16.7184 241.47 16.9244C240.937 17.1339 240.344 17.2386 239.69 17.2386ZM239.648 12.7429C240.152 12.7429 240.578 12.6275 240.926 12.3967C241.274 12.1658 241.539 11.8338 241.72 11.4006C241.901 10.9673 241.992 10.4489 241.992 9.84517C241.992 9.25568 241.903 8.73544 241.725 8.28445C241.548 7.83345 241.285 7.48011 240.937 7.22443C240.589 6.96875 240.159 6.84091 239.648 6.84091C239.115 6.84091 238.671 6.97585 238.316 7.24574C237.965 7.51562 237.7 7.87784 237.522 8.33239C237.348 8.78693 237.261 9.29119 237.261 9.84517C237.261 10.4134 237.35 10.9158 237.528 11.3526C237.709 11.7859 237.975 12.1268 238.327 12.3754C238.682 12.6204 239.122 12.7429 239.648 12.7429ZM245.528 14V5.81818H246.786V14H245.528ZM246.168 4.45455C245.923 4.45455 245.711 4.37109 245.534 4.20419C245.36 4.03729 245.273 3.83665 245.273 3.60227C245.273 3.3679 245.36 3.16726 245.534 3.00035C245.711 2.83345 245.923 2.75 246.168 2.75C246.413 2.75 246.622 2.83345 246.796 3.00035C246.974 3.16726 247.063 3.3679 247.063 3.60227C247.063 3.83665 246.974 4.03729 246.796 4.20419C246.622 4.37109 246.413 4.45455 246.168 4.45455ZM254.884 7.65057L253.754 7.97017C253.683 7.78196 253.578 7.59908 253.44 7.42152C253.305 7.24041 253.12 7.09126 252.886 6.97408C252.652 6.85689 252.352 6.7983 251.986 6.7983C251.485 6.7983 251.068 6.91371 250.734 7.14453C250.404 7.3718 250.239 7.66122 250.239 8.01278C250.239 8.32528 250.352 8.57209 250.58 8.7532C250.807 8.9343 251.162 9.08523 251.645 9.20597L252.859 9.50426C253.591 9.68182 254.136 9.95348 254.495 10.3192C254.853 10.6815 255.033 11.1484 255.033 11.7202C255.033 12.1889 254.898 12.608 254.628 12.9773C254.362 13.3466 253.989 13.6378 253.509 13.8509C253.03 14.0639 252.472 14.1705 251.837 14.1705C251.002 14.1705 250.311 13.9893 249.765 13.6271C249.218 13.2649 248.871 12.7358 248.726 12.0398L249.919 11.7415C250.033 12.1818 250.248 12.5121 250.564 12.7322C250.883 12.9524 251.3 13.0625 251.815 13.0625C252.401 13.0625 252.866 12.9382 253.211 12.6896C253.559 12.4375 253.733 12.1357 253.733 11.7841C253.733 11.5 253.634 11.2621 253.435 11.0703C253.236 10.875 252.93 10.7294 252.518 10.6335L251.155 10.3139C250.406 10.1364 249.855 9.86115 249.504 9.48828C249.156 9.11186 248.982 8.64134 248.982 8.0767C248.982 7.61506 249.111 7.20668 249.37 6.85156C249.633 6.49645 249.99 6.21768 250.441 6.01527C250.896 5.81286 251.411 5.71165 251.986 5.71165C252.795 5.71165 253.431 5.8892 253.893 6.24432C254.358 6.59943 254.688 7.06818 254.884 7.65057ZM260.483 5.81818V6.88352H256.243V5.81818H260.483ZM257.479 3.85795H258.736V11.6562C258.736 12.0114 258.788 12.2777 258.891 12.4553C258.997 12.6293 259.132 12.7464 259.295 12.8068C259.462 12.8636 259.638 12.892 259.823 12.892C259.961 12.892 260.075 12.8849 260.164 12.8707C260.252 12.853 260.323 12.8388 260.377 12.8281L260.632 13.9574C260.547 13.9893 260.428 14.0213 260.275 14.0533C260.123 14.0888 259.929 14.1065 259.695 14.1065C259.34 14.1065 258.992 14.0302 258.651 13.8775C258.313 13.7248 258.033 13.4922 257.809 13.1797C257.589 12.8672 257.479 12.473 257.479 11.9972V3.85795ZM262.374 14V5.81818H263.589V7.05398H263.674C263.823 6.64915 264.093 6.32067 264.484 6.06854C264.874 5.81641 265.315 5.69034 265.805 5.69034C265.897 5.69034 266.012 5.69212 266.151 5.69567C266.289 5.69922 266.394 5.70455 266.465 5.71165V6.99006C266.422 6.9794 266.325 6.96342 266.172 6.94212C266.023 6.91726 265.865 6.90483 265.698 6.90483C265.3 6.90483 264.945 6.98828 264.633 7.15518C264.324 7.31854 264.079 7.54581 263.898 7.837C263.72 8.12464 263.631 8.45312 263.631 8.82244V14H262.374ZM271.137 14.1705C270.348 14.1705 269.668 13.9964 269.097 13.6484C268.528 13.2969 268.09 12.8068 267.781 12.1783C267.475 11.5462 267.323 10.8111 267.323 9.97301C267.323 9.13494 267.475 8.39631 267.781 7.7571C268.09 7.11435 268.519 6.61364 269.07 6.25497C269.624 5.89276 270.27 5.71165 271.009 5.71165C271.435 5.71165 271.856 5.78267 272.271 5.92472C272.687 6.06676 273.065 6.29759 273.406 6.61719C273.747 6.93324 274.018 7.35227 274.221 7.87429C274.423 8.39631 274.524 9.03906 274.524 9.80256V10.3352H268.218V9.24858H273.246C273.246 8.78693 273.154 8.375 272.969 8.01278C272.788 7.65057 272.529 7.3647 272.191 7.15518C271.858 6.94567 271.463 6.84091 271.009 6.84091C270.508 6.84091 270.075 6.9652 269.709 7.21378C269.347 7.45881 269.068 7.77841 268.873 8.17258C268.677 8.56676 268.58 8.98935 268.58 9.44034V10.1648C268.58 10.7827 268.686 11.3065 268.899 11.7362C269.116 12.1623 269.416 12.4872 269.8 12.7109C270.183 12.9311 270.629 13.0412 271.137 13.0412C271.467 13.0412 271.765 12.995 272.032 12.9027C272.301 12.8068 272.534 12.6648 272.729 12.4766C272.925 12.2848 273.076 12.0469 273.182 11.7628L274.397 12.1037C274.269 12.5156 274.054 12.8778 273.752 13.1903C273.45 13.4993 273.077 13.7408 272.633 13.9148C272.19 14.0852 271.691 14.1705 271.137 14.1705ZM276.437 14V5.81818H277.651V7.05398H277.736C277.886 6.64915 278.155 6.32067 278.546 6.06854C278.937 5.81641 279.377 5.69034 279.867 5.69034C279.959 5.69034 280.075 5.69212 280.213 5.69567C280.352 5.69922 280.457 5.70455 280.528 5.71165V6.99006C280.485 6.9794 280.387 6.96342 280.235 6.94212C280.085 6.91726 279.927 6.90483 279.761 6.90483C279.363 6.90483 279.008 6.98828 278.695 7.15518C278.386 7.31854 278.141 7.54581 277.96 7.837C277.783 8.12464 277.694 8.45312 277.694 8.82244V14H276.437ZM282.018 14V5.81818H283.275V14H282.018ZM282.657 4.45455C282.412 4.45455 282.201 4.37109 282.023 4.20419C281.849 4.03729 281.762 3.83665 281.762 3.60227C281.762 3.3679 281.849 3.16726 282.023 3.00035C282.201 2.83345 282.412 2.75 282.657 2.75C282.902 2.75 283.112 2.83345 283.286 3.00035C283.463 3.16726 283.552 3.3679 283.552 3.60227C283.552 3.83665 283.463 4.03729 283.286 4.20419C283.112 4.37109 282.902 4.45455 282.657 4.45455ZM286.834 9.07812V14H285.577V5.81818H286.792V7.09659H286.898C287.09 6.68111 287.381 6.3473 287.772 6.09517C288.163 5.83949 288.667 5.71165 289.285 5.71165C289.839 5.71165 290.323 5.82528 290.739 6.05256C291.154 6.27628 291.478 6.61719 291.708 7.07528C291.939 7.52983 292.055 8.10511 292.055 8.80114V14H290.797V8.88636C290.797 8.24361 290.631 7.7429 290.297 7.38423C289.963 7.02202 289.505 6.84091 288.922 6.84091C288.521 6.84091 288.163 6.92791 287.847 7.10192C287.534 7.27592 287.287 7.52983 287.106 7.86364C286.925 8.19744 286.834 8.60227 286.834 9.07812ZM297.654 17.2386C297.047 17.2386 296.525 17.1605 296.088 17.0043C295.651 16.8516 295.287 16.6491 294.996 16.397C294.709 16.1484 294.48 15.8821 294.309 15.598L295.311 14.8949C295.424 15.044 295.568 15.2145 295.742 15.4062C295.916 15.6016 296.154 15.7702 296.456 15.9123C296.761 16.0579 297.161 16.1307 297.654 16.1307C298.315 16.1307 298.86 15.9709 299.29 15.6513C299.719 15.3317 299.934 14.831 299.934 14.1491V12.4872H299.828C299.735 12.6364 299.604 12.821 299.433 13.0412C299.267 13.2578 299.025 13.4513 298.709 13.6218C298.396 13.7887 297.974 13.8722 297.441 13.8722C296.781 13.8722 296.188 13.7159 295.662 13.4034C295.14 13.0909 294.726 12.6364 294.421 12.0398C294.119 11.4432 293.968 10.7187 293.968 9.86648C293.968 9.02841 294.116 8.29865 294.41 7.6772C294.705 7.0522 295.115 6.56925 295.641 6.22834C296.166 5.88388 296.774 5.71165 297.463 5.71165C297.995 5.71165 298.418 5.80043 298.73 5.97798C299.046 6.15199 299.288 6.35085 299.455 6.57457C299.625 6.79474 299.757 6.97585 299.849 7.1179H299.977V5.81818H301.191V14.2344C301.191 14.9375 301.031 15.5092 300.712 15.9496C300.396 16.3935 299.97 16.7184 299.433 16.9244C298.901 17.1339 298.308 17.2386 297.654 17.2386ZM297.612 12.7429C298.116 12.7429 298.542 12.6275 298.89 12.3967C299.238 12.1658 299.503 11.8338 299.684 11.4006C299.865 10.9673 299.955 10.4489 299.955 9.84517C299.955 9.25568 299.867 8.73544 299.689 8.28445C299.512 7.83345 299.249 7.48011 298.901 7.22443C298.553 6.96875 298.123 6.84091 297.612 6.84091C297.079 6.84091 296.635 6.97585 296.28 7.24574C295.928 7.51562 295.664 7.87784 295.486 8.33239C295.312 8.78693 295.225 9.29119 295.225 9.84517C295.225 10.4134 295.314 10.9158 295.492 11.3526C295.673 11.7859 295.939 12.1268 296.291 12.3754C296.646 12.6204 297.086 12.7429 297.612 12.7429Z" fill="#4E4F3D"/>
<line x1="310" y1="8.5" x2="382" y2="8.5" stroke="#4E4F3D"/>
<line x1="462" y1="8.5" x2="534" y2="8.5" stroke="#4E4F3D"/>
<line x1="147" y1="8.5" x2="209" y2="8.5" stroke="#4E4F3D"/>
<path d="M3.30256 3.09091L5.74219 11.081H5.83274L8.27237 3.09091H11.2234L7.54261 14H4.03232L0.351562 3.09091H3.30256ZM20.0644 14.1545C19.3506 14.1545 18.7132 14.0089 18.1521 13.7177C17.5945 13.4229 17.2004 12.9879 16.9695 12.4126L16.7938 7.35227C17.156 6.76989 17.5857 6.35085 18.0828 6.09517C18.5835 5.83949 19.1553 5.71165 19.798 5.71165C20.3769 5.71165 20.9078 5.8022 21.3907 5.98331C21.8772 6.16442 22.2963 6.43253 22.6478 6.78764C22.9994 7.14276 23.271 7.58132 23.4628 8.10334C23.6581 8.6218 23.7558 9.21662 23.7558 9.88778V10.5376H16.8737V9.02486H21.3374C21.3303 8.74787 21.2629 8.50107 21.135 8.28445C21.0072 8.06783 20.8314 7.89915 20.6077 7.77841C20.3875 7.65412 20.1354 7.59197 19.8513 7.59197C19.5566 7.59197 19.2938 7.65767 19.0629 7.78906C18.8321 7.9169 18.6492 8.09268 18.5143 8.31641C18.3829 8.54013 18.3137 8.79048 18.3066 9.06747V10.6069C18.3066 10.9407 18.3722 11.2337 18.5036 11.4858C18.635 11.7344 18.8215 11.9279 19.0629 12.0664C19.3044 12.2049 19.5921 12.2741 19.9259 12.2741C20.1531 12.2741 20.3609 12.2422 20.5491 12.1783C20.7409 12.1143 20.9042 12.0202 21.0392 11.896C21.1741 11.7717 21.2753 11.619 21.3428 11.4379L23.7345 11.5071C23.635 12.0433 23.4166 12.5103 23.0793 12.908C22.7419 13.3022 22.3158 13.6094 21.8009 13.8295C21.286 14.0462 20.7071 14.1545 20.0644 14.1545ZM14.5566 12.4339C14.8371 12.4339 15.0892 12.3771 15.3129 12.2635C15.5402 12.1499 15.7213 11.9936 15.8563 11.7947C15.9912 11.5923 16.0587 11.358 16.0587 11.0916V10.3139C15.9841 10.353 15.8936 10.3885 15.787 10.4205C15.684 10.4524 15.5704 10.4826 15.4461 10.511C15.3218 10.5394 15.194 10.5643 15.0626 10.5856C14.9312 10.6069 14.8051 10.6264 14.6844 10.6442C14.4394 10.6832 14.2298 10.7436 14.0558 10.8253C13.8854 10.907 13.754 11.0135 13.6617 11.1449C13.5729 11.2727 13.5285 11.4254 13.5285 11.603C13.5285 11.8729 13.6244 12.0788 13.8161 12.2209C14.0115 12.3629 14.2583 12.4339 14.5566 12.4339ZM13.9227 14.1385C13.3438 14.1385 12.8396 14.0515 12.4099 13.8775C11.9802 13.6999 11.6482 13.4318 11.4138 13.0732C11.1794 12.7145 11.0622 12.267 11.0622 11.7308C11.0622 11.2763 11.1421 10.8945 11.3019 10.5856C11.4617 10.2731 11.6819 10.0192 11.9624 9.82386C12.2465 9.62855 12.5715 9.4794 12.9372 9.37642C13.303 9.27344 13.6919 9.20419 14.1038 9.16868C14.5725 9.12607 14.9472 9.0799 15.2277 9.03018C15.5118 8.98047 15.7178 8.91122 15.8456 8.82244C15.977 8.73011 16.0427 8.60227 16.0427 8.43892V8.41229C16.0427 8.1353 15.9486 7.92401 15.7604 7.77841C15.5722 7.62926 15.3183 7.55469 14.9987 7.55469C14.6578 7.55469 14.3808 7.62926 14.1677 7.77841C13.9546 7.92756 13.8215 8.13352 13.7682 8.39631L11.3659 8.31108C11.4369 7.81392 11.6198 7.37003 11.9145 6.9794C12.2128 6.58523 12.623 6.27628 13.145 6.05256C13.6705 5.82528 14.3133 5.71165 15.0732 5.71165C15.336 5.71165 15.5864 5.73651 15.8243 5.78622C16.0622 5.83239 16.2842 5.90518 16.4901 6.00462C16.6997 6.1005 16.8825 6.22656 17.0388 6.38281C17.1986 6.53906 17.3264 6.72372 17.4223 6.93679L17.2199 12.7109H17.0654C16.9056 13.0163 16.6659 13.2756 16.3463 13.4886C16.0303 13.7017 15.6627 13.8633 15.2437 13.9734C14.8247 14.0835 14.3843 14.1385 13.9227 14.1385ZM27.7029 3.09091V14H25.0981V3.09091H27.7029ZM33.1747 17.2386C32.397 17.2386 31.7312 17.1303 31.1772 16.9137C30.6232 16.6971 30.1882 16.4006 29.8722 16.0241C29.5561 15.6477 29.3661 15.2216 29.3022 14.7457L31.7685 14.6072C31.8146 14.7741 31.8999 14.9197 32.0241 15.044C32.152 15.1683 32.3171 15.2642 32.5195 15.3317C32.7255 15.3991 32.967 15.4329 33.244 15.4329C33.6808 15.4329 34.0412 15.3263 34.3253 15.1133C34.6129 14.9038 34.7567 14.5362 34.7567 14.0107V12.5724H34.6662C34.5632 12.8246 34.407 13.0501 34.1974 13.2489C33.9879 13.4478 33.7269 13.604 33.4144 13.7177C33.1055 13.8313 32.7504 13.8881 32.3491 13.8881C31.7525 13.8881 31.2056 13.7496 30.7085 13.4727C30.2148 13.1921 29.8189 12.7589 29.5206 12.1729C29.2259 11.5835 29.0785 10.8253 29.0785 9.89844C29.0785 8.94318 29.2312 8.1566 29.5366 7.53871C29.842 6.91726 30.2415 6.45739 30.7351 6.15909C31.2322 5.8608 31.7667 5.71165 32.3384 5.71165C32.7681 5.71165 33.1357 5.78622 33.4411 5.93537C33.75 6.08097 34.0039 6.26918 34.2028 6.5C34.4016 6.73082 34.5526 6.97053 34.6555 7.2191H34.7301V5.81818H37.3242V14.032C37.3242 14.7244 37.1502 15.3086 36.8022 15.7844C36.4542 16.2603 35.9677 16.6207 35.3427 16.8658C34.7177 17.1143 33.995 17.2386 33.1747 17.2386ZM33.2546 11.9918C33.5707 11.9918 33.8406 11.9084 34.0643 11.7415C34.288 11.5746 34.4602 11.3349 34.581 11.0224C34.7017 10.7099 34.7621 10.3352 34.7621 9.89844C34.7621 9.45455 34.7017 9.0728 34.581 8.7532C34.4638 8.43004 34.2915 8.18146 34.0643 8.00746C33.8406 7.83345 33.5707 7.74645 33.2546 7.74645C32.9315 7.74645 32.658 7.83523 32.4343 8.01278C32.2106 8.19034 32.0401 8.4407 31.9229 8.76385C31.8093 9.08345 31.7525 9.46165 31.7525 9.89844C31.7525 10.3352 31.8111 10.7099 31.9283 11.0224C32.0455 11.3349 32.2141 11.5746 32.4343 11.7415C32.658 11.9084 32.9315 11.9918 33.2546 11.9918ZM42.2075 14V5.81818H44.6844V7.32031H44.7749C44.9454 6.82315 45.233 6.43075 45.6379 6.14311C46.0427 5.85547 46.5257 5.71165 47.0867 5.71165C47.6549 5.71165 48.1414 5.85724 48.5463 6.14844C48.9511 6.43963 49.2085 6.83026 49.3186 7.32031H49.4039C49.5566 6.83381 49.8548 6.44496 50.2987 6.15376C50.7426 5.85902 51.2664 5.71165 51.8701 5.71165C52.6443 5.71165 53.2728 5.96023 53.7558 6.45739C54.2387 6.95099 54.4802 7.62926 54.4802 8.49219V14H51.8754V9.08878C51.8754 8.6804 51.7707 8.36967 51.5612 8.15661C51.3517 7.93999 51.08 7.83168 50.7462 7.83168C50.3875 7.83168 50.1052 7.94886 49.8992 8.18324C49.6968 8.41406 49.5956 8.72479 49.5956 9.11541V14H47.0921V9.06214C47.0921 8.68217 46.9891 8.3821 46.7831 8.16193C46.5771 7.94176 46.3055 7.83168 45.9681 7.83168C45.7409 7.83168 45.5402 7.88672 45.3662 7.9968C45.1922 8.10334 45.0555 8.25604 44.9561 8.4549C44.8602 8.65376 44.8122 8.88814 44.8122 9.15803V14H42.2075ZM58.4007 14.1385C57.8786 14.1385 57.4152 14.0515 57.0104 13.8775C56.6091 13.6999 56.2913 13.4336 56.0569 13.0785C55.8261 12.7198 55.7107 12.2706 55.7107 11.7308C55.7107 11.2763 55.7906 10.8928 55.9504 10.5803C56.1102 10.2678 56.3303 10.0138 56.6109 9.81854C56.8914 9.62322 57.2146 9.47585 57.5803 9.37642C57.9461 9.27344 58.3367 9.20419 58.7522 9.16868C59.2174 9.12607 59.5921 9.08168 59.8762 9.03551C60.1602 8.9858 60.3662 8.91655 60.4941 8.82777C60.6254 8.73544 60.6911 8.60582 60.6911 8.43892V8.41229C60.6911 8.13885 60.597 7.92756 60.4088 7.77841C60.2206 7.62926 59.9667 7.55469 59.6471 7.55469C59.3026 7.55469 59.0257 7.62926 58.8161 7.77841C58.6066 7.92756 58.4735 8.13352 58.4166 8.39631L56.0143 8.31108C56.0853 7.81392 56.2682 7.37003 56.5629 6.9794C56.8612 6.58523 57.2696 6.27628 57.7881 6.05256C58.3101 5.82528 58.9369 5.71165 59.6684 5.71165C60.1904 5.71165 60.6716 5.77379 61.1119 5.89808C61.5523 6.01882 61.9358 6.19638 62.2625 6.43075C62.5892 6.66158 62.8414 6.94567 63.0189 7.28303C63.2 7.62038 63.2906 8.00568 63.2906 8.43892V14H60.8403V12.8601H60.7764C60.6308 13.1371 60.4443 13.3714 60.2171 13.5632C59.9933 13.755 59.7288 13.8988 59.4234 13.9947C59.1215 14.0906 58.7806 14.1385 58.4007 14.1385ZM59.205 12.4339C59.4855 12.4339 59.7377 12.3771 59.9614 12.2635C60.1887 12.1499 60.3698 11.9936 60.5047 11.7947C60.6396 11.5923 60.7071 11.358 60.7071 11.0916V10.3139C60.6325 10.353 60.542 10.3885 60.4355 10.4205C60.3325 10.4524 60.2188 10.4826 60.0945 10.511C59.9703 10.5394 59.8424 10.5643 59.711 10.5856C59.5796 10.6069 59.4536 10.6264 59.3328 10.6442C59.0878 10.6832 58.8783 10.7436 58.7043 10.8253C58.5338 10.907 58.4024 11.0135 58.3101 11.1449C58.2213 11.2727 58.1769 11.4254 58.1769 11.603C58.1769 11.8729 58.2728 12.0788 58.4646 12.2209C58.6599 12.3629 58.9067 12.4339 59.205 12.4339ZM59.7536 4.95526C59.4269 4.95526 59.1286 4.87713 58.8588 4.72088C58.5889 4.56463 58.3722 4.35689 58.2089 4.09766C58.0491 3.83487 57.9692 3.54545 57.9692 3.2294C57.9692 2.9098 58.0491 2.61861 58.2089 2.35582C58.3722 2.09304 58.5889 1.88352 58.8588 1.72727C59.1286 1.56747 59.4269 1.48757 59.7536 1.48757C60.0839 1.48757 60.384 1.56747 60.6539 1.72727C60.9237 1.88352 61.1386 2.09304 61.2984 2.35582C61.4582 2.61861 61.5381 2.9098 61.5381 3.2294C61.5381 3.54545 61.4582 3.83487 61.2984 4.09766C61.1386 4.35689 60.9237 4.56463 60.6539 4.72088C60.384 4.87713 60.0839 4.95526 59.7536 4.95526ZM59.7536 3.95384C59.9703 3.95384 60.1514 3.88281 60.297 3.74077C60.4461 3.59517 60.5207 3.42472 60.5207 3.2294C60.5207 3.03054 60.4461 2.85653 60.297 2.70739C60.1514 2.55824 59.9703 2.48544 59.7536 2.48899C59.5406 2.49254 59.3595 2.56712 59.2103 2.71271C59.0612 2.85831 58.9866 3.03054 58.9866 3.2294C58.9866 3.42472 59.0612 3.59517 59.2103 3.74077C59.3595 3.88636 59.5406 3.95739 59.7536 3.95384ZM67.488 3.09091V14H64.8833V3.09091H67.488ZM73.7642 5.81818V7.7358H68.6026V5.81818H73.7642ZM69.6839 3.85795H72.2887V11.4272C72.2887 11.587 72.3136 11.7166 72.3633 11.8161C72.4165 11.9119 72.4929 11.9812 72.5923 12.0238C72.6918 12.0629 72.8107 12.0824 72.9492 12.0824C73.0487 12.0824 73.1534 12.0735 73.2635 12.0558C73.3771 12.0344 73.4624 12.0167 73.5192 12.0025L73.9134 13.8828C73.7891 13.9183 73.6133 13.9627 73.386 14.016C73.1623 14.0692 72.8942 14.103 72.5817 14.1172C71.9709 14.1456 71.4471 14.0746 71.0103 13.9041C70.5771 13.7301 70.245 13.4602 70.0142 13.0945C69.7869 12.7287 69.6768 12.2688 69.6839 11.7148V3.85795ZM75.0932 14V5.81818H77.698V14H75.0932ZM76.3983 4.8647C76.0325 4.8647 75.7182 4.74396 75.4554 4.50249C75.1926 4.25746 75.0613 3.96271 75.0613 3.61825C75.0613 3.27734 75.1926 2.98615 75.4554 2.74467C75.7182 2.49964 76.0325 2.37713 76.3983 2.37713C76.7676 2.37713 77.0819 2.49964 77.3411 2.74467C77.6039 2.98615 77.7353 3.27734 77.7353 3.61825C77.7353 3.96271 77.6039 4.25746 77.3411 4.50249C77.0819 4.74396 76.7676 4.8647 76.3983 4.8647ZM82.3442 14.1172C81.7405 14.1172 81.1919 13.9609 80.6982 13.6484C80.2046 13.3359 79.8105 12.8672 79.5157 12.2422C79.221 11.6172 79.0736 10.8413 79.0736 9.91442C79.0736 8.95206 79.2263 8.16016 79.5317 7.53871C79.8371 6.91726 80.2366 6.45739 80.7302 6.15909C81.2274 5.8608 81.7618 5.71165 82.3335 5.71165C82.7632 5.71165 83.1308 5.78622 83.4362 5.93537C83.7416 6.08097 83.9937 6.26918 84.1926 6.5C84.3914 6.73082 84.5423 6.97053 84.6453 7.2191H84.6986V3.09091H87.3034V14H84.7252V12.6737H84.6453C84.5352 12.9258 84.379 13.1619 84.1766 13.3821C83.9742 13.6023 83.7203 13.7798 83.4149 13.9148C83.113 14.0497 82.7561 14.1172 82.3442 14.1172ZM83.2497 12.0877C83.5658 12.0877 83.8357 11.9989 84.0594 11.8214C84.2831 11.6403 84.4553 11.3864 84.5761 11.0597C84.6968 10.733 84.7572 10.3494 84.7572 9.90909C84.7572 9.46165 84.6968 9.07635 84.5761 8.7532C84.4589 8.43004 84.2867 8.18146 84.0594 8.00746C83.8357 7.83345 83.5658 7.74645 83.2497 7.74645C82.9266 7.74645 82.6531 7.83523 82.4294 8.01278C82.2057 8.19034 82.0352 8.4407 81.9181 8.76385C81.8044 9.087 81.7476 9.46875 81.7476 9.90909C81.7476 10.3494 81.8062 10.733 81.9234 11.0597C82.0406 11.3864 82.2093 11.6403 82.4294 11.8214C82.6531 11.9989 82.9266 12.0877 83.2497 12.0877ZM96.0938 8.31641L93.7021 8.38033C93.6772 8.20987 93.6097 8.05895 93.4996 7.92756C93.3896 7.79261 93.2457 7.68786 93.0682 7.61328C92.8942 7.53516 92.6918 7.49609 92.4609 7.49609C92.1591 7.49609 91.9016 7.55646 91.6886 7.6772C91.479 7.79794 91.3761 7.96129 91.3796 8.16726C91.3761 8.32706 91.44 8.46555 91.5714 8.58274C91.7063 8.69993 91.946 8.79403 92.2905 8.86506L93.8672 9.16335C94.6839 9.3196 95.2912 9.57884 95.6889 9.94105C96.0902 10.3033 96.2926 10.7827 96.2962 11.3793C96.2926 11.9403 96.1257 12.4286 95.7955 12.8441C95.4688 13.2596 95.0213 13.5827 94.4531 13.8136C93.8849 14.0408 93.2351 14.1545 92.5036 14.1545C91.3352 14.1545 90.4137 13.9148 89.739 13.4354C89.0678 12.9524 88.6843 12.3061 88.5884 11.4964L91.1612 11.4325C91.218 11.7308 91.3654 11.9581 91.6033 12.1143C91.8413 12.2706 92.1449 12.3487 92.5142 12.3487C92.848 12.3487 93.1197 12.2866 93.3292 12.1623C93.5387 12.038 93.6452 11.8729 93.6488 11.6669C93.6452 11.4822 93.5636 11.3349 93.4038 11.2248C93.244 11.1112 92.9936 11.0224 92.6527 10.9585L91.2251 10.6868C90.4048 10.5376 89.794 10.2624 89.3928 9.86115C88.9915 9.45632 88.7926 8.94141 88.7962 8.31641C88.7926 7.76953 88.9382 7.30256 89.233 6.91548C89.5277 6.52486 89.9467 6.22656 90.4901 6.0206C91.0334 5.81463 91.6744 5.71165 92.413 5.71165C93.521 5.71165 94.3945 5.94425 95.0337 6.40945C95.6729 6.87109 96.0263 7.50675 96.0938 8.31641ZM99.9276 11.8533L99.9383 8.74787H100.301L102.602 5.81818H105.553L102.133 10.0156H101.446L99.9276 11.8533ZM97.5786 14V3.09091H100.183V14H97.5786ZM102.66 14L100.519 10.6016L102.234 8.7532L105.67 14H102.66ZM108.791 14.1385C108.269 14.1385 107.806 14.0515 107.401 13.8775C107 13.6999 106.682 13.4336 106.448 13.0785C106.217 12.7198 106.101 12.2706 106.101 11.7308C106.101 11.2763 106.181 10.8928 106.341 10.5803C106.501 10.2678 106.721 10.0138 107.002 9.81854C107.282 9.62322 107.605 9.47585 107.971 9.37642C108.337 9.27344 108.727 9.20419 109.143 9.16868C109.608 9.12607 109.983 9.08168 110.267 9.03551C110.551 8.9858 110.757 8.91655 110.885 8.82777C111.016 8.73544 111.082 8.60582 111.082 8.43892V8.41229C111.082 8.13885 110.988 7.92756 110.799 7.77841C110.611 7.62926 110.357 7.55469 110.038 7.55469C109.693 7.55469 109.416 7.62926 109.207 7.77841C108.997 7.92756 108.864 8.13352 108.807 8.39631L106.405 8.31108C106.476 7.81392 106.659 7.37003 106.954 6.9794C107.252 6.58523 107.66 6.27628 108.179 6.05256C108.701 5.82528 109.328 5.71165 110.059 5.71165C110.581 5.71165 111.062 5.77379 111.503 5.89808C111.943 6.01882 112.326 6.19638 112.653 6.43075C112.98 6.66158 113.232 6.94567 113.41 7.28303C113.591 7.62038 113.681 8.00568 113.681 8.43892V14H111.231V12.8601H111.167C111.021 13.1371 110.835 13.3714 110.608 13.5632C110.384 13.755 110.119 13.8988 109.814 13.9947C109.512 14.0906 109.171 14.1385 108.791 14.1385ZM109.596 12.4339C109.876 12.4339 110.128 12.3771 110.352 12.2635C110.579 12.1499 110.76 11.9936 110.895 11.7947C111.03 11.5923 111.098 11.358 111.098 11.0916V10.3139C111.023 10.353 110.933 10.3885 110.826 10.4205C110.723 10.4524 110.609 10.4826 110.485 10.511C110.361 10.5394 110.233 10.5643 110.102 10.5856C109.97 10.6069 109.844 10.6264 109.723 10.6442C109.478 10.6832 109.269 10.7436 109.095 10.8253C108.924 10.907 108.793 11.0135 108.701 11.1449C108.612 11.2727 108.568 11.4254 108.568 11.603C108.568 11.8729 108.663 12.0788 108.855 12.2209C109.051 12.3629 109.297 12.4339 109.596 12.4339ZM122.417 8.31641L120.025 8.38033C120 8.20987 119.933 8.05895 119.823 7.92756C119.713 7.79261 119.569 7.68786 119.391 7.61328C119.217 7.53516 119.015 7.49609 118.784 7.49609C118.482 7.49609 118.225 7.55646 118.012 7.6772C117.802 7.79794 117.699 7.96129 117.703 8.16726C117.699 8.32706 117.763 8.46555 117.895 8.58274C118.03 8.69993 118.269 8.79403 118.614 8.86506L120.19 9.16335C121.007 9.3196 121.614 9.57884 122.012 9.94105C122.413 10.3033 122.616 10.7827 122.619 11.3793C122.616 11.9403 122.449 12.4286 122.119 12.8441C121.792 13.2596 121.345 13.5827 120.776 13.8136C120.208 14.0408 119.558 14.1545 118.827 14.1545C117.658 14.1545 116.737 13.9148 116.062 13.4354C115.391 12.9524 115.008 12.3061 114.912 11.4964L117.484 11.4325C117.541 11.7308 117.689 11.9581 117.927 12.1143C118.165 12.2706 118.468 12.3487 118.837 12.3487C119.171 12.3487 119.443 12.2866 119.652 12.1623C119.862 12.038 119.968 11.8729 119.972 11.6669C119.968 11.4822 119.887 11.3349 119.727 11.2248C119.567 11.1112 119.317 11.0224 118.976 10.9585L117.548 10.6868C116.728 10.5376 116.117 10.2624 115.716 9.86115C115.315 9.45632 115.116 8.94141 115.119 8.31641C115.116 7.76953 115.261 7.30256 115.556 6.91548C115.851 6.52486 116.27 6.22656 116.813 6.0206C117.357 5.81463 117.998 5.71165 118.736 5.71165C119.844 5.71165 120.718 5.94425 121.357 6.40945C121.996 6.87109 122.35 7.50675 122.417 8.31641ZM131.045 8.31641L128.653 8.38033C128.628 8.20987 128.561 8.05895 128.451 7.92756C128.341 7.79261 128.197 7.68786 128.019 7.61328C127.845 7.53516 127.643 7.49609 127.412 7.49609C127.11 7.49609 126.853 7.55646 126.64 7.6772C126.43 7.79794 126.327 7.96129 126.331 8.16726C126.327 8.32706 126.391 8.46555 126.523 8.58274C126.657 8.69993 126.897 8.79403 127.242 8.86506L128.818 9.16335C129.635 9.3196 130.242 9.57884 130.64 9.94105C131.041 10.3033 131.244 10.7827 131.247 11.3793C131.244 11.9403 131.077 12.4286 130.747 12.8441C130.42 13.2596 129.972 13.5827 129.404 13.8136C128.836 14.0408 128.186 14.1545 127.455 14.1545C126.286 14.1545 125.365 13.9148 124.69 13.4354C124.019 12.9524 123.635 12.3061 123.54 11.4964L126.112 11.4325C126.169 11.7308 126.317 11.9581 126.555 12.1143C126.792 12.2706 127.096 12.3487 127.465 12.3487C127.799 12.3487 128.071 12.2866 128.28 12.1623C128.49 12.038 128.596 11.8729 128.6 11.6669C128.596 11.4822 128.515 11.3349 128.355 11.2248C128.195 11.1112 127.945 11.0224 127.604 10.9585L126.176 10.6868C125.356 10.5376 124.745 10.2624 124.344 9.86115C123.943 9.45632 123.744 8.94141 123.747 8.31641C123.744 7.76953 123.889 7.30256 124.184 6.91548C124.479 6.52486 124.898 6.22656 125.441 6.0206C125.985 5.81463 126.626 5.71165 127.364 5.71165C128.472 5.71165 129.346 5.94425 129.985 6.40945C130.624 6.87109 130.977 7.50675 131.045 8.31641ZM136.354 14.1545C135.498 14.1545 134.76 13.9858 134.138 13.6484C133.521 13.3075 133.045 12.8228 132.711 12.1942C132.381 11.5621 132.215 10.8111 132.215 9.94105C132.215 9.09588 132.382 8.35724 132.716 7.72514C133.05 7.08949 133.521 6.59588 134.128 6.24432C134.735 5.8892 135.451 5.71165 136.274 5.71165C136.857 5.71165 137.389 5.8022 137.872 5.98331C138.355 6.16442 138.773 6.43253 139.124 6.78764C139.476 7.14276 139.749 7.58132 139.945 8.10334C140.14 8.6218 140.237 9.21662 140.237 9.88778V10.5376H133.126V9.02486H137.814C137.81 8.74787 137.745 8.50107 137.617 8.28445C137.489 8.06783 137.313 7.89915 137.089 7.77841C136.869 7.65412 136.615 7.59197 136.328 7.59197C136.036 7.59197 135.775 7.65767 135.545 7.78906C135.314 7.9169 135.131 8.09268 134.996 8.31641C134.861 8.53658 134.79 8.78693 134.783 9.06747V10.6069C134.783 10.9407 134.849 11.2337 134.98 11.4858C135.111 11.7344 135.298 11.9279 135.539 12.0664C135.781 12.2049 136.068 12.2741 136.402 12.2741C136.633 12.2741 136.843 12.2422 137.031 12.1783C137.219 12.1143 137.381 12.0202 137.516 11.896C137.65 11.7717 137.752 11.619 137.819 11.4379L140.211 11.5071C140.111 12.0433 139.893 12.5103 139.556 12.908C139.222 13.3022 138.783 13.6094 138.24 13.8295C137.697 14.0462 137.068 14.1545 136.354 14.1545Z" fill="#4E4F3D"/>
<path d="M390.321 14V3.09091H391.642V12.8281H396.713V14H390.321ZM402.018 14.1705C401.23 14.1705 400.55 13.9964 399.978 13.6484C399.41 13.2969 398.972 12.8068 398.663 12.1783C398.357 11.5462 398.205 10.8111 398.205 9.97301C398.205 9.13494 398.357 8.39631 398.663 7.7571C398.972 7.11435 399.401 6.61364 399.952 6.25497C400.506 5.89276 401.152 5.71165 401.891 5.71165C402.317 5.71165 402.738 5.78267 403.153 5.92472C403.569 6.06676 403.947 6.29759 404.288 6.61719C404.629 6.93324 404.9 7.35227 405.103 7.87429C405.305 8.39631 405.406 9.03906 405.406 9.80256V10.3352H399.099V9.24858H404.128C404.128 8.78693 404.036 8.375 403.851 8.01278C403.67 7.65057 403.411 7.3647 403.073 7.15518C402.739 6.94567 402.345 6.84091 401.891 6.84091C401.39 6.84091 400.957 6.9652 400.591 7.21378C400.229 7.45881 399.95 7.77841 399.755 8.17258C399.559 8.56676 399.462 8.98935 399.462 9.44034V10.1648C399.462 10.7827 399.568 11.3065 399.781 11.7362C399.998 12.1623 400.298 12.4872 400.681 12.7109C401.065 12.9311 401.511 13.0412 402.018 13.0412C402.349 13.0412 402.647 12.995 402.913 12.9027C403.183 12.8068 403.416 12.6648 403.611 12.4766C403.806 12.2848 403.957 12.0469 404.064 11.7628L405.278 12.1037C405.151 12.5156 404.936 12.8778 404.634 13.1903C404.332 13.4993 403.959 13.7408 403.515 13.9148C403.071 14.0852 402.572 14.1705 402.018 14.1705ZM413.76 5.81818L410.734 14H409.456L406.43 5.81818H407.794L410.052 12.3381H410.138L412.396 5.81818H413.76ZM418.557 14.1705C417.768 14.1705 417.088 13.9964 416.516 13.6484C415.948 13.2969 415.51 12.8068 415.201 12.1783C414.895 11.5462 414.743 10.8111 414.743 9.97301C414.743 9.13494 414.895 8.39631 415.201 7.7571C415.51 7.11435 415.939 6.61364 416.49 6.25497C417.044 5.89276 417.69 5.71165 418.429 5.71165C418.855 5.71165 419.276 5.78267 419.691 5.92472C420.107 6.06676 420.485 6.29759 420.826 6.61719C421.167 6.93324 421.438 7.35227 421.641 7.87429C421.843 8.39631 421.944 9.03906 421.944 9.80256V10.3352H415.638V9.24858H420.666C420.666 8.78693 420.574 8.375 420.389 8.01278C420.208 7.65057 419.949 7.3647 419.611 7.15518C419.277 6.94567 418.883 6.84091 418.429 6.84091C417.928 6.84091 417.495 6.9652 417.129 7.21378C416.767 7.45881 416.488 7.77841 416.293 8.17258C416.097 8.56676 416 8.98935 416 9.44034V10.1648C416 10.7827 416.106 11.3065 416.319 11.7362C416.536 12.1623 416.836 12.4872 417.22 12.7109C417.603 12.9311 418.049 13.0412 418.557 13.0412C418.887 13.0412 419.185 12.995 419.451 12.9027C419.721 12.8068 419.954 12.6648 420.149 12.4766C420.345 12.2848 420.495 12.0469 420.602 11.7628L421.816 12.1037C421.689 12.5156 421.474 12.8778 421.172 13.1903C420.87 13.4993 420.497 13.7408 420.053 13.9148C419.609 14.0852 419.111 14.1705 418.557 14.1705ZM423.857 14V5.81818H425.071V7.05398H425.156C425.305 6.64915 425.575 6.32067 425.966 6.06854C426.357 5.81641 426.797 5.69034 427.287 5.69034C427.379 5.69034 427.495 5.69212 427.633 5.69567C427.772 5.69922 427.877 5.70455 427.948 5.71165V6.99006C427.905 6.9794 427.807 6.96342 427.655 6.94212C427.505 6.91726 427.347 6.90483 427.18 6.90483C426.783 6.90483 426.428 6.98828 426.115 7.15518C425.806 7.31854 425.561 7.54581 425.38 7.837C425.203 8.12464 425.114 8.45312 425.114 8.82244V14H423.857ZM429.438 14V5.81818H430.695V14H429.438ZM430.077 4.45455C429.832 4.45455 429.621 4.37109 429.443 4.20419C429.269 4.03729 429.182 3.83665 429.182 3.60227C429.182 3.3679 429.269 3.16726 429.443 3.00035C429.621 2.83345 429.832 2.75 430.077 2.75C430.322 2.75 430.531 2.83345 430.705 3.00035C430.883 3.16726 430.972 3.3679 430.972 3.60227C430.972 3.83665 430.883 4.03729 430.705 4.20419C430.531 4.37109 430.322 4.45455 430.077 4.45455ZM434.254 9.07812V14H432.997V5.81818H434.212V7.09659H434.318C434.51 6.68111 434.801 6.3473 435.192 6.09517C435.582 5.83949 436.087 5.71165 436.705 5.71165C437.259 5.71165 437.743 5.82528 438.159 6.05256C438.574 6.27628 438.897 6.61719 439.128 7.07528C439.359 7.52983 439.475 8.10511 439.475 8.80114V14H438.217V8.88636C438.217 8.24361 438.051 7.7429 437.717 7.38423C437.383 7.02202 436.925 6.84091 436.342 6.84091C435.941 6.84091 435.582 6.92791 435.266 7.10192C434.954 7.27592 434.707 7.52983 434.526 7.86364C434.345 8.19744 434.254 8.60227 434.254 9.07812ZM445.074 17.2386C444.467 17.2386 443.945 17.1605 443.508 17.0043C443.071 16.8516 442.707 16.6491 442.416 16.397C442.129 16.1484 441.9 15.8821 441.729 15.598L442.73 14.8949C442.844 15.044 442.988 15.2145 443.162 15.4062C443.336 15.6016 443.574 15.7702 443.876 15.9123C444.181 16.0579 444.581 16.1307 445.074 16.1307C445.735 16.1307 446.28 15.9709 446.71 15.6513C447.139 15.3317 447.354 14.831 447.354 14.1491V12.4872H447.248C447.155 12.6364 447.024 12.821 446.853 13.0412C446.686 13.2578 446.445 13.4513 446.129 13.6218C445.816 13.7887 445.394 13.8722 444.861 13.8722C444.201 13.8722 443.608 13.7159 443.082 13.4034C442.56 13.0909 442.146 12.6364 441.841 12.0398C441.539 11.4432 441.388 10.7187 441.388 9.86648C441.388 9.02841 441.536 8.29865 441.83 7.6772C442.125 7.0522 442.535 6.56925 443.061 6.22834C443.586 5.88388 444.194 5.71165 444.882 5.71165C445.415 5.71165 445.838 5.80043 446.15 5.97798C446.466 6.15199 446.708 6.35085 446.875 6.57457C447.045 6.79474 447.176 6.97585 447.269 7.1179H447.397V5.81818H448.611V14.2344C448.611 14.9375 448.451 15.5092 448.132 15.9496C447.816 16.3935 447.39 16.7184 446.853 16.9244C446.321 17.1339 445.728 17.2386 445.074 17.2386ZM445.032 12.7429C445.536 12.7429 445.962 12.6275 446.31 12.3967C446.658 12.1658 446.923 11.8338 447.104 11.4006C447.285 10.9673 447.375 10.4489 447.375 9.84517C447.375 9.25568 447.287 8.73544 447.109 8.28445C446.931 7.83345 446.669 7.48011 446.321 7.22443C445.973 6.96875 445.543 6.84091 445.032 6.84091C444.499 6.84091 444.055 6.97585 443.7 7.24574C443.348 7.51562 443.084 7.87784 442.906 8.33239C442.732 8.78693 442.645 9.29119 442.645 9.84517C442.645 10.4134 442.734 10.9158 442.912 11.3526C443.093 11.7859 443.359 12.1268 443.711 12.3754C444.066 12.6204 444.506 12.7429 445.032 12.7429Z" fill="#4E4F3D"/>
</svg>
