<svg width="25" height="27" viewBox="0 0 25 27" fill="none" xmlns="http://www.w3.org/2000/svg">
<path d="M17.7469 11.423L17 10.9989V11.8578V18.4091C17 22.869 13.315 26.5 8.75 26.5C4.18497 26.5 0.5 22.869 0.5 18.4091C0.5 13.9492 4.18497 10.3182 8.75 10.3182C9.1729 10.3182 9.5 10.6524 9.5 11.0455V14.7273C9.5 15.1203 9.1729 15.4545 8.75 15.4545C7.10184 15.4545 5.75 16.7687 5.75 18.4091C5.75 20.0495 7.10184 21.3636 8.75 21.3636C10.3982 21.3636 11.75 20.0495 11.75 18.4091V1.22727C11.75 0.83422 12.0771 0.5 12.5 0.5H16.25C16.6729 0.5 17 0.83422 17 1.22727C17 4.90104 20.0308 7.86364 23.75 7.86364C24.1729 7.86364 24.5 8.19786 24.5 8.59091V12.2727C24.5 12.6658 24.1729 13 23.75 13C21.5625 13 19.5121 12.4254 17.7469 11.423Z" fill="#636851" stroke="#636851"/>
</svg>
