<svg width="36" height="34" viewBox="0 0 36 34" fill="none" xmlns="http://www.w3.org/2000/svg">
<path d="M35.3922 10.0084L35.3924 10.0172L35.3929 10.0259C35.4998 11.8102 35.5 12.3728 35.5 17C35.5 19.3075 35.4731 20.6033 35.4462 21.546C35.44 21.7624 35.4338 21.9612 35.4279 22.15C35.4083 22.7801 35.3921 23.3 35.392 23.9978C35.3578 25.3474 35.0899 26.6832 34.5986 27.9522C34.174 29.0157 33.5053 29.9801 32.638 30.7755L32.6322 30.7809L32.6265 30.7865C31.7893 31.6049 30.764 32.2347 29.6272 32.6263L29.6272 32.6262L29.6219 32.6281C28.2739 33.1094 26.8481 33.3699 25.4062 33.3981L25.3978 33.3983L25.3893 33.3987C23.4971 33.4999 22.8989 33.5 18 33.5C13.1011 33.5 12.5029 33.4999 10.6107 33.3987L10.6022 33.3983L10.5938 33.3981C9.15188 33.3699 7.72611 33.1094 6.37811 32.6281L6.37457 32.6269C5.23871 32.231 4.21322 31.6011 3.37215 30.7851L3.36666 30.7798L3.361 30.7746C2.49419 29.9838 1.83138 29.0191 1.42044 27.9549L1.42047 27.9549L1.4182 27.9492C0.911397 26.683 0.637533 25.3451 0.60788 23.993L0.607672 23.9836L0.607104 23.9741C0.500163 22.1898 0.5 21.6272 0.5 17C0.5 12.3728 0.500163 11.8102 0.607104 10.0259L0.607672 10.0164L0.60788 10.007C0.637533 8.65493 0.911398 7.31704 1.4182 6.05079L1.41823 6.05081L1.42044 6.04511C1.83138 4.98086 2.49419 4.01623 3.361 3.22536L3.36666 3.2202L3.37215 3.21488C4.21322 2.39894 5.23871 1.76905 6.37457 1.37314L6.37457 1.37316L6.37811 1.37189C7.72611 0.890649 9.15188 0.630112 10.5938 0.601904L10.6022 0.601739L10.6107 0.601287C12.5029 0.50013 13.1011 0.5 18 0.5C22.8989 0.5 23.4971 0.50013 25.3893 0.601287L25.3978 0.601739L25.4062 0.601904C26.8481 0.630112 28.2739 0.890649 29.6219 1.37189L29.6219 1.37192L29.6272 1.37375C30.764 1.7653 31.7893 2.3951 32.6265 3.21353L32.6263 3.21367L32.6366 3.22312C33.5007 4.02215 34.1695 4.98648 34.599 6.04886C35.0908 7.31955 35.3586 8.65707 35.3922 10.0084ZM32.5061 27.1431L32.5064 27.1423C32.9184 26.0766 33.1368 24.952 33.1518 23.8164C33.2421 22.1099 33.26 21.4636 33.26 17C33.26 12.538 33.2421 11.8906 33.1519 10.1855C33.1453 9.02637 32.9267 7.8775 32.5064 6.78976L32.5036 6.78267L32.5007 6.77567C32.1741 6.00143 31.6733 5.30642 31.0355 4.73812C30.3926 4.08064 29.5966 3.57773 28.7134 3.26814L28.711 3.26732C27.5903 2.88078 26.409 2.6763 25.217 2.66216C23.4113 2.56 22.7227 2.56 18.0213 2.56H18C15.6289 2.56 14.2746 2.58555 13.2868 2.61117C13.0507 2.61729 12.8366 2.62338 12.6352 2.62911C11.9918 2.64741 11.4789 2.662 10.8 2.66199L10.7963 2.66201C9.57661 2.67104 8.36698 2.8754 7.21871 3.26673L7.20415 3.27169L7.18992 3.27754C6.37779 3.61135 5.64968 4.10812 5.05658 4.73533C4.39123 5.29294 3.86539 5.9873 3.52062 6.76801L3.51665 6.777L3.51303 6.78613C3.08357 7.87217 2.85837 9.02157 2.84813 10.1821C2.74 11.8876 2.74 12.5427 2.74 16.9762V17C2.74 19.2401 2.76706 20.52 2.79421 21.4537C2.80071 21.6771 2.80717 21.8797 2.81324 22.07C2.8326 22.6773 2.848 23.1602 2.848 23.8V23.8083L2.84828 23.8166C2.88703 24.9838 3.14306 26.1347 3.604 27.2166C3.91048 28.0251 4.40809 28.7539 5.05633 29.3483C5.66451 29.9421 6.39351 30.4103 7.19752 30.7255L7.21264 30.7314L7.22812 30.7364C8.39868 31.1096 9.62779 31.29 10.8621 31.2702C12.6625 31.372 13.3554 31.372 18.0505 31.372H18.072C22.7994 31.372 23.4809 31.3551 25.2866 31.2699C26.4794 31.256 27.6615 31.0515 28.783 30.6647L28.783 30.6647L28.7879 30.663C29.6308 30.3624 30.3966 29.8919 31.0317 29.2821C31.686 28.6855 32.1908 27.9546 32.5061 27.1431ZM18.0009 8.779L18.0018 8.779C19.1546 8.77474 20.2963 8.98581 21.361 9.39944C22.4256 9.81307 23.3914 10.4207 24.2034 11.1861C25.0154 11.9515 25.6574 12.8593 26.0942 13.8566C26.531 14.8538 26.7542 15.9217 26.752 16.999V17C26.752 18.6187 26.2441 20.2036 25.2888 21.5547C24.3332 22.9061 22.9718 23.9638 21.3735 24.59C19.775 25.2161 18.0144 25.3812 16.3151 25.0632C14.616 24.7452 13.0584 23.9593 11.8379 22.8088C10.6177 21.6586 9.78937 20.1962 9.45276 18.6081C9.11621 17.0202 9.28525 15.3735 9.93994 13.8745C10.5948 12.3752 11.7076 11.0881 13.1423 10.1794C14.5773 9.27053 16.2681 8.78219 18.0009 8.779ZM26.6788 6.64865C26.9527 6.4758 27.2775 6.382 27.612 6.382C28.0612 6.382 28.4866 6.55079 28.796 6.84301C29.1045 7.13431 29.272 7.52309 29.272 7.922C29.272 8.22 29.1786 8.51388 28.9998 8.76659C28.8207 9.01969 28.5631 9.2211 28.2564 9.34108C27.9496 9.46113 27.6104 9.49292 27.2829 9.4314C26.9555 9.36989 26.6585 9.21869 26.428 9.00099C26.1978 8.78358 26.0445 8.51012 25.9828 8.21694C25.9211 7.92401 25.9524 7.62004 26.0743 7.34215C26.1964 7.06386 26.4052 6.82133 26.6788 6.64865ZM14.4031 22.1298C15.4701 22.8031 16.7218 23.161 18 23.161C18.849 23.161 19.6902 23.0031 20.476 22.6957C21.2617 22.3883 21.9775 21.9371 22.5817 21.3664C23.186 20.7957 23.6669 20.1167 23.9956 19.3672C24.3244 18.6176 24.494 17.8132 24.494 17C24.494 15.7749 24.1092 14.5799 23.392 13.5661C22.6751 12.5528 21.6592 11.7672 20.476 11.3043C19.2929 10.8415 17.9926 10.7207 16.7383 10.9564C15.484 11.192 14.3281 11.7743 13.4183 12.6336C12.5081 13.4931 11.8848 14.5919 11.6319 15.7925C11.379 16.9935 11.5091 18.2379 12.0044 19.3672C12.4995 20.4961 13.3358 21.4563 14.4031 22.1298Z" fill="#636851" stroke="#636851"/>
</svg>
