<svg width="139" height="139" viewBox="0 0 139 139" fill="none" xmlns="http://www.w3.org/2000/svg">
<circle cx="69.5" cy="69.5" r="69.5" fill="#A3A276"/>
<circle cx="69.5" cy="69.5" r="69.5" fill="#A3A276"/>
<circle cx="69.5" cy="69.5" r="69.5" fill="#A3A276"/>
<mask id="mask0_301_2173" style="mask-type:luminance" maskUnits="userSpaceOnUse" x="39" y="42" width="62" height="59">
<path fill-rule="evenodd" clip-rule="evenodd" d="M39.6641 42.6484H100.746V100.831H39.6641V42.6484Z" fill="white"/>
</mask>
<g mask="url(#mask0_301_2173)">
<path fill-rule="evenodd" clip-rule="evenodd" d="M45.106 69.868C49.289 82.8824 65.8151 93.4056 70.2069 96.0102C74.6137 93.3787 91.2591 82.7392 95.3078 69.88C97.9662 61.5677 95.4988 51.0386 85.6947 47.879C80.9448 46.3544 75.4043 47.2823 71.5794 50.242C70.7798 50.8566 69.6699 50.8686 68.8643 50.2599C64.8126 47.2137 59.5197 46.3216 54.6952 47.879C44.9061 51.0357 42.4476 61.5647 45.106 69.868M70.2099 100.832C69.8399 100.832 69.4729 100.742 69.1388 100.56C68.2049 100.05 46.2069 87.9247 40.8454 71.2345C40.8424 71.2345 40.8424 71.2315 40.8424 71.2315C37.477 60.7234 41.2243 47.518 53.3228 43.6185C59.0035 41.7806 65.1945 42.5891 70.2009 45.7487C75.0522 42.6816 81.4968 41.8343 87.0642 43.6185C99.1745 47.524 102.934 60.7263 99.5714 71.2315C94.3829 87.7308 72.2238 100.038 71.284 100.554C70.9498 100.739 70.5799 100.832 70.2099 100.832" fill="#0A0C12"/>
</g>
<path fill-rule="evenodd" clip-rule="evenodd" d="M87.8597 65.3983C86.705 65.3983 85.7264 64.5122 85.6309 63.3427C85.434 60.8901 83.7931 58.8195 81.4569 58.0647C80.2784 57.6828 79.6339 56.4207 80.0129 55.2482C80.3977 54.0727 81.6479 53.4342 82.8294 53.8041C86.896 55.1199 89.7453 58.7211 90.0944 62.9787C90.1928 64.2109 89.2769 65.2909 88.0447 65.3894C87.982 65.3954 87.9223 65.3983 87.8597 65.3983" fill="#0A0C12"/>
</svg>
